<?xml version="1.0" encoding="UTF-8"?>
<svg width="160px" height="160px" viewBox="0 0 160 160" version="1.1" xmlns="http://www.w3.org/2000/svg" xmlns:xlink="http://www.w3.org/1999/xlink">
    <!-- Generator: Sketch 59.1 (86144) - https://sketch.com -->
    <title>Door Sensor</title>
    <desc>Created with Sketch.</desc>
    <g id="Door-Sensor" stroke="none" stroke-width="1" fill="none" fill-rule="evenodd">
        <g id="Group" transform="translate(50.000000, 2.000000)">
            <rect id="Rectangle" fill="#FF3B30" x="9" y="9" width="2" height="2"></rect>
            <path d="M16.6652538,0.5 C11.4574281,0.5 9.21159115,0.93369112 6.88630236,2.17726917 C4.85491807,3.26366538 3.26366538,4.85491807 2.17726917,6.88630236 C0.93369112,9.21159115 0.5,11.4574281 0.5,16.6652538 L0.5,137.334746 C0.5,142.542572 0.93369112,144.788409 2.17726917,147.113698 C3.26366538,149.145082 4.85491807,150.736335 6.88630236,151.822731 C9.21159115,153.066309 11.4574281,153.5 16.6652538,153.5 L43.3347462,153.5 C48.5425719,153.5 50.7884089,153.066309 53.1136976,151.822731 C55.1450819,150.736335 56.7363346,149.145082 57.8227308,147.113698 C59.0663089,144.788409 59.5,142.542572 59.5,137.334746 L59.5,16.6652538 C59.5,11.4574281 59.0663089,9.21159115 57.8227308,6.88630236 C56.7363346,4.85491807 55.1450819,3.26366538 53.1136976,2.17726917 C50.7884089,0.93369112 48.5425719,0.5 43.3347462,0.5 L16.6652538,0.5 Z" id="Rectangle" stroke="#000000"></path>
            <path d="M25.409713,18.5 C23.4531538,18.5 22.6373573,18.6575376 21.7936852,19.1087384 C21.0660046,19.4979062 20.4979062,20.0660046 20.1087384,20.7936852 C19.6575376,21.6373573 19.5,22.4531538 19.5,24.409713 L19.5,33.590287 C19.5,35.5468462 19.6575376,36.3626427 20.1087384,37.2063148 C20.4979062,37.9339954 21.0660046,38.5020938 21.7936852,38.8912616 C22.6373573,39.3424624 23.4531538,39.5 25.409713,39.5 L34.590287,39.5 C36.5468462,39.5 37.3626427,39.3424624 38.2063148,38.8912616 C38.9339954,38.5020938 39.5020938,37.9339954 39.8912616,37.2063148 C40.3424624,36.3626427 40.5,35.5468462 40.5,33.590287 L40.5,24.409713 C40.5,22.4531538 40.3424624,21.6373573 39.8912616,20.7936852 C39.5020938,20.0660046 38.9339954,19.4979062 38.2063148,19.1087384 C37.3626427,18.6575376 36.5468462,18.5 34.590287,18.5 L25.409713,18.5 Z" id="Rectangle" stroke="#000000"></path>
        </g>
        <path d="M116.409713,5.5 C114.453154,5.5 113.637357,5.65753757 112.793685,6.10873836 C112.066005,6.49790619 111.497906,7.06600459 111.108738,7.79368517 C110.657538,8.63735729 110.5,9.45315379 110.5,11.409713 L110.5,146.590287 C110.5,148.546846 110.657538,149.362643 111.108738,150.206315 C111.497906,150.933995 112.066005,151.502094 112.793685,151.891262 C113.637357,152.342462 114.453154,152.5 116.409713,152.5 L119.590287,152.5 C121.546846,152.5 122.362643,152.342462 123.206315,151.891262 C123.933995,151.502094 124.502094,150.933995 124.891262,150.206315 C125.342462,149.362643 125.5,148.546846 125.5,146.590287 L125.5,11.409713 C125.5,9.45315379 125.342462,8.63735729 124.891262,7.79368517 C124.502094,7.06600459 123.933995,6.49790619 123.206315,6.10873836 C122.362643,5.65753757 121.546846,5.5 119.590287,5.5 L116.409713,5.5 Z" id="Rectangle" stroke="#000000"></path>
    </g>
</svg>