<?xml version="1.0" encoding="UTF-8"?>
<svg width="158px" height="158px" viewBox="0 0 158 158" version="1.1" xmlns="http://www.w3.org/2000/svg" xmlns:xlink="http://www.w3.org/1999/xlink">
    <!-- Generator: Sketch 59.1 (86144) - https://sketch.com -->
    <title>ZV9101CS</title>
    <desc>Created with Sketch.</desc>
    <g id="ZV9101CS" stroke="none" stroke-width="1" fill="none" fill-rule="evenodd">
        <path d="M18,73 L18,89 L6,89 L6,73 L18,73 Z M11.292515,83.7062836 C11.1050059,84.0979951 11,84.5367348 11,85 C11,86.6568542 12.3431458,88 14,88 C14.4632652,88 14.9020049,87.8949941 15.2937164,87.707485 L11.292515,83.7062836 Z M8,82 L7,82 L7,87 L8,87 L8,82 Z M14,82 C13.5367348,82 13.0979951,82.1050059 12.7062836,82.292515 L16.707485,86.2937164 C16.8949941,85.9020049 17,85.4632652 17,85 C17,83.3431458 15.6568542,82 14,82 Z M11.292515,75.7062836 C11.1050059,76.0979951 11,76.5367348 11,77 C11,78.6568542 12.3431458,80 14,80 C14.4632652,80 14.9020049,79.8949941 15.2937164,79.707485 L11.292515,75.7062836 Z M8,75 L7,75 L7,80 L8,80 L8,75 Z M14,74 C13.5367348,74 13.0979951,74.1050059 12.7062836,74.292515 L16.707485,78.2937164 C16.8949941,77.9020049 17,77.4632652 17,77 C17,75.3431458 15.6568542,74 14,74 Z" id="Combined-Shape" fill="#000000"></path>
        <rect id="Rectangle" stroke="#000000" x="17.5" y="73.5" width="4" height="15"></rect>
        <rect id="Rectangle" fill="#000000" x="141" y="63" width="1" height="16"></rect>
        <rect id="Rectangle-Copy" fill="#000000" x="141" y="84" width="1" height="16"></rect>
        <rect id="Rectangle" stroke="#000000" x="135" y="63" width="13" height="37"></rect>
        <g id="Group" transform="translate(147.500000, 74.000000)" stroke="#000000">
            <path d="M6,9 L6,6 L4,6 C3.17157288,6 2.5,6.67157288 2.5,7.5 C2.5,8.32842712 3.17157288,9 4,9 L6,9 Z" id="Rectangle"></path>
            <path d="M0.5,0.805046545 L0.5,14.1972662 L5.50835156,11.736673 C5.73979727,11.6229642 5.80673119,11.5790996 5.86728701,11.5176703 C5.91143764,11.4728828 5.94098307,11.4254485 5.96171277,11.3660728 C5.99014506,11.2846346 6,11.2052172 6,10.9473474 L6,4.07146368 C6,3.81399288 5.99019025,3.73469888 5.96188488,3.65339796 C5.94124993,3.59412865 5.91183649,3.54677028 5.86785499,3.50200109 C5.80752467,3.44059029 5.74079479,3.39664836 5.51000091,3.28251952 L0.5,0.805046545 Z" id="Rectangle"></path>
        </g>
        <g id="Group" transform="translate(147.500000, 74.000000)" stroke="#000000">
            <path d="M6,9 L6,6 L4,6 C3.17157288,6 2.5,6.67157288 2.5,7.5 C2.5,8.32842712 3.17157288,9 4,9 L6,9 Z" id="Rectangle"></path>
            <path d="M0.5,0.805046545 L0.5,14.1972662 L5.50835156,11.736673 C5.73979727,11.6229642 5.80673119,11.5790996 5.86728701,11.5176703 C5.91143764,11.4728828 5.94098307,11.4254485 5.96171277,11.3660728 C5.99014506,11.2846346 6,11.2052172 6,10.9473474 L6,4.07146368 C6,3.81399288 5.99019025,3.73469888 5.96188488,3.65339796 C5.94124993,3.59412865 5.91183649,3.54677028 5.86785499,3.50200109 C5.80752467,3.44059029 5.74079479,3.39664836 5.51000091,3.28251952 L0.5,0.805046545 Z" id="Rectangle"></path>
        </g>
        <g id="Group" transform="translate(19.500000, 97.500000) scale(-1, 1) translate(-19.500000, -97.500000) translate(15.000000, 90.000000)" stroke="#000000">
            <path d="M8,9 L8,6 L6,6 C5.17157288,6 4.5,6.67157288 4.5,7.5 C4.5,8.32842712 5.17157288,9 6,9 L8,9 Z" id="Rectangle"></path>
            <path d="M2.01303173,0.780348858 L2.01186185,9.53567236 L1.83288751,12.0116539 L1.62927212,13.2279636 L1.15594954,14.5 L1.88380827,14.5 L7.50835156,11.736673 C7.73979727,11.6229642 7.80673119,11.5790996 7.86728701,11.5176703 C7.91143764,11.4728828 7.94098307,11.4254485 7.96171277,11.3660728 C7.99014506,11.2846346 8,11.2052172 8,10.9473474 L8,4.09378438 C8,3.83196769 7.98969327,3.75133259 7.95999306,3.66854733 C7.93831679,3.60812771 7.90745434,3.55995779 7.86162407,3.51501363 C7.79882872,3.45343241 7.72988141,3.41036831 7.4920277,3.30094443 L2.01303173,0.780348858 Z" id="Rectangle"></path>
        </g>
        <circle id="Oval" stroke="#000000" stroke-width="2" cx="141.5" cy="81.5" r="2.5"></circle>
        <path d="M130.718057,67 C131.163817,67 131.32546,67.0464128 131.488423,67.1335664 C131.651386,67.2207199 131.77928,67.3486142 131.866434,67.5115771 C131.953587,67.6745401 132,67.8361832 132,68.2819426 L132,94.7180574 C132,95.1638168 131.953587,95.3254599 131.866434,95.4884229 C131.77928,95.6513858 131.651386,95.7792801 131.488423,95.8664336 C131.32546,95.9535872 131.163817,96 130.718057,96 L123.281943,96 C122.836183,96 122.67454,95.9535872 122.511577,95.8664336 C122.348614,95.7792801 122.22072,95.6513858 122.133566,95.4884229 C122.046413,95.3254599 122,95.1638168 122,94.7180574 L122,68.2819426 C122,67.8361832 122.046413,67.6745401 122.133566,67.5115771 C122.22072,67.3486142 122.348614,67.2207199 122.511577,67.1335664 C122.67454,67.0464128 122.836183,67 123.281943,67 L130.718057,67 Z M127,89 C125.343146,89 124,90.3431458 124,92 C124,93.6568542 125.343146,95 127,95 C128.656854,95 130,93.6568542 130,92 C130,90.3431458 128.656854,89 127,89 Z M127,82 C125.343146,82 124,83.3431458 124,85 C124,86.6568542 125.343146,88 127,88 C128.656854,88 130,86.6568542 130,85 C130,83.3431458 128.656854,82 127,82 Z M127,75 C125.343146,75 124,76.3431458 124,78 C124,79.6568542 125.343146,81 127,81 C128.656854,81 130,79.6568542 130,78 C130,76.3431458 128.656854,75 127,75 Z M127,68 C125.343146,68 124,69.3431458 124,71 C124,72.6568542 125.343146,74 127,74 C128.656854,74 130,72.6568542 130,71 C130,69.3431458 128.656854,68 127,68 Z" id="Combined-Shape" fill="#000000"></path>
        <rect id="Rectangle" stroke="#000000" x="119" y="63" width="29" height="37" rx="1"></rect>
        <path d="M30.9735982,54 L139.026402,54 C142.146717,54 143.278219,54.3248896 144.41896,54.9349645 C145.559701,55.5450393 146.454961,56.4402993 147.065036,57.58104 C147.67511,58.7217808 148,59.8532826 148,62.9735982 L148,99.0264018 C148,102.146717 147.67511,103.278219 147.065036,104.41896 C146.454961,105.559701 145.559701,106.454961 144.41896,107.065036 C143.278219,107.67511 142.146717,108 139.026402,108 L30.9735982,108 C27.8532826,108 26.7217808,107.67511 25.58104,107.065036 C24.4402993,106.454961 23.5450393,105.559701 22.9349645,104.41896 C22.3248896,103.278219 22,102.146717 22,99.0264018 L22,62.9735982 C22,59.8532826 22.3248896,58.7217808 22.9349645,57.58104 C23.5450393,56.4402993 24.4402993,55.5450393 25.58104,54.9349645 C26.7217808,54.3248896 27.8532826,54 30.9735982,54 Z" id="Rectangle" stroke="#000000"></path>
        <rect id="Rectangle" fill="#000000" transform="translate(127.000000, 71.000000) rotate(45.000000) translate(-127.000000, -71.000000) " x="123" y="70" width="8" height="2"></rect>
        <rect id="Rectangle-Copy-5" fill="#000000" transform="translate(127.000000, 78.000000) rotate(45.000000) translate(-127.000000, -78.000000) " x="123" y="77" width="8" height="2"></rect>
        <rect id="Rectangle-Copy-6" fill="#000000" transform="translate(127.000000, 85.000000) rotate(45.000000) translate(-127.000000, -85.000000) " x="123" y="84" width="8" height="2"></rect>
        <rect id="Rectangle-Copy-7" fill="#000000" transform="translate(127.000000, 92.000000) rotate(45.000000) translate(-127.000000, -92.000000) " x="123" y="91" width="8" height="2"></rect>
        <rect id="Rectangle" stroke="#000000" x="135" y="67" width="13" height="10"></rect>
        <rect id="Rectangle-Copy-2" stroke="#000000" x="135" y="86" width="13" height="10"></rect>
        <circle id="Oval" fill="#000000" cx="32" cy="98" r="3"></circle>
    </g>
</svg>