<?xml version="1.0" encoding="UTF-8"?>
<svg class="icon" width="160px" height="160px" viewBox="0 0 160 160" version="1.1" 
    xmlns="http://www.w3.org/2000/svg" 
    xmlns:xlink="http://www.w3.org/1999/xlink">
    <!-- Generator: Sketch 54.1 (76490) - https://sketchapp.com -->
    <title>light</title>
    <desc>Created with Sketch.</desc>
    <g id="light" stroke="none" stroke-width="1" fill="none" fill-rule="evenodd">
        <path d="M119.251222,62.2922778 C119.251222,70.8368838 116.632157,78.7668579 112.156353,85.3321044 C106.440888,94.9142456 98.7223656,105.044204 98.7223656,116.086631 L98.7223656,116.681081 C98.7223656,117.429953 98.1092626,118.043056 97.3603902,118.043056 L59.2238597,118.043056 C58.4749873,118.043056 57.8618843,117.429953 57.8618843,116.681081 L57.8618843,116.086631 C57.8618843,105.647981 50.6136623,95.5285718 44.9047721,86.0025424 C40.14321,79.3094768 37.3333333,71.1319681 37.3333333,62.2922778 C37.3333333,39.6686272 55.6753544,21.3333333 78.2928893,21.3333333 C100.911953,21.3333333 119.251222,39.6686272 119.251222,62.2922778 Z M94.6364396,122.445778 C96.8937592,122.445778 98.7225182,124.27469 98.7223654,126.531856 C98.7223654,128.789176 96.8936064,130.617935 94.6362867,130.617935 L61.947963,130.617935 C59.6914079,130.617935 57.8618843,128.789176 57.8618843,126.531856 C57.8618843,124.27469 59.6915608,122.445778 61.947963,122.445778 L94.6364396,122.445778 Z M66.0340417,135.608379 L90.5502079,135.608379 C91.2990803,135.608379 91.47873,136.041985 90.9492599,136.571302 L84.7032548,142.81746 C84.1739375,143.346777 83.1270758,143.780383 82.3782035,143.780383 L74.2060461,143.780383 C73.4573267,143.780383 72.4106178,143.346777 71.8811476,142.81746 L65.6351425,136.571302 C65.1056724,136.041985 65.2851693,135.608379 66.0340417,135.608379 Z" id="Combined-Shape" fill="#4A4A4A" fill-rule="nonzero"></path>
    </g>
</svg>