<?xml version="1.0" encoding="UTF-8"?>
<svg width="500px" height="500px" viewBox="0 0 500 500" version="1.1" xmlns="http://www.w3.org/2000/svg" xmlns:xlink="http://www.w3.org/1999/xlink">
    <!-- Generator: Sketch 59.1 (86144) - https://sketch.com -->
    <title>ZW_Dimmer</title>
    <desc>Created with Sketch.</desc>
    <g id="ZW_Dimmer" stroke="none" stroke-width="1" fill="none" fill-rule="evenodd">
        <g id="Group-3" transform="translate(5.000000, 4.000000)">
            <g id="Group-2" transform="translate(11.948819, 18.000000)">
                <g id="icon" transform="translate(0.750000, 0.875000)">
                    <rect id="Rectangle" x="73.3125" y="387.3125" width="270.3125" height="85"></rect>
                    <line x1="21.125" y1="294.5" x2="23.625" y2="297.625" id="Path" stroke="#0A0C06" stroke-width="0.216" stroke-linejoin="bevel"></line>
                    <line x1="461.4375" y1="117.9375" x2="461.4375" y2="172.3125" id="Path" stroke="#0A0C06" stroke-width="0.216" stroke-linejoin="bevel"></line>
                    <line x1="23.625" y1="297.625" x2="23.625" y2="327.625" id="Path" stroke="#0A0C06" stroke-width="0.216" stroke-linejoin="bevel"></line>
                    <path d="M461.4375,117.9375 C461.4375,108.5625 457.6875,99.5 451.125,92.625" id="Path" stroke="#0A0C06" stroke-width="0.216" stroke-linejoin="bevel"></path>
                    <line x1="23.625" y1="200.4375" x2="23.625" y2="291.375" id="Path" stroke="#0A0C06" stroke-width="0.216" stroke-linejoin="bevel"></line>
                    <line x1="23.625" y1="164.8125" x2="23.625" y2="193.875" id="Path" stroke="#0A0C06" stroke-width="0.216" stroke-linejoin="bevel"></line>
                    <line x1="4.25" y1="164.8125" x2="23.625" y2="164.8125" id="Path" stroke="#0A0C06" stroke-width="0.216" stroke-linejoin="bevel"></line>
                    <line x1="4.25" y1="193.875" x2="4.25" y2="164.8125" id="Path" stroke="#0A0C06" stroke-width="0.216" stroke-linejoin="bevel"></line>
                    <line x1="7.0625" y1="197.3125" x2="4.25" y2="193.875" id="Path" stroke="#0A0C06" stroke-width="0.216" stroke-linejoin="bevel"></line>
                    <line x1="4.25" y1="200.4375" x2="7.0625" y2="197.3125" id="Path" stroke="#0A0C06" stroke-width="0.216" stroke-linejoin="bevel"></line>
                    <line x1="4.25" y1="291.375" x2="4.25" y2="200.4375" id="Path" stroke="#0A0C06" stroke-width="0.216" stroke-linejoin="bevel"></line>
                    <line x1="7.0625" y1="294.5" x2="4.25" y2="291.375" id="Path" stroke="#0A0C06" stroke-width="0.216" stroke-linejoin="bevel"></line>
                    <line x1="4.25" y1="297.625" x2="7.0625" y2="294.5" id="Path" stroke="#0A0C06" stroke-width="0.216" stroke-linejoin="bevel"></line>
                    <path d="M183.625,196.375 C183.625,205.4375 176.4375,212.625 167.375,212.625 C158.3125,212.625 151.125,205.4375 151.125,196.375 C151.125,190.4375 154.25,185.125 159.25,182.3125 C164.25,179.5 170.5,179.5 175.5,182.3125 C180.5,185.4375 183.625,190.75 183.625,196.375" id="Path" fill="#1D1D1B" fill-rule="nonzero"></path>
                    <line x1="92.375" y1="7.3125" x2="149.25" y2="66.0625" id="Path" stroke="#0A0C06" stroke-linejoin="bevel"></line>
                    <line x1="349.25" y1="379.5" x2="349.25" y2="470.125" id="Path" stroke="#0A0C06" stroke-linejoin="bevel"></line>
                    <line x1="64.875" y1="462.125" x2="64.875" y2="379.5" id="Path" stroke="#0A0C06" stroke-linejoin="bevel"></line>
                    <line x1="61.75" y1="150.75" x2="6.4375" y2="93.25" id="Path" stroke="#0A0C06" stroke-linejoin="bevel"></line>
                    <line x1="64.875" y1="379.5" x2="349.25" y2="379.5" id="Path" stroke="#0A0C06" stroke-linejoin="bevel"></line>
                    <line x1="149.25" y1="66.0625" x2="61.75" y2="150.75" id="Path" stroke="#0A0C06" stroke-linejoin="bevel"></line>
                    <line x1="23.625" y1="193.875" x2="21.125" y2="197.3125" id="Path" stroke="#0A0C06" stroke-width="0.216" stroke-linejoin="bevel"></line>
                    <line x1="6.4375" y1="93.25" x2="2.6875" y2="89.1875" id="Path" stroke="#0A0C06" stroke-linejoin="bevel"></line>
                    <line x1="85.1875" y1="1.6875" x2="88.625" y2="3.25" id="Path" stroke="#0A0C06" stroke-width="0.216" stroke-linejoin="bevel"></line>
                    <line x1="2.6875" y1="89.1875" x2="1.125" y2="85.75" id="Path" stroke="#0A0C06" stroke-linejoin="bevel"></line>
                    <path d="M442.0625,120.125 C442.0625,114.5 439.875,108.875 435.8125,104.8125" id="Path" stroke="#0A0C06" stroke-width="0.216" stroke-linejoin="bevel"></path>
                    <line x1="4.25" y1="333.25" x2="4.25" y2="297.625" id="Path" stroke="#0A0C06" stroke-width="0.216" stroke-linejoin="bevel"></line>
                    <line x1="417.375" y1="58.875" x2="451.125" y2="92.625" id="Path" stroke="#0A0C06" stroke-width="0.216" stroke-linejoin="bevel"></line>
                    <line x1="412.6875" y1="54.1875" x2="413" y2="58.5625" id="Path" stroke="#0A0C06" stroke-width="0.216" stroke-linejoin="bevel"></line>
                    <line x1="308.625" y1="15.125" x2="312.375" y2="12.3125" id="Path" stroke="#0A0C06" stroke-width="0.216" stroke-linejoin="bevel"></line>
                    <path d="M242.6875,12.3125 C239.25,12.3125 236.125,14.1875 234.25,17.3125 C232.375,20.4375 232.375,24.1875 234.25,27 C236.125,30.125 239.25,32 242.6875,32" id="Path" stroke="#0A0C06" stroke-width="0.216" stroke-linejoin="bevel"></path>
                    <line x1="308.625" y1="29.1875" x2="304.875" y2="31.6875" id="Path" stroke="#0A0C06" stroke-width="0.216" stroke-linejoin="bevel"></line>
                    <line x1="398.9375" y1="67.9375" x2="368.9375" y2="38.25" id="Path" stroke="#0A0C06" stroke-width="0.216" stroke-linejoin="bevel"></line>
                    <line x1="23.625" y1="291.375" x2="21.125" y2="294.5" id="Path" stroke="#0A0C06" stroke-width="0.216" stroke-linejoin="bevel"></line>
                    <line x1="403.625" y1="72.625" x2="403" y2="68.5625" id="Path" stroke="#0A0C06" stroke-width="0.216" stroke-linejoin="bevel"></line>
                    <path d="M4.25,333.25 C4.25,342.625 8,351.6875 14.5625,358.5625 C21.125,365.125 30.1875,368.875 39.875,368.875" id="Path" stroke="#0A0C06" stroke-width="0.216" stroke-linejoin="bevel"></path>
                    <line x1="413" y1="58.5625" x2="417.375" y2="58.875" id="Path" stroke="#0A0C06" stroke-width="0.216" stroke-linejoin="bevel"></line>
                    <line x1="381.125" y1="22.625" x2="412.6875" y2="54.1875" id="Path" stroke="#0A0C06" stroke-width="0.216" stroke-linejoin="bevel"></line>
                    <line x1="304.875" y1="12.3125" x2="308.625" y2="15.125" id="Path" stroke="#0A0C06" stroke-width="0.216" stroke-linejoin="bevel"></line>
                    <line x1="312.375" y1="31.6875" x2="308.625" y2="29.1875" id="Path" stroke="#0A0C06" stroke-width="0.216" stroke-linejoin="bevel"></line>
                    <line x1="403" y1="68.5625" x2="398.9375" y2="67.9375" id="Path" stroke="#0A0C06" stroke-width="0.216" stroke-linejoin="bevel"></line>
                    <path d="M368.9375,38.25 C364.875,34.1875 359.25,32 353.625,32" id="Path" stroke="#0A0C06" stroke-width="0.216" stroke-linejoin="bevel"></path>
                    <line x1="435.8125" y1="104.8125" x2="403.625" y2="72.625" id="Path" stroke="#0A0C06" stroke-width="0.216" stroke-linejoin="bevel"></line>
                    <path d="M381.125,22.625 C374.5625,16.0625 365.5,12.3125 355.8125,12.3125" id="Path" stroke="#0A0C06" stroke-width="0.216" stroke-linejoin="bevel"></path>
                    <line x1="312.375" y1="12.3125" x2="355.8125" y2="12.3125" id="Path" stroke="#0A0C06" stroke-width="0.216" stroke-linejoin="bevel"></line>
                    <line x1="242.6875" y1="12.3125" x2="304.875" y2="12.3125" id="Path" stroke="#0A0C06" stroke-width="0.216" stroke-linejoin="bevel"></line>
                    <line x1="304.875" y1="31.6875" x2="242.6875" y2="31.6875" id="Path" stroke="#0A0C06" stroke-width="0.216" stroke-linejoin="bevel"></line>
                    <line x1="353.625" y1="31.6875" x2="312.375" y2="31.6875" id="Path" stroke="#0A0C06" stroke-width="0.216" stroke-linejoin="bevel"></line>
                    <line x1="461.4375" y1="280.4375" x2="458.9375" y2="283.5625" id="Path" stroke="#0A0C06" stroke-width="0.216" stroke-linejoin="bevel"></line>
                    <line x1="461.4375" y1="172.3125" x2="458.9375" y2="175.4375" id="Path" stroke="#0A0C06" stroke-width="0.216" stroke-linejoin="bevel"></line>
                    <line x1="458.9375" y1="283.5625" x2="461.4375" y2="287" id="Path" stroke="#0A0C06" stroke-width="0.216" stroke-linejoin="bevel"></line>
                    <line x1="458.9375" y1="175.4375" x2="461.4375" y2="178.875" id="Path" stroke="#0A0C06" stroke-width="0.216" stroke-linejoin="bevel"></line>
                    <path d="M283.625,196.375 C283.625,202.3125 280.5,207.625 275.5,210.4375 C270.5,213.25 264.25,213.25 259.25,210.4375 C254.25,207.625 251.125,202.3125 251.125,196.375 C251.125,187.3125 258.3125,180.125 267.375,180.125 C276.4375,180.4375 283.625,187.625 283.625,196.375" id="Path" fill="#000000" fill-rule="nonzero"></path>
                    <line x1="461.4375" y1="287" x2="461.4375" y2="333.25" id="Path" stroke="#0A0C06" stroke-width="0.216" stroke-linejoin="bevel"></line>
                    <line x1="461.4375" y1="178.875" x2="461.4375" y2="280.4375" id="Path" stroke="#0A0C06" stroke-width="0.216" stroke-linejoin="bevel"></line>
                    <line x1="21.125" y1="197.3125" x2="23.625" y2="200.4375" id="Path" stroke="#0A0C06" stroke-width="0.216" stroke-linejoin="bevel"></line>
                    <line x1="73.9375" y1="368.875" x2="67.375" y2="368.875" id="Path" stroke="#0A0C06" stroke-width="0.216" stroke-linejoin="bevel"></line>
                    <line x1="113.9375" y1="366.0625" x2="110.8125" y2="368.875" id="Path" stroke="#0A0C06" stroke-width="0.216" stroke-linejoin="bevel"></line>
                    <line x1="117.0625" y1="368.875" x2="113.9375" y2="366.0625" id="Path" stroke="#0A0C06" stroke-width="0.216" stroke-linejoin="bevel"></line>
                    <line x1="351.75" y1="366.0625" x2="348.625" y2="368.875" id="Path" stroke="#0A0C06" stroke-width="0.216" stroke-linejoin="bevel"></line>
                    <line x1="355.1875" y1="368.875" x2="351.75" y2="366.0625" id="Path" stroke="#0A0C06" stroke-width="0.216" stroke-linejoin="bevel"></line>
                    <line x1="398.3125" y1="368.875" x2="391.75" y2="368.875" id="Path" stroke="#0A0C06" stroke-width="0.216" stroke-linejoin="bevel"></line>
                    <line x1="442.0625" y1="253.25" x2="442.0625" y2="224.8125" id="Path" stroke="#0A0C06" stroke-width="0.216" stroke-linejoin="bevel"></line>
                    <line x1="442.0625" y1="327.625" x2="442.0625" y2="321.6875" id="Path" stroke="#0A0C06" stroke-width="0.216" stroke-linejoin="bevel"></line>
                    <line x1="391.75" y1="349.1875" x2="398.3125" y2="349.1875" id="Path" stroke="#0A0C06" stroke-width="0.216" stroke-linejoin="bevel"></line>
                    <line x1="351.75" y1="352" x2="355.1875" y2="349.1875" id="Path" stroke="#0A0C06" stroke-width="0.216" stroke-linejoin="bevel"></line>
                    <path d="M242.6875,31.6875 C248,31.6875 252.375,27.3125 252.375,22" id="Path" stroke="#0A0C06" stroke-width="0.216" stroke-linejoin="bevel"></path>
                    <path d="M252.375,22 C252.375,16.6875 248,12.3125 242.6875,12.3125" id="Path" stroke="#0A0C06" stroke-width="0.216" stroke-linejoin="bevel"></path>
                    <line x1="391.75" y1="368.875" x2="236.125" y2="368.875" id="Path" stroke="#0A0C06" stroke-width="0.216" stroke-linejoin="bevel"></line>
                    <path d="M425.8125,368.875 C435.1875,368.875 444.25,365.125 451.125,358.5625 C457.6875,352 461.4375,342.9375 461.4375,333.25" id="Path" stroke="#0A0C06" stroke-width="0.216" stroke-linejoin="bevel"></path>
                    <line x1="442.0625" y1="280.4375" x2="442.0625" y2="178.875" id="Path" stroke="#0A0C06" stroke-width="0.216" stroke-linejoin="bevel"></line>
                    <path d="M420.5,349.1875 C432.375,349.1875 442.0625,339.5 442.0625,327.625" id="Path" stroke="#0A0C06" stroke-width="0.216" stroke-linejoin="bevel"></path>
                    <line x1="395.1875" y1="352" x2="398.3125" y2="349.1875" id="Path" stroke="#0A0C06" stroke-width="0.216" stroke-linejoin="bevel"></line>
                    <line x1="73.9375" y1="349.1875" x2="229.5625" y2="349.1875" id="Path" stroke="#0A0C06" stroke-width="0.216" stroke-linejoin="bevel"></line>
                    <line x1="67.375" y1="368.875" x2="39.875" y2="368.875" id="Path" stroke="#0A0C06" stroke-width="0.216" stroke-linejoin="bevel"></line>
                    <line x1="73.9375" y1="368.875" x2="70.8125" y2="366.0625" id="Path" stroke="#0A0C06" stroke-width="0.216" stroke-linejoin="bevel"></line>
                    <line x1="236.125" y1="368.875" x2="233" y2="366.0625" id="Path" stroke="#0A0C06" stroke-width="0.216" stroke-linejoin="bevel"></line>
                    <line x1="425.8125" y1="368.875" x2="398.3125" y2="368.875" id="Path" stroke="#0A0C06" stroke-width="0.216" stroke-linejoin="bevel"></line>
                    <line x1="442.0625" y1="178.875" x2="444.875" y2="175.4375" id="Path" stroke="#0A0C06" stroke-width="0.216" stroke-linejoin="bevel"></line>
                    <line x1="442.0625" y1="327.625" x2="442.0625" y2="287" id="Path" stroke="#0A0C06" stroke-width="0.216" stroke-linejoin="bevel"></line>
                    <line x1="398.3125" y1="349.1875" x2="420.5" y2="349.1875" id="Path" stroke="#0A0C06" stroke-width="0.216" stroke-linejoin="bevel"></line>
                    <line x1="229.5625" y1="349.1875" x2="233" y2="352" id="Path" stroke="#0A0C06" stroke-width="0.216" stroke-linejoin="bevel"></line>
                    <path d="M23.625,327.625 C23.625,333.25 25.8125,338.875 29.875,342.9375 C33.9375,347 39.5625,349.1875 45.1875,349.1875" id="Path" stroke="#0A0C06" stroke-width="0.216" stroke-linejoin="bevel"></path>
                    <line x1="233" y1="352" x2="236.125" y2="349.1875" id="Path" stroke="#0A0C06" stroke-width="0.216" stroke-linejoin="bevel"></line>
                    <line x1="45.1875" y1="349.1875" x2="67.375" y2="349.1875" id="Path" stroke="#0A0C06" stroke-width="0.216" stroke-linejoin="bevel"></line>
                    <line x1="70.8125" y1="366.0625" x2="67.375" y2="368.875" id="Path" stroke="#0A0C06" stroke-width="0.216" stroke-linejoin="bevel"></line>
                    <line x1="229.5625" y1="368.875" x2="73.9375" y2="368.875" id="Path" stroke="#0A0C06" stroke-width="0.216" stroke-linejoin="bevel"></line>
                    <line x1="395.1875" y1="366.0625" x2="391.75" y2="368.875" id="Path" stroke="#0A0C06" stroke-width="0.216" stroke-linejoin="bevel"></line>
                    <line x1="442.0625" y1="172.3125" x2="442.0625" y2="120.125" id="Path" stroke="#0A0C06" stroke-width="0.216" stroke-linejoin="bevel"></line>
                    <line x1="444.875" y1="283.5625" x2="442.0625" y2="280.4375" id="Path" stroke="#0A0C06" stroke-width="0.216" stroke-linejoin="bevel"></line>
                    <line x1="391.75" y1="349.1875" x2="395.1875" y2="352" id="Path" stroke="#0A0C06" stroke-width="0.216" stroke-linejoin="bevel"></line>
                    <line x1="70.8125" y1="352" x2="73.9375" y2="349.1875" id="Path" stroke="#0A0C06" stroke-width="0.216" stroke-linejoin="bevel"></line>
                    <line x1="233" y1="366.0625" x2="229.5625" y2="368.875" id="Path" stroke="#0A0C06" stroke-width="0.216" stroke-linejoin="bevel"></line>
                    <line x1="398.3125" y1="368.875" x2="395.1875" y2="366.0625" id="Path" stroke="#0A0C06" stroke-width="0.216" stroke-linejoin="bevel"></line>
                    <line x1="444.875" y1="175.4375" x2="442.0625" y2="172.3125" id="Path" stroke="#0A0C06" stroke-width="0.216" stroke-linejoin="bevel"></line>
                    <line x1="442.0625" y1="287" x2="444.875" y2="283.5625" id="Path" stroke="#0A0C06" stroke-width="0.216" stroke-linejoin="bevel"></line>
                    <line x1="236.125" y1="349.1875" x2="391.75" y2="349.1875" id="Path" stroke="#0A0C06" stroke-width="0.216" stroke-linejoin="bevel"></line>
                    <line x1="67.375" y1="349.1875" x2="70.8125" y2="352" id="Path" stroke="#0A0C06" stroke-width="0.216" stroke-linejoin="bevel"></line>
                    <line x1="88.625" y1="3.25" x2="92.375" y2="7.3125" id="Path" stroke="#0A0C06" stroke-linejoin="bevel"></line>
                    <line x1="348.625" y1="349.1875" x2="351.75" y2="352" id="Path" stroke="#0A0C06" stroke-width="0.216" stroke-linejoin="bevel"></line>
                    <line x1="113.9375" y1="352" x2="117.0625" y2="349.1875" id="Path" stroke="#0A0C06" stroke-width="0.216" stroke-linejoin="bevel"></line>
                    <line x1="110.8125" y1="349.1875" x2="113.9375" y2="352" id="Path" stroke="#0A0C06" stroke-width="0.216" stroke-linejoin="bevel"></line>
                    <line x1="67.375" y1="349.1875" x2="73.9375" y2="349.1875" id="Path" stroke="#0A0C06" stroke-width="0.216" stroke-linejoin="bevel"></line>
                    <path d="M120.8125,419.5 C120.8125,408.25 111.75,398.875 100.1875,398.875 C88.9375,398.875 79.5625,407.9375 79.5625,419.5" id="Path" stroke="#0A0C06" stroke-width="0.216" stroke-linejoin="bevel"></path>
                    <path d="M79.875,419.5 C79.875,430.75 88.9375,440.125 100.5,440.125 C111.75,440.125 121.125,431.0625 121.125,419.5" id="Path" stroke="#0A0C06" stroke-width="0.216" stroke-linejoin="bevel"></path>
                    <path d="M175.1875,419.5 C175.1875,408.25 166.125,398.875 154.5625,398.875 C143.3125,398.875 133.9375,407.9375 133.9375,419.5" id="Path" stroke="#0A0C06" stroke-width="0.216" stroke-linejoin="bevel"></path>
                    <path d="M133.9375,419.5 C133.9375,426.6875 138,433.5625 144.25,437.3125 C150.5,441.0625 158.3125,441.0625 164.875,437.3125 C171.125,433.5625 175.1875,427 175.1875,419.5" id="Path" stroke="#0A0C06" stroke-width="0.216" stroke-linejoin="bevel"></path>
                    <path d="M337.375,419.5 C337.375,408.25 328.3125,398.875 316.75,398.875 C305.5,398.875 296.125,407.9375 296.125,419.5" id="Path" stroke="#0A0C06" stroke-width="0.216" stroke-linejoin="bevel"></path>
                    <path d="M296.125,419.5 C296.125,426.6875 300.1875,433.5625 306.4375,437.3125 C312.6875,441.0625 320.5,441.0625 327.0625,437.3125 C333.3125,433.5625 337.375,427 337.375,419.5" id="Path" stroke="#0A0C06" stroke-width="0.216" stroke-linejoin="bevel"></path>
                    <path d="M283.3125,419.5 C283.3125,412.3125 279.25,405.4375 273,401.6875 C266.75,397.9375 258.9375,397.9375 252.375,401.6875 C246.125,405.4375 242.0625,412 242.0625,419.5" id="Path" stroke="#0A0C06" stroke-width="0.216" stroke-linejoin="bevel"></path>
                    <path d="M242.0625,419.5 C242.0625,430.75 251.125,440.125 262.6875,440.125 C273.9375,440.125 283.3125,431.0625 283.3125,419.5" id="Path" stroke="#0A0C06" stroke-width="0.216" stroke-linejoin="bevel"></path>
                    <path d="M229.25,419.5 C229.25,408.25 220.1875,398.875 208.625,398.875 C197.375,398.875 188,407.9375 188,419.5" id="Path" stroke="#0A0C06" stroke-width="0.216" stroke-linejoin="bevel"></path>
                    <path d="M188,419.5 C188,426.6875 192.0625,433.5625 198.3125,437.3125 C204.5625,441.0625 212.375,441.0625 218.9375,437.3125 C225.1875,433.5625 229.25,427 229.25,419.5" id="Path" stroke="#0A0C06" stroke-width="0.216" stroke-linejoin="bevel"></path>
                    <line x1="73.3125" y1="452" x2="343.625" y2="452" id="Path" stroke="#0A0C06" stroke-width="2" stroke-linejoin="bevel"></line>
                    <line x1="343.625" y1="387.3125" x2="73.3125" y2="387.3125" id="Path" stroke="#0A0C06" stroke-linejoin="bevel"></line>
                    <line x1="343.625" y1="387.3125" x2="343.625" y2="470.125" id="Path" stroke="#0A0C06" stroke-linejoin="bevel"></line>
                    <line x1="2.0625" y1="87" x2="2.0625" y2="86.6875" id="Path" stroke="#0A0C06" stroke-width="0.216" stroke-linejoin="bevel"></line>
                    <line x1="73.3125" y1="470.125" x2="73.3125" y2="387.3125" id="Path" stroke="#0A0C06" stroke-linejoin="bevel"></line>
                    <path d="M41.125,122.9375 C31.125,112.625 31.75,95.75 42.0625,85.75 C52.6875,75.75 69.25,75.75 79.25,86.375 C89.25,96.6875 88.9375,113.875 78.625,123.875 C68.3125,133.875 51.125,133.5625 41.125,122.9375 Z M103,105.4375 L61.125,62 L17.375,103.875 L59.25,147.3125 L103,105.4375 Z M54.25,130.75 L60.5,131.0625 C65.1875,87.625 61.4375,122.9375 66.125,79.5 L59.5625,78.875 C54.875,122.625 58.625,86.0625 54.25,130.75 Z" id="Shape" stroke="#1D1D1B"></path>
                    <path d="M84.875,81.0625 C74.875,70.75 75.5,53.875 85.8125,43.875 C96.125,33.875 113,33.875 123,44.1875 C133,54.5 132.6875,71.6875 122.375,81.6875 C111.75,92 94.875,91.6875 84.875,81.0625 Z M146.4375,63.5625 L104.5625,20.125 L61.125,62 L103,105.4375 L146.4375,63.5625 Z M97.6875,88.5625 L103.9375,88.875 C108.625,45.4375 104.875,80.75 109.5625,37.3125 L103,36.6875 C98.3125,80.75 102.0625,44.1875 97.6875,88.5625 Z" id="Shape" stroke="#1D1D1B"></path>
                    <path d="M100.5,399.1875 C111.75,399.1875 120.8125,408.5625 120.8125,419.8125 C120.8125,431.0625 111.75,440.4375 100.5,440.4375 C89.25,440.4375 79.875,431.0625 79.875,419.8125 C79.5625,408.5625 88.9375,399.1875 100.5,399.1875 Z M117.6875,408.5625 L114.5625,404.8125 C88.3125,426.6875 109.5625,408.875 83.625,430.75 L86.75,434.5 C112.6875,412.625 91.4375,430.125 117.6875,408.5625 Z" id="Shape" stroke="#1D1D1B"></path>
                    <path d="M154.5625,399.1875 C165.8125,399.1875 174.875,408.5625 174.875,419.8125 C174.875,431.0625 165.8125,440.4375 154.5625,440.4375 C143.3125,440.4375 133.9375,431.0625 133.9375,419.8125 C133.9375,408.5625 143.3125,399.1875 154.5625,399.1875 Z M143.3125,402.3125 L139.875,405.4375 C161.75,431.6875 143.9375,410.4375 165.8125,436.375 L169.5625,433.25 C148.625,408.25 162.6875,425.125 143.3125,402.3125 Z" id="Shape" stroke="#1D1D1B"></path>
                    <path d="M208.625,399.1875 C219.875,399.1875 228.9375,408.5625 228.9375,419.8125 C228.9375,431.0625 219.875,440.4375 208.625,440.4375 C197.375,440.4375 188,431.0625 188,419.8125 C188,408.5625 197.375,399.1875 208.625,399.1875 Z M197.375,402.3125 L193.9375,405.4375 C215.8125,431.6875 198,410.4375 219.875,436.375 L223.625,433.25 C201.4375,407 219.875,428.875 197.375,402.3125 Z" id="Shape" stroke="#1D1D1B"></path>
                    <path d="M262.6875,399.1875 C273.9375,399.1875 283,408.5625 283,419.8125 C283,431.0625 273.9375,440.4375 262.6875,440.4375 C251.4375,440.4375 242.0625,431.0625 242.0625,419.8125 C242.0625,408.5625 251.4375,399.1875 262.6875,399.1875 Z M279.875,408.5625 L276.75,404.8125 C250.5,426.6875 271.75,408.875 245.8125,430.75 L248.9375,434.5 C274.875,412.625 253.625,430.125 279.875,408.5625 Z" id="Shape" stroke="#1D1D1B"></path>
                    <path d="M316.75,399.1875 C328,399.1875 337.0625,408.5625 337.0625,419.8125 C337.0625,431.0625 328,440.4375 316.75,440.4375 C305.5,440.4375 296.125,431.0625 296.125,419.8125 C296.125,408.5625 305.5,399.1875 316.75,399.1875 Z M333.9375,408.5625 L330.8125,404.8125 C304.5625,426.6875 325.8125,408.875 299.875,430.75 L303,434.5 C328.9375,412.625 307.6875,430.125 333.9375,408.5625 Z" id="Shape" stroke="#1D1D1B"></path>
                    <path d="M242.6875,14.8125 C243.9375,14.8125 244.875,15.125 245.8125,15.4375 L356.4375,15.4375 C360.5,15.4375 364.5625,16.0625 368,17.625 C371.75,19.1875 374.875,21.375 377.6875,24.1875 L449.875,95.125 C453,97.9375 455.1875,101.375 456.75,105.125 C458.3125,108.875 458.9375,112.625 458.9375,117 L458.9375,328.25 C458.9375,338.25 454.875,347.3125 448.3125,354.1875 L448.3125,354.1875 C441.75,360.75 432.6875,364.8125 422.375,364.8125 L422.375,364.8125 L43.625,364.8125 L43.625,364.8125 C33.625,364.8125 24.5625,360.75 17.6875,354.1875 L17.6875,354.1875 C11.125,347.625 7.0625,338.5625 7.0625,328.25 L7.0625,219.1875 C7.0625,216.6875 9.25,214.5 11.75,214.5 L15.1875,214.5 C17.6875,214.5 19.875,216.6875 19.875,219.1875 L19.875,328.25 C19.875,334.8125 22.375,340.4375 26.75,344.8125 L26.75,344.8125 C30.8125,348.875 36.75,351.6875 43.3125,351.6875 L43.3125,351.6875 L422.0625,351.6875 L422.0625,351.6875 C428.625,351.6875 434.25,349.1875 438.625,344.8125 L438.625,344.8125 C442.6875,340.75 445.5,334.8125 445.5,328.25 L445.5,117 C445.5,114.5 445.1875,112.3125 444.25,110.125 C443.3125,107.9375 442.0625,106.0625 440.5,104.5 L368.3125,33.5625 C366.4375,32 364.875,30.75 362.6875,29.8125 C360.8125,28.875 358.625,28.5625 356.125,28.5625 L245.8125,28.5625 C244.875,28.875 243.9375,29.1875 242.6875,29.1875 C238.625,29.1875 235.5,26.0625 235.5,22 C235.5,17.9375 238.625,14.8125 242.6875,14.8125" id="Path" fill="#D8D8D8" fill-rule="nonzero"></path>
                </g>
            </g>
            <path d="M3.81253938,111.080154 C2.01710777,112.779921 1,115.143446 1,117.615851 L1,407.623483 C1,410.167214 2.07643401,412.592152 3.96301847,414.298425 L83.9879567,486.674942 C85.6425602,488.171406 87.7939928,489 90.0249382,489 L411.477671,489 C413.941656,489 416.297895,487.989785 417.996685,486.205035 L486.467833,414.269191 C488.060528,412.595905 488.948819,410.374257 488.948819,408.064157 L488.948819,117.364874 C488.948819,115.025829 488.038185,112.778668 486.409849,111.099486 L382.296023,3.73461203 C380.60094,1.98659814 378.269918,1 375.834993,1 L123.672571,1 C121.370846,1 119.156597,1.88187761 117.48511,3.46430332 L3.81253938,111.080154 Z" id="Rectangle" stroke="#000000" stroke-width="2"></path>
        </g>
        <path d="M263.970703,255.903809 L263.970703,241.107422 L261.28418,241.107422 L256.567383,252.684082 L256.393066,252.684082 L251.686523,241.107422 L249,241.107422 L249,255.903809 L251.132812,255.903809 L251.132812,245.06543 L251.276367,245.06543 L255.61377,255.637207 L257.356934,255.637207 L261.694336,245.06543 L261.837891,245.06543 L261.837891,255.903809 L263.970703,255.903809 Z M268.057982,242.778809 C268.827025,242.778809 269.452514,242.15332 269.452514,241.394531 C269.452514,240.625488 268.827025,240 268.057982,240 C267.288939,240 266.663451,240.625488 266.663451,241.394531 C266.663451,242.15332 267.288939,242.778809 268.057982,242.778809 Z M266.960814,255.903809 L269.15515,255.903809 L269.15515,244.768066 L266.960814,244.768066 L266.960814,255.903809 Z M271.888914,255.903809 L274.093504,255.903809 L274.093504,249.37207 C274.093504,247.577637 275.129148,246.470215 276.759519,246.470215 C278.389891,246.470215 279.169187,247.372559 279.169187,249.218262 L279.169187,255.903809 L281.373777,255.903809 L281.373777,248.695312 C281.373777,246.039551 279.999754,244.552734 277.508055,244.552734 C275.826414,244.552734 274.718992,245.30127 274.175535,246.531738 L274.011473,246.531738 L274.011473,244.768066 L271.888914,244.768066 L271.888914,255.903809 Z M285.676389,256.057617 C286.547971,256.057617 287.183713,255.411621 287.183713,254.581055 C287.183713,253.750488 286.547971,253.104492 285.676389,253.104492 C284.81506,253.104492 284.169064,253.750488 284.169064,254.581055 C284.169064,255.411621 284.81506,256.057617 285.676389,256.057617 Z M289.630367,251.956055 C289.79443,254.581055 291.999019,256.262695 295.280269,256.262695 C298.787105,256.262695 300.981441,254.499023 300.981441,251.699707 C300.981441,249.554077 299.807429,248.341883 296.974644,247.606331 L295.064937,247.136719 C293.137203,246.665039 292.357906,246.049805 292.357906,244.973145 C292.357906,243.588867 293.567867,242.696777 295.382808,242.696777 C297.105465,242.696777 298.294918,243.558105 298.51025,244.962891 L300.745601,244.962891 C300.612301,242.491699 298.417965,240.748535 295.41357,240.748535 C292.18359,240.748535 290.030269,242.491699 290.030269,245.096191 C290.030269,247.249512 291.250484,248.520996 293.926754,249.166992 L295.83398,249.628418 C297.792476,250.100098 298.653805,250.817871 298.653805,251.976562 C298.653805,253.330078 297.300289,254.304199 295.454586,254.304199 C293.475582,254.304199 292.101558,253.391602 291.906734,251.956055 L289.630367,251.956055 Z M310.55456,252.919922 C310.144404,253.822266 309.231807,254.314453 307.898799,254.314453 C306.135127,254.314453 304.996943,253.042969 304.925166,251.022949 L304.925166,250.92041 L312.81042,250.92041 L312.81042,250.161621 C312.81042,246.675293 310.933955,244.552734 307.827021,244.552734 C304.679072,244.552734 302.67956,246.818848 302.67956,250.356445 C302.67956,253.914551 304.638057,256.119141 307.837275,256.119141 C310.390498,256.119141 312.195185,254.888672 312.677119,252.919922 L310.55456,252.919922 Z M307.816767,246.347168 C309.447139,246.347168 310.513545,247.526367 310.564814,249.331055 L304.925166,249.331055 C305.048213,247.536621 306.186396,246.347168 307.816767,246.347168 Z M315.728754,241.958496 L317.933344,241.958496 L317.933344,244.798828 L320.353265,244.798828 L320.353265,246.5625 L317.933344,246.5625 L317.933344,252.437988 C317.933344,253.637695 318.415277,254.160645 319.512445,254.160645 C319.850824,254.160645 320.045648,254.140137 320.353265,254.109375 L320.353265,255.862793 C319.994379,255.924316 319.584222,255.975586 319.153558,255.975586 C316.702875,255.975586 315.728754,255.114258 315.728754,252.971191 L315.728754,246.5625 L313.954828,246.5625 L313.954828,244.798828 L315.728754,244.798828 L315.728754,241.958496 Z" id="Min.Set" fill="#000000" fill-rule="nonzero"></path>
        <path d="M162.136382,249.309082 L165.376617,249.309082 L168.391265,255 L171.047027,255 L167.724761,248.950195 C169.529449,248.345215 170.595855,246.725098 170.595855,244.725586 C170.595855,241.967285 168.678374,240.203613 165.694488,240.203613 L159.839507,240.203613 L159.839507,255 L162.136382,255 L162.136382,249.309082 Z M162.136382,242.131348 L165.376617,242.131348 C167.150542,242.131348 168.237457,243.125977 168.237457,244.776855 C168.237457,246.46875 167.212066,247.422363 165.43814,247.422363 L162.136382,247.422363 L162.136382,242.131348 Z M180.097197,252.016113 C179.68704,252.918457 178.774443,253.410645 177.441435,253.410645 C175.677763,253.410645 174.53958,252.13916 174.467802,250.119141 L174.467802,250.016602 L182.353056,250.016602 L182.353056,249.257812 C182.353056,245.771484 180.476591,243.648926 177.369658,243.648926 C174.221708,243.648926 172.222197,245.915039 172.222197,249.452637 C172.222197,253.010742 174.180693,255.215332 177.379912,255.215332 C179.933134,255.215332 181.737822,253.984863 182.219755,252.016113 L180.097197,252.016113 Z M177.359404,245.443359 C178.989775,245.443359 180.056181,246.622559 180.107451,248.427246 L174.467802,248.427246 C174.590849,246.632812 175.729033,245.443359 177.359404,245.443359 Z M184.235746,246.981445 C184.235746,248.568829 185.145856,249.502071 187.102811,250.009063 L189.290921,250.529297 C190.408597,250.795898 190.931546,251.24707 190.931546,251.944336 C190.931546,252.856934 189.957425,253.492676 188.583402,253.492676 C187.250394,253.492676 186.430081,252.949219 186.153226,252.077637 L183.948636,252.077637 C184.14346,254.015625 185.876371,255.215332 188.532132,255.215332 C191.198148,255.215332 193.156644,253.810547 193.156644,251.739258 C193.156644,250.119141 192.162015,249.206543 190.039456,248.714355 L188.183499,248.283691 C186.973538,247.996582 186.409574,247.565918 186.409574,246.878906 C186.409574,245.976562 187.342679,245.371582 188.573148,245.371582 C189.824124,245.371582 190.623929,245.915039 190.829007,246.745605 L192.941312,246.745605 C192.72598,244.817871 191.085355,243.648926 188.573148,243.648926 C186.050687,243.648926 184.235746,245.043457 184.235746,246.981445 Z M202.627224,252.016113 C202.217068,252.918457 201.30447,253.410645 199.971462,253.410645 C198.20779,253.410645 197.069607,252.13916 196.997829,250.119141 L196.997829,250.016602 L204.883083,250.016602 L204.883083,249.257812 C204.883083,245.771484 203.006619,243.648926 199.899685,243.648926 C196.751736,243.648926 194.752224,245.915039 194.752224,249.452637 C194.752224,253.010742 196.71072,255.215332 199.909939,255.215332 C202.463162,255.215332 204.267849,253.984863 204.749783,252.016113 L202.627224,252.016113 Z M199.889431,245.443359 C201.519802,245.443359 202.586208,246.622559 202.637478,248.427246 L196.997829,248.427246 C197.120876,246.632812 198.25906,245.443359 199.889431,245.443359 Z M207.801417,241.054688 L210.006007,241.054688 L210.006007,243.89502 L212.425929,243.89502 L212.425929,245.658691 L210.006007,245.658691 L210.006007,251.53418 C210.006007,252.733887 210.487941,253.256836 211.585109,253.256836 C211.923488,253.256836 212.118312,253.236328 212.425929,253.205566 L212.425929,254.958984 C212.067042,255.020508 211.656886,255.071777 211.226222,255.071777 C208.775538,255.071777 207.801417,254.210449 207.801417,252.067383 L207.801417,245.658691 L206.027492,245.658691 L206.027492,243.89502 L207.801417,243.89502 L207.801417,241.054688 Z" id="Reset" fill="#000000" fill-rule="nonzero"></path>
        <path d="M170.544522,103.361328 L170.544522,140 L183.773038,140 C194.691006,140 201.013272,133.246094 201.013272,121.591797 C201.013272,110.064453 194.640225,103.361328 183.773038,103.361328 L170.544522,103.361328 Z M176.232022,108.261719 L183.138272,108.261719 C190.730069,108.261719 195.224209,113.212891 195.224209,121.667969 C195.224209,130.199219 190.806241,135.099609 183.138272,135.099609 L176.232022,135.099609 L176.232022,108.261719 Z M209.636107,107.5 C211.540404,107.5 213.089232,105.951172 213.089232,104.072266 C213.089232,102.167969 211.540404,100.619141 209.636107,100.619141 C207.73181,100.619141 206.182982,102.167969 206.182982,104.072266 C206.182982,105.951172 207.73181,107.5 209.636107,107.5 Z M206.91931,140 L212.352904,140 L212.352904,112.425781 L206.91931,112.425781 L206.91931,140 Z M219.122223,140 L224.581208,140 L224.581208,123.064453 C224.581208,119.458984 227.09488,116.640625 230.421052,116.640625 C233.671052,116.640625 235.753083,118.595703 235.753083,121.744141 L235.753083,140 L241.110505,140 L241.110505,122.556641 C241.110505,119.230469 243.421052,116.640625 246.950348,116.640625 C250.530427,116.640625 252.30777,118.494141 252.30777,122.302734 L252.30777,140 L257.766755,140 L257.766755,120.982422 C257.766755,115.244141 254.516755,111.892578 248.930817,111.892578 C245.096833,111.892578 241.923005,113.847656 240.52652,116.818359 L240.09488,116.818359 C238.87613,113.847656 236.260895,111.892578 232.477692,111.892578 C228.796052,111.892578 226.003083,113.720703 224.784333,116.818359 L224.378083,116.818359 L224.378083,112.425781 L219.122223,112.425781 L219.122223,140 Z M264.180605,140 L269.63959,140 L269.63959,123.064453 C269.63959,119.458984 272.153262,116.640625 275.479434,116.640625 C278.729434,116.640625 280.811465,118.595703 280.811465,121.744141 L280.811465,140 L286.168887,140 L286.168887,122.556641 C286.168887,119.230469 288.479434,116.640625 292.00873,116.640625 C295.588809,116.640625 297.366152,118.494141 297.366152,122.302734 L297.366152,140 L302.825137,140 L302.825137,120.982422 C302.825137,115.244141 299.575137,111.892578 293.989199,111.892578 C290.155215,111.892578 286.981387,113.847656 285.584902,116.818359 L285.153262,116.818359 C283.934512,113.847656 281.319277,111.892578 277.536074,111.892578 C273.854434,111.892578 271.061465,113.720703 269.842715,116.818359 L269.436465,116.818359 L269.436465,112.425781 L264.180605,112.425781 L264.180605,140 Z M327.367894,132.611328 C326.352269,134.845703 324.092503,136.064453 320.791722,136.064453 C316.424534,136.064453 313.606175,132.916016 313.428441,127.914062 L313.428441,127.660156 L332.953831,127.660156 L332.953831,125.78125 C332.953831,117.148438 328.307347,111.892578 320.613987,111.892578 C312.819066,111.892578 307.867894,117.503906 307.867894,126.263672 C307.867894,135.074219 312.717503,140.533203 320.639378,140.533203 C326.961644,140.533203 331.430394,137.486328 332.623753,132.611328 L327.367894,132.611328 Z M320.588597,116.335938 C324.625706,116.335938 327.266331,119.255859 327.393284,123.724609 L313.428441,123.724609 C313.733128,119.28125 316.551487,116.335938 320.588597,116.335938 Z M338.250494,140 L338.250494,112.425781 L343.506354,112.425781 L343.506354,116.615234 L343.912604,116.615234 C344.699713,113.898438 347.771979,111.943359 351.377448,111.943359 C352.189948,111.943359 353.230963,112.019531 353.814948,112.146484 L353.814948,117.275391 C353.357916,117.148438 351.732916,116.970703 350.768073,116.970703 C346.629401,116.970703 343.709479,119.636719 343.709479,123.521484 L343.709479,140 L338.250494,140 Z" id="Dimmer" fill="#000000" fill-rule="nonzero"></path>
        <g id="Group" transform="translate(320.000000, 256.000000)" fill="#000000" fill-rule="nonzero">
            <polygon id="Path" points="111.764706 46.5608466 115.359477 46.5608466 115.359477 43.1216931 111.764706 43.1216931 111.764706 41.7989418 115.616246 41.7989418 115.616246 38.0952381 107.142857 38.0952381 107.142857 51.5873016 115.873016 51.5873016 115.873016 47.8835979 111.764706 47.8835979"></polygon>
            <path d="M97.2222222,44.3223443 C96.9529478,45.1007326 96.9529478,45.6196581 96.9529478,46.3980464 C96.9529478,45.6196581 96.9529478,45.1007326 96.6836735,44.3223443 L94.7987528,38.0952381 L89.6825397,38.0952381 L95.0680272,51.5873016 L99.3764172,51.5873016 L104.761905,38.0952381 L99.1071429,38.0952381 L97.2222222,44.3223443 Z" id="Path"></path>
            <path d="M42.0634921,20.6349206 C35.4497354,20.6349206 29.3650794,23.2804233 25.1322751,27.5132275 C20.8994709,32.010582 18.2539683,37.8306878 18.2539683,44.4444444 L22.2222222,44.4444444 C22.2222222,38.8888889 24.3386243,34.1269841 28.042328,30.4232804 C31.7460317,26.7195767 36.5079365,24.6031746 42.0634921,24.6031746 L42.0634921,20.6349206 Z" id="Path"></path>
            <path d="M9.12698413,44.8941799 C9.12698413,44.8941799 9.12698413,44.6560847 9.12698413,44.8941799 L9.12698413,44.8941799 L9.12698413,44.8941799 Z" id="Path"></path>
            <path d="M42.0634921,15.9055425 L42.0634921,11.9047619 C33.0687831,11.9047619 24.8677249,15.6388238 19.047619,21.5066354 C13.2275132,27.6411658 9.52380952,35.3760083 9.52380952,44.4444444 L13.7566138,44.4444444 C13.7566138,36.4428832 16.9312169,29.241478 21.957672,24.1738225 C27.2486772,19.1061671 34.1269841,15.9055425 42.0634921,15.9055425 Z" id="Path"></path>
            <path d="M41.6666667,31.7460317 C34.4509232,31.7460317 28.5714286,37.6255264 28.5714286,44.8412698 C28.5714286,52.0570133 34.4509232,57.9365079 41.6666667,57.9365079 C48.8824101,57.9365079 54.7619048,52.0570133 54.7619048,44.8412698 C54.7619048,37.6255264 48.8824101,31.7460317 41.6666667,31.7460317 Z M48.0806608,47.5137674 L45.4081633,51.7897635 L34.1836735,51.7897635 L40.3304179,42.1687723 L34.4509232,42.1687723 L37.1234208,37.8927762 L37.1234208,38.1600259 L48.3479106,38.1600259 L42.4684159,47.5137674 L48.0806608,47.5137674 Z" id="Shape"></path>
            <path d="M119.848082,3.19148936 C117.736222,1.32978723 115.096396,0 111.928605,0 L11.0872675,0 C7.9194768,0 5.01566864,1.32978723 3.16779072,3.45744681 C1.3199128,5.58510638 0,8.24468085 0,11.4361702 L0,88.8297872 C0,92.0212766 1.05593024,94.6808511 3.16779072,96.8085106 C5.2796512,98.6702128 7.9194768,100 11.0872675,100 L111.928605,100 C115.096396,100 117.736222,98.9361702 119.848082,96.8085106 C121.69596,94.6808511 123.015873,92.0212766 123.015873,88.8297872 L123.015873,11.1702128 C123.015873,7.9787234 121.959943,5.31914894 119.848082,3.19148936 Z M50.6846515,85.6382979 L48.0448259,85.6382979 L48.0448259,91.7553191 L43.2931399,91.7553191 L43.2931399,73.1382979 L50.6846515,73.1382979 C52.796512,73.1382979 54.3804074,73.6702128 55.4363376,74.4680851 C56.7562504,75.5319149 57.2842155,77.1276596 57.2842155,79.2553191 C57.2842155,83.5106383 55.1723551,85.6382979 50.6846515,85.6382979 Z M74.7070645,91.7553191 L64.1477621,91.7553191 L64.1477621,73.1382979 L68.8994482,73.1382979 L68.8994482,87.7659574 L74.7070645,87.7659574 L74.7070645,91.7553191 Z M96.8815996,83.5106383 C96.8815996,84.3085106 96.8815996,84.8404255 96.8815996,85.3723404 C96.8815996,85.9042553 96.8815996,86.7021277 96.617617,86.9680851 C96.3536344,88.2978723 95.8256693,89.0957447 95.0337216,89.893617 C94.241774,90.6914894 93.4498263,91.2234043 92.1299135,91.4893617 C91.0739832,91.7553191 90.018053,92.0212766 88.9621228,92.0212766 C87.64221,92.0212766 86.5862797,91.7553191 85.794332,91.4893617 C84.7384018,91.2234043 83.6824716,90.6914894 82.8905239,89.893617 C82.0985762,89.0957447 81.5706111,88.0319149 81.3066285,86.9680851 C81.3066285,86.4361702 81.042646,85.9042553 81.042646,85.3723404 C81.042646,84.8404255 81.042646,84.3085106 81.042646,83.5106383 L81.042646,73.1382979 L85.794332,73.1382979 L85.794332,82.9787234 C85.794332,83.7765957 85.794332,84.3085106 85.794332,84.8404255 C85.794332,85.3723404 86.0583146,86.1702128 86.0583146,86.4361702 C86.5862797,87.5 87.3782274,88.0319149 88.9621228,88.0319149 C90.2820356,88.0319149 91.3379658,87.5 91.8659309,86.4361702 C92.1299135,85.9042553 92.1299135,85.3723404 92.1299135,84.8404255 C92.1299135,84.3085106 92.1299135,83.7765957 92.1299135,82.9787234 L92.1299135,73.1382979 L96.8815996,73.1382979 L96.8815996,83.5106383 L96.8815996,83.5106383 Z M117.208257,87.7659574 C116.944274,88.8297872 116.416309,89.3617021 115.624361,90.1595745 C114.832414,90.6914894 114.040466,91.2234043 113.248518,91.4893617 C112.456571,91.7553191 111.40064,92.0212766 110.608693,92.0212766 C108.23285,92.0212766 106.120989,91.2234043 104.009129,89.893617 L106.120989,85.9042553 C106.912937,86.4361702 107.440902,86.9680851 107.968867,87.2340426 C108.760815,87.5 109.552762,87.7659574 110.34471,87.7659574 C110.872675,87.7659574 111.40064,87.5 111.928605,87.2340426 C112.456571,86.9680851 112.720553,86.4361702 112.720553,85.9042553 C112.720553,85.3723404 112.456571,84.8404255 111.664623,84.5744681 C111.40064,84.3085106 111.136658,84.3085106 110.608693,84.3085106 L109.816745,84.0425532 C109.024797,83.7765957 108.23285,83.5106383 107.704885,83.2446809 C107.176919,82.9787234 106.648954,82.712766 106.120989,82.4468085 C105.329041,81.6489362 104.801076,80.3191489 104.801076,78.7234043 C104.801076,76.8617021 105.329041,75.2659574 106.648954,74.2021277 C107.968867,73.1382979 109.28878,72.606383 111.136658,72.606383 C113.248518,72.606383 115.096396,73.1382979 116.944274,74.2021277 L114.568431,77.9255319 C113.512501,77.1276596 112.456571,76.5957447 111.40064,76.5957447 C110.872675,76.5957447 110.34471,76.5957447 110.080728,76.8617021 C109.552762,77.1276596 109.28878,77.6595745 109.28878,77.9255319 C109.28878,78.4574468 109.552762,78.7234043 110.080728,79.2553191 C110.34471,79.2553191 110.608693,79.5212766 110.872675,79.5212766 C111.136658,79.5212766 111.40064,79.787234 111.664623,79.787234 L112.984536,80.0531915 C114.304449,80.5851064 115.624361,81.1170213 116.152326,81.6489362 C116.944274,82.4468085 117.472239,83.5106383 117.472239,85.106383 C117.472239,86.1702128 117.472239,86.9680851 117.208257,87.7659574 Z M119.848082,60.106383 L57.8121807,60.106383 C53.8524423,64.3617021 48.0448259,67.0212766 41.9732271,67.0212766 C35.6376456,67.0212766 30.0940119,64.3617021 26.1342735,60.106383 L3.16779072,60.106383 L3.16779072,11.4361702 C3.16779072,9.30851064 3.9597384,7.44680851 5.54363376,5.85106383 C6.86354656,4.25531915 8.97540704,3.45744681 11.0872675,3.45744681 L111.928605,3.45744681 C114.040466,3.45744681 115.888344,4.25531915 117.472239,5.85106383 C119.056135,7.18085106 119.848082,9.30851064 119.848082,11.4361702 L119.848082,60.106383 Z" id="Shape"></path>
            <path d="M50.5952381,76.4705882 C50.3472222,76.4705882 50.0992063,76.1904762 49.6031746,76.1904762 C49.3551587,76.1904762 48.859127,76.1904762 48.3630952,76.1904762 L47.6190476,76.1904762 L47.6190476,80.952381 L48.3630952,80.952381 C48.859127,80.952381 49.3551587,80.952381 49.6031746,80.952381 C50.0992063,80.952381 50.3472222,80.6722689 50.5952381,80.6722689 C51.3392857,80.3921569 51.5873016,79.5518207 51.5873016,78.7114846 C51.5873016,77.5910364 51.3392857,76.7507003 50.5952381,76.4705882 Z" id="Path"></path>
            <path d="M80.2437642,37.3015873 L75.3968254,50.7936508 L80.5130385,50.7936508 L81.0515873,49.2368742 L84.8214286,49.2368742 L85.3599773,50.7936508 L90.4761905,50.7936508 L85.6292517,37.3015873 L80.2437642,37.3015873 Z M81.8594104,46.1233211 L82.6672336,41.971917 L82.9365079,41.971917 C82.9365079,42.2313797 82.9365079,42.4908425 83.2057823,42.7503053 C83.2057823,43.009768 83.2057823,43.009768 83.2057823,43.2692308 C83.2057823,43.5286935 83.2057823,43.5286935 83.2057823,43.7881563 L83.7443311,46.1233211 L81.8594104,46.1233211 L81.8594104,46.1233211 Z" id="Shape"></path>
            <path d="M71.3667285,38.0952381 L70.0267986,43.8034188 C69.7588126,44.5818071 69.7588126,45.3601954 69.7588126,46.1385836 L67.8829107,38.0952381 L64.399093,38.0952381 L63.0591631,43.543956 C62.7911771,44.3223443 62.7911771,45.1007326 62.7911771,46.1385836 L61.1832612,38.0952381 L55.5555556,38.0952381 L60.1113173,51.5873016 L64.131107,51.5873016 L65.4710369,46.3980464 C65.7390229,45.6196581 65.7390229,45.1007326 65.7390229,44.3223443 L66.0070089,44.3223443 L67.6149248,51.5873016 L71.6347145,51.5873016 L76.1904762,38.0952381 L71.3667285,38.0952381 L71.3667285,38.0952381 Z" id="Path"></path>
        </g>
    </g>
</svg>