<?xml version="1.0" encoding="UTF-8"?>
<svg width="158px" height="158px" viewBox="0 0 158 158" version="1.1" xmlns="http://www.w3.org/2000/svg" xmlns:xlink="http://www.w3.org/1999/xlink">
    <!-- Generator: Sketch 59.1 (86144) - https://sketch.com -->
    <title>ZV9001K4-DIM-G2_learnmode</title>
    <desc>Created with Sketch.</desc>
    <g id="ZV9001K4-DIM-G2_learnmode" stroke="none" stroke-width="1" fill="none" fill-rule="evenodd">
        <g id="icon">
            <path d="M9.3,0.5 C7,0.5 4.7,1.4 3.1,3.1 C1.4,4.7 0.5,6.9 0.5,9.3" id="Path" stroke="#000000" stroke-linejoin="bevel"></path>
            <path d="M0.5,147.8 C0.5,150.1 1.4,152.4 3.1,154 C4.7,155.6 7,156.6 9.3,156.6" id="Path" stroke="#000000" stroke-linejoin="bevel"></path>
            <path d="M156.6,9.3 C156.6,7 155.7,4.7 154,3.1 C152.4,1.5 150.1,0.5 147.8,0.5" id="Path" stroke="#000000" stroke-linejoin="bevel"></path>
            <line x1="147.8" y1="0.5" x2="9.3" y2="0.5" id="Path" stroke="#000000" stroke-linejoin="bevel"></line>
            <path d="M147.8,156.6 C150.1,156.6 152.4,155.7 154,154 C155.6,152.4 156.6,150.1 156.6,147.8" id="Path" stroke="#000000" stroke-linejoin="bevel"></path>
            <line x1="0.5" y1="9.3" x2="0.5" y2="147.8" id="Path" stroke="#000000" stroke-linejoin="bevel"></line>
            <line x1="9.3" y1="156.6" x2="147.8" y2="156.6" id="Path" stroke="#000000" stroke-linejoin="bevel"></line>
            <line x1="156.6" y1="147.8" x2="156.6" y2="9.3" id="Path" stroke="#000000" stroke-linejoin="bevel"></line>
            <path d="M103.5,139.4 C103.3,139.4 103,139.4 102.8,139.4" id="Path" stroke="#000000" stroke-linejoin="bevel"></path>
            <path d="M139.4,137.2 C139.4,127.8 139.4,113.7 139.4,109.1" id="Path" stroke="#000000" stroke-linejoin="bevel"></path>
            <path d="M139.4,78.1 C139.4,68.2 139.4,53.4 139.4,48.5" id="Path" stroke="#000000" stroke-linejoin="bevel"></path>
            <path d="M103.5,139.4 C114.7,139.4 131.6,139.4 137.2,139.4" id="Path" stroke="#000000" stroke-linejoin="bevel"></path>
            <path d="M17.7,78.8 C29.9,78.8 48.1,78.8 54.2,78.8" id="Path" stroke="#000000" stroke-linejoin="bevel"></path>
            <path d="M137.3,139.4 C137.9,139.4 138.6,139 138.8,138.8 C139.2,138.4 139.4,137.6 139.4,137.3" id="Path" stroke="#000000" stroke-linejoin="bevel"></path>
            <path d="M17.7,78.1 C17.7,78.3 17.7,78.6 17.7,78.8" id="Path" stroke="#000000" stroke-linejoin="bevel"></path>
            <path d="M102.9,17.6 C86.7,17.6 62.3,17.6 54.2,17.6" id="Path" stroke="#000000" stroke-linejoin="bevel"></path>
            <path d="M17.6,109 C17.6,99.1 17.6,83.7 17.6,78.8" id="Path" stroke="#000000" stroke-linejoin="bevel"></path>
            <path d="M102.9,109 C102.9,118.5 102.9,132.7 102.9,137.4" id="Path" stroke="#000000" stroke-linejoin="bevel"></path>
            <path d="M102.9,138.5 C102.9,138.8 102.9,139.2 102.9,139.3" id="Path" stroke="#000000" stroke-linejoin="bevel"></path>
            <path d="M102.9,137.4 C102.9,137.8 102.9,138.3 102.9,138.5" id="Path" stroke="#000000" stroke-linejoin="bevel"></path>
            <path d="M139.4,19.7 C139.4,19.1 139,18.4 138.8,18.2 C138.4,17.8 137.6,17.6 137.3,17.6" id="Path" stroke="#000000" stroke-linejoin="bevel"></path>
            <path d="M103.5,17.6 C103.3,17.6 103,17.6 102.8,17.6" id="Path" stroke="#000000" stroke-linejoin="bevel"></path>
            <path d="M139.4,48.5 C139.4,39.1 139.4,24.4 139.4,19.7" id="Path" stroke="#000000" stroke-linejoin="bevel"></path>
            <path d="M137.3,17.6 C126.1,17.6 109.2,17.6 103.6,17.6" id="Path" stroke="#000000" stroke-linejoin="bevel"></path>
            <path d="M54.2,109 C54.2,118.5 54.2,132.7 54.2,137.4" id="Path" stroke="#000000" stroke-linejoin="bevel"></path>
            <path d="M54.2,137.4 C54.2,138 54.2,139 54.2,139.3" id="Path" stroke="#000000" stroke-linejoin="bevel"></path>
            <path d="M54.4,20.4 C70.5,20.4 94.6,20.4 102.6,20.4" id="Path" stroke="#000000" stroke-linejoin="bevel"></path>
            <path d="M102.9,19.5 C102.9,39 102.9,68.4 102.9,78.1" id="Path" stroke="#000000" stroke-linejoin="bevel"></path>
            <path d="M102.6,136.5 C86.5,136.5 62.4,136.5 54.4,136.5" id="Path" stroke="#000000" stroke-linejoin="bevel"></path>
            <path d="M102.6,20.4 C102.6,59.1 102.6,117.2 102.6,136.6" id="Path" stroke="#000000" stroke-linejoin="bevel"></path>
            <path d="M102.9,17.6 C102.9,17.9 102.9,18.3 102.9,18.4" id="Path" stroke="#000000" stroke-linejoin="bevel"></path>
            <path d="M102.9,18.4 C102.9,18.8 102.9,19.3 102.9,19.5" id="Path" stroke="#000000" stroke-linejoin="bevel"></path>
            <path d="M139.4,78.8 C139.4,78.6 139.4,78.3 139.4,78.1" id="Path" stroke="#000000" stroke-linejoin="bevel"></path>
            <path d="M139.4,109 C139.4,99.1 139.4,83.7 139.4,78.8" id="Path" stroke="#000000" stroke-linejoin="bevel"></path>
            <path d="M17.6,78.1 C17.6,68.2 17.6,52.8 17.6,47.9" id="Path" stroke="#000000" stroke-linejoin="bevel"></path>
            <path d="M54.2,48.5 C54.2,58.4 54.2,73.2 54.2,78.1" id="Path" stroke="#000000" stroke-linejoin="bevel"></path>
            <path d="M53.5,139.4 C42.3,139.4 25.4,139.4 19.8,139.4" id="Path" stroke="#000000" stroke-linejoin="bevel"></path>
            <path d="M53.5,139.4 C53.7,139.4 54,139.4 54.2,139.4" id="Path" stroke="#000000" stroke-linejoin="bevel"></path>
            <path d="M54.4,136.5 C54.4,97.8 54.4,39.7 54.4,20.3" id="Path" stroke="#000000" stroke-linejoin="bevel"></path>
            <path d="M17.6,137.2 C17.6,127.8 17.6,113.7 17.6,109.1" id="Path" stroke="#000000" stroke-linejoin="bevel"></path>
            <path d="M19.8,139.4 C19.2,139.4 18.5,139 18.3,138.8 C17.9,138.4 17.7,137.6 17.7,137.3" id="Path" stroke="#000000" stroke-linejoin="bevel"></path>
            <path d="M54.2,17.6 C54.2,17.9 54.2,18.3 54.2,18.4" id="Path" stroke="#000000" stroke-linejoin="bevel"></path>
            <path d="M54.2,19.5 C54.2,29.2 54.2,43.7 54.2,48.5" id="Path" stroke="#000000" stroke-linejoin="bevel"></path>
            <path d="M54.2,18.4 C54.2,18.8 54.2,19.3 54.2,19.5" id="Path" stroke="#000000" stroke-linejoin="bevel"></path>
            <path d="M17.6,47.9 C17.6,38.5 17.6,24.4 17.6,19.8" id="Path" stroke="#000000" stroke-linejoin="bevel"></path>
            <path d="M17.6,19.7 C17.6,19.1 18,18.4 18.2,18.2 C18.6,17.8 19.4,17.6 19.7,17.6" id="Path" stroke="#000000" stroke-linejoin="bevel"></path>
            <path d="M53.5,17.6 C53.7,17.6 54,17.6 54.2,17.6" id="Path" stroke="#000000" stroke-linejoin="bevel"></path>
            <path d="M102.9,78.8 C102.9,88.9 102.9,104 102.9,109" id="Path" stroke="#000000" stroke-linejoin="bevel"></path>
            <path d="M139.4,78.8 C127.2,78.8 109,78.8 102.9,78.8" id="Path" stroke="#000000" stroke-linejoin="bevel"></path>
            <path d="M54.2,78.8 C54.2,88.9 54.2,104 54.2,109" id="Path" stroke="#000000" stroke-linejoin="bevel"></path>
            <path d="M19.8,17.6 C31,17.6 47.9,17.6 53.5,17.6" id="Path" stroke="#000000" stroke-linejoin="bevel"></path>
            <path d="M54.2,139.3 C70.4,139.3 94.8,139.3 102.9,139.3" id="Path" stroke="#000000" stroke-linejoin="bevel"></path>
            <line x1="36" y1="44" x2="36" y2="51.7" id="Path" stroke="#000000"></line>
            <rect id="Rectangle" fill="#0200FF" fill-rule="nonzero" x="77.5" y="29.8" width="2.1" height="4.2"></rect>
            <circle id="Oval" stroke="#000000" cx="121.1" cy="47.8" r="3.8"></circle>
        </g>
        <line x1="36" y1="105.2" x2="36" y2="112.9" id="Path" stroke="#000000"></line>
        <circle id="Oval" stroke="#000000" cx="121.1" cy="109.1" r="3.8"></circle>
        <path d="M26.7543945,58.6879883 C24.1582031,58.6879883 22.5332031,60.5161133 22.5332031,63.4233398 C22.5332031,66.3305664 24.1582031,68.1523438 26.7543945,68.1523438 C29.3505859,68.1523438 30.9755859,66.3305664 30.9755859,63.4233398 C30.9755859,60.5161133 29.3505859,58.6879883 26.7543945,58.6879883 Z M26.7543945,59.7416992 C28.6269531,59.7416992 29.8012695,61.1635742 29.8012695,63.4233398 C29.8012695,65.6767578 28.6269531,67.0986328 26.7543945,67.0986328 C24.8818359,67.0986328 23.7075195,65.6767578 23.7075195,63.4233398 C23.7075195,61.1635742 24.8818359,59.7416992 26.7543945,59.7416992 Z M33.2138142,68 L33.2138142,60.8334961 L33.2709432,60.8334961 L38.2855916,68 L39.3964314,68 L39.3964314,58.840332 L38.2665486,58.840332 L38.2665486,66.0322266 L38.2094197,66.0322266 L33.1947713,58.840332 L32.0839314,58.840332 L32.0839314,68 L33.2138142,68 Z M44.8402262,64.8007812 L44.8402262,63.7724609 L40.6761637,63.7724609 L40.6761637,64.8007812 L44.8402262,64.8007812 Z M47.9290404,68 L47.9290404,60.0527344 L47.9036498,60.0527344 L45.4788451,61.7412109 L45.4788451,60.5922852 L47.9163451,58.840332 L49.0335326,58.840332 L49.0335326,68 L47.9290404,68 Z" id="ON-1" fill="#000000" fill-rule="nonzero"></path>
        <path d="M109.754395,58.6879883 C107.158203,58.6879883 105.533203,60.5161133 105.533203,63.4233398 C105.533203,66.3305664 107.158203,68.1523438 109.754395,68.1523438 C112.350586,68.1523438 113.975586,66.3305664 113.975586,63.4233398 C113.975586,60.5161133 112.350586,58.6879883 109.754395,58.6879883 Z M109.754395,59.7416992 C111.626953,59.7416992 112.80127,61.1635742 112.80127,63.4233398 C112.80127,65.6767578 111.626953,67.0986328 109.754395,67.0986328 C107.881836,67.0986328 106.70752,65.6767578 106.70752,63.4233398 C106.70752,61.1635742 107.881836,59.7416992 109.754395,59.7416992 Z M116.22651,68 L116.22651,64.0327148 L120.282662,64.0327148 L120.282662,63.0170898 L116.22651,63.0170898 L116.22651,59.8686523 L120.644478,59.8686523 L120.644478,58.840332 L115.083931,58.840332 L115.083931,68 L116.22651,68 Z M122.774796,68 L122.774796,64.0327148 L126.830949,64.0327148 L126.830949,63.0170898 L122.774796,63.0170898 L122.774796,59.8686523 L127.192765,59.8686523 L127.192765,58.840332 L121.632218,58.840332 L121.632218,68 L122.774796,68 Z M132.160486,64.8007812 L132.160486,63.7724609 L127.996423,63.7724609 L127.996423,64.8007812 L132.160486,64.8007812 Z M135.2493,68 L135.2493,60.0527344 L135.223909,60.0527344 L132.799105,61.7412109 L132.799105,60.5922852 L135.236605,58.840332 L136.353792,58.840332 L136.353792,68 L135.2493,68 Z" id="OFF-1" fill="#000000" fill-rule="nonzero"></path>
    </g>
</svg>