<?xml version="1.0" encoding="UTF-8"?>
<svg width="158px" height="158px" viewBox="0 0 158 158" version="1.1" xmlns="http://www.w3.org/2000/svg" xmlns:xlink="http://www.w3.org/1999/xlink">
    <!-- Generator: Sketch 59.1 (86144) - https://sketch.com -->
    <title>ZV9001K8-DIM-G4</title>
    <desc>Created with Sketch.</desc>
    <g id="ZV9001K8-DIM-G4" stroke="none" stroke-width="1" fill="none" fill-rule="evenodd">
        <g id="icon">
            <path d="M9.3,0.5 C7,0.5 4.7,1.4 3.1,3.1 C1.4,4.7 0.5,6.9 0.5,9.3" id="Path" stroke="#0A0C06" stroke-linejoin="bevel"></path>
            <path d="M0.5,147.8 C0.5,150.1 1.4,152.4 3.1,154 C4.7,155.6 7,156.6 9.3,156.6" id="Path" stroke="#0A0C06" stroke-linejoin="bevel"></path>
            <path d="M156.6,9.3 C156.6,7 155.7,4.7 154,3.1 C152.4,1.5 150.1,0.5 147.8,0.5" id="Path" stroke="#0A0C06" stroke-linejoin="bevel"></path>
            <line x1="147.8" y1="0.5" x2="9.3" y2="0.5" id="Path" stroke="#0A0C06" stroke-linejoin="bevel"></line>
            <path d="M147.8,156.6 C150.1,156.6 152.4,155.7 154,154 C155.6,152.4 156.6,150.1 156.6,147.8" id="Path" stroke="#0A0C06" stroke-linejoin="bevel"></path>
            <line x1="0.5" y1="9.3" x2="0.5" y2="147.8" id="Path" stroke="#0A0C06" stroke-linejoin="bevel"></line>
            <line x1="9.3" y1="156.6" x2="147.8" y2="156.6" id="Path" stroke="#0A0C06" stroke-linejoin="bevel"></line>
            <line x1="156.6" y1="147.8" x2="156.6" y2="9.3" id="Path" stroke="#0A0C06" stroke-linejoin="bevel"></line>
            <path d="M139.4,48.5 C127.2,48.5 109,48.5 102.9,48.5" id="Path" stroke="#0A0C06" stroke-linejoin="bevel"></path>
            <path d="M139.4,137.3 C139.4,98 139.4,39 139.4,19.7" id="Path" stroke="#0A0C06" stroke-linejoin="bevel"></path>
            <path d="M19.7,139.5 C58.8,139.5 117.9,139.5 137.4,139.5" id="Path" stroke="#0A0C06" stroke-linejoin="bevel"></path>
            <path d="M17.7,78.8 C29.9,78.8 48.1,78.8 54.2,78.8" id="Path" stroke="#0A0C06" stroke-linejoin="bevel"></path>
            <path d="M54.2,108.4 C42,108.4 23.8,108.4 17.7,108.4" id="Path" stroke="#0A0C06" stroke-linejoin="bevel"></path>
            <path d="M137.3,139.4 C137.9,139.4 138.6,139 138.8,138.8 C139.2,138.4 139.4,137.6 139.4,137.3" id="Path" stroke="#0A0C06" stroke-linejoin="bevel"></path>
            <path d="M102.9,138.5 C102.9,138.8 102.9,139.2 102.9,139.3" id="Path" stroke="#0A0C06" stroke-linejoin="bevel"></path>
            <path d="M102.9,17.6 C102.9,61.9 102.9,117.3 102.9,139.4" id="Path" stroke="#0A0C06" stroke-linejoin="bevel"></path>
            <path d="M139.4,19.7 C139.4,19.1 139,18.4 138.8,18.2 C138.4,17.8 137.6,17.6 137.3,17.6" id="Path" stroke="#0A0C06" stroke-linejoin="bevel"></path>
            <path d="M137.3,17.6 C126.1,17.6 109.2,17.6 103.6,17.6" id="Path" stroke="#0A0C06" stroke-linejoin="bevel"></path>
            <path d="M54.2,17.6 C54.2,58.4 54.2,119.3 54.2,139.5" id="Path" stroke="#0A0C06" stroke-linejoin="bevel"></path>
            <path d="M54.2,20.4 C70.4,20.4 94.6,20.4 102.6,20.4" id="Path" stroke="#0A0C06" stroke-linejoin="bevel"></path>
            <path d="M102.6,136.6 C86.5,136.6 62.4,136.6 54.4,136.6" id="Path" stroke="#0A0C06" stroke-linejoin="bevel"></path>
            <path d="M102.9,17.6 C102.9,17.9 102.9,18.3 102.9,18.4" id="Path" stroke="#0A0C06" stroke-linejoin="bevel"></path>
            <path d="M102.9,18.4 C102.9,18.8 102.9,19.3 102.9,19.5" id="Path" stroke="#0A0C06" stroke-linejoin="bevel"></path>
            <path d="M17.7,48.5 C29.9,48.5 48.1,48.5 54.2,48.5" id="Path" stroke="#0A0C06" stroke-linejoin="bevel"></path>
            <path d="M17.6,137.4 C17.6,98 17.6,38.9 17.6,19.6" id="Path" stroke="#0A0C06" stroke-linejoin="bevel"></path>
            <path d="M19.7,139.5 C19.1,139.5 18.4,139.1 18.2,138.9 C17.8,138.5 17.6,137.7 17.6,137.4" id="Path" stroke="#0A0C06" stroke-linejoin="bevel"></path>
            <path d="M17.6,19.7 C17.6,19.1 18,18.4 18.2,18.2 C18.6,17.8 19.4,17.6 19.7,17.6" id="Path" stroke="#0A0C06" stroke-linejoin="bevel"></path>
            <path d="M53.5,17.6 C53.7,17.6 54,17.6 54.2,17.6" id="Path" stroke="#0A0C06" stroke-linejoin="bevel"></path>
            <path d="M139.4,78.8 C127.2,78.8 109,78.8 102.9,78.8" id="Path" stroke="#0A0C06" stroke-linejoin="bevel"></path>
            <path d="M102.9,108.4 C115.1,108.4 133.3,108.4 139.4,108.4" id="Path" stroke="#0A0C06" stroke-linejoin="bevel"></path>
            <path d="M19.7,17.6 C58.8,17.6 117.8,17.6 137.3,17.6" id="Path" stroke="#0A0C06" stroke-linejoin="bevel"></path>
            <rect id="Rectangle" stroke="#000000" stroke-width="0.75" fill="#1D1D1B" fill-rule="nonzero" x="35.7" y="120.4" width="1" height="7.7"></rect>
            <rect id="Rectangle" stroke="#000000" stroke-width="0.75" fill="#1D1D1B" fill-rule="nonzero" x="35.7" y="90.1" width="1" height="7.7"></rect>
            <rect id="Rectangle" stroke="#000000" stroke-width="0.75" fill="#1D1D1B" fill-rule="nonzero" x="35.7" y="59.1" width="1" height="7.7"></rect>
            <rect id="Rectangle" stroke="#000000" stroke-width="0.75" fill="#1D1D1B" fill-rule="nonzero" x="35.7" y="28.9" width="1" height="7.7"></rect>
            <path d="M118.6,126.8 C119.3,127.5 120.2,127.9 121.1,127.9 C122.1,127.9 123,127.5 123.6,126.8 L123.6,126.8 C124.3,126.1 124.7,125.2 124.7,124.3 C124.7,123.3 124.3,122.4 123.6,121.8 L123.6,121.8 C122.9,121.1 122,120.7 121.1,120.7 C120.1,120.7 119.2,121.1 118.6,121.8 L118.6,121.8 C117.9,122.5 117.5,123.4 117.5,124.3 C117.5,125.2 117.9,126.1 118.6,126.8 L118.6,126.8 Z" id="Path" stroke="#000000" stroke-width="0.75"></path>
            <path d="M118.6,96.5 C119.3,97.2 120.2,97.6 121.1,97.6 C122.1,97.6 123,97.2 123.6,96.5 L123.6,96.5 C124.3,95.8 124.7,94.9 124.7,94 C124.7,93 124.3,92.1 123.6,91.5 L123.6,91.5 C122.9,90.8 122,90.4 121.1,90.4 C120.1,90.4 119.2,90.8 118.6,91.5 L118.6,91.5 C117.9,92.2 117.5,93.1 117.5,94 C117.5,94.9 117.9,95.8 118.6,96.5 L118.6,96.5 Z" id="Path" stroke="#000000"></path>
            <path d="M118.6,65.5 C119.3,66.2 120.2,66.6 121.1,66.6 C122.1,66.6 123,66.2 123.6,65.5 L123.6,65.5 C124.3,64.8 124.7,63.9 124.7,63 C124.7,62 124.3,61.1 123.6,60.5 L123.6,60.5 C122.9,59.8 122,59.4 121.1,59.4 C120.1,59.4 119.2,59.8 118.6,60.5 L118.6,60.5 C117.9,61.2 117.5,62.1 117.5,63 C117.5,63.9 117.9,64.8 118.6,65.5 L118.6,65.5 Z" id="Path" stroke="#000000"></path>
            <rect id="Rectangle" fill="#0200FF" fill-rule="nonzero" x="77.5" y="29.7" width="2.1" height="4.2"></rect>
            <circle id="Oval" stroke="#000000" cx="121.1" cy="32.7" r="3.8"></circle>
        </g>
    </g>
</svg>