<?xml version="1.0" encoding="UTF-8"?>
<svg width="500px" height="500px" viewBox="0 0 500 500" version="1.1" xmlns="http://www.w3.org/2000/svg" xmlns:xlink="http://www.w3.org/1999/xlink">
    <!-- Generator: Sketch 59.1 (86144) - https://sketch.com -->
    <title>ZGRC-KEY-037</title>
    <desc>Created with Sketch.</desc>
    <g id="ZGRC-KEY-037" stroke="none" stroke-width="1" fill="none" fill-rule="evenodd">
        <rect id="Rectangle" stroke="#000000" stroke-width="2" x="164" y="1" width="173" height="665"></rect>
        <circle id="Oval" stroke="#000000" stroke-width="2" cx="250.5" cy="60.5" r="22.5"></circle>
        <ellipse id="Oval-Copy" stroke="#000000" stroke-width="2" cx="250.5" cy="132" rx="18.5" ry="19"></ellipse>
        <circle id="Oval-Copy" stroke="#000000" stroke-width="2" cx="250.5" cy="131.5" r="5.5"></circle>
        <rect id="Rectangle" fill="#000000" x="249" y="54" width="3" height="13"></rect>
        <g id="ZGRC-KEY-037-/-Group" transform="translate(186.000000, 180.000000)">
            <rect id="Rectangle" stroke="#000000" stroke-width="2" x="0" y="0" width="129" height="41" rx="15"></rect>
            <circle id="Oval-Copy-2" stroke="#000000" stroke-width="2" cx="26.5" cy="20.5" r="5.5"></circle>
            <rect id="Rectangle" fill="#000000" x="101" y="14" width="3" height="14"></rect>
            <polygon id="1" fill="#000000" fill-rule="nonzero" points="63.1426202 26 63.1426202 15.0810811 63.0016584 15.0810811 60 17.4144144 60 15.4324324 63.1509121 13 65 13 65 26"></polygon>
        </g>
        <g id="ZGRC-KEY-037-/-Group-Copy" transform="translate(186.000000, 237.000000)">
            <rect id="Rectangle" stroke="#000000" stroke-width="2" x="0" y="0" width="129" height="40" rx="15"></rect>
            <circle id="Oval-Copy-2" stroke="#000000" stroke-width="2" cx="26.5" cy="20.5" r="5.5"></circle>
            <rect id="Rectangle" fill="#000000" x="101" y="14" width="3" height="13"></rect>
            <path d="M59,16.9844384 C59,14.6535859 60.6666667,13 63.0325203,13 C65.2357724,13 66.8211382,14.5216509 66.8211382,16.6062246 C66.8211382,18.0751015 66.2276423,19.1217862 64.1707317,21.3558863 L61.5853659,24.1705007 L61.5853659,24.3200271 L67,24.3200271 L67,26 L59.097561,26 L59.097561,24.6630582 L63.1138211,20.1420839 C64.601626,18.462111 64.9918699,17.8288227 64.9918699,16.7997294 C64.9918699,15.5683356 64.2195122,14.6271989 62.9186992,14.6271989 C61.5934959,14.6271989 60.7235772,15.5771313 60.7235772,16.9844384 L59,16.9844384 Z" id="2" fill="#000000" fill-rule="nonzero"></path>
        </g>
        <g id="ZGRC-KEY-037-/-Group-Copy-2" transform="translate(186.000000, 293.000000)">
            <rect id="Rectangle" stroke="#000000" stroke-width="2" x="0" y="0" width="129" height="41" rx="15"></rect>
            <circle id="Oval-Copy-2" stroke="#000000" stroke-width="2" cx="26.5" cy="20.5" r="5.5"></circle>
            <rect id="Rectangle" fill="#000000" x="101" y="14" width="3" height="14"></rect>
            <path d="M61.9090047,20.0885658 L61.9090047,18.5763384 L63.3933649,18.5763384 C64.7241706,18.5763384 65.6454976,17.7343027 65.6454976,16.5399868 C65.6454976,15.4487773 64.8265403,14.580965 63.4445498,14.580965 C62.0454976,14.580965 61.149763,15.311302 61.0388626,16.6087244 L59.2303318,16.6087244 C59.3582938,14.5036352 60.9620853,13 63.5554502,13 C66.0976303,13 67.5393365,14.538004 67.5308057,16.2994052 C67.5222749,17.7944481 66.5924171,18.7825512 65.3042654,19.1434237 L65.3042654,19.2894911 C66.9421801,19.5386649 68,20.6384666 68,22.3397224 C68,24.4534038 66.0635071,26 63.4957346,26 C60.8938389,26 59.1023697,24.5651024 59,22.3826834 L60.8341232,22.3826834 C60.9450237,23.6027759 61.9772512,24.3846662 63.4701422,24.3846662 C64.9800948,24.3846662 66.0379147,23.5254461 66.0379147,22.236616 C66.0379147,20.9134171 65.0483412,20.0885658 63.4445498,20.0885658 L61.9090047,20.0885658 Z" id="3" fill="#000000" fill-rule="nonzero"></path>
        </g>
        <g id="ZGRC-KEY-037-/-Group-Copy-3" transform="translate(186.000000, 350.000000)">
            <rect id="Rectangle" stroke="#000000" stroke-width="2" x="0" y="0" width="129" height="40" rx="15"></rect>
            <circle id="Oval-Copy-2" stroke="#000000" stroke-width="2" cx="26.5" cy="20.5" r="5.5"></circle>
            <rect id="Rectangle" fill="#000000" x="101" y="14" width="3" height="13"></rect>
            <path d="M64.2913315,25 L66.2216265,25 L66.2216265,22.6133056 L68,22.6133056 L68,21.033264 L66.2216265,21.033264 L66.2216265,13 L63.3708668,13 C61.5924933,15.4864865 59.6979446,18.3222453 58,21.033264 L58,22.6133056 L64.2913315,22.6133056 L64.2913315,25 Z M59.9213584,20.950104 C61.2439678,18.8461538 62.8168007,16.5093555 64.201966,14.5717256 L64.3181412,14.5717256 L64.3181412,21.0665281 L59.9213584,21.0665281 L59.9213584,20.950104 Z" id="4" fill="#000000" fill-rule="nonzero"></path>
        </g>
        <rect id="Rectangle" stroke="#000000" stroke-width="2" x="186" y="406" width="129" height="40" rx="15"></rect>
        <path d="M202,429.391276 C202.130081,431.590879 203.878049,433 206.479675,433 C209.260163,433 211,431.522141 211,429.176471 C211,427.397885 210.089064,426.384736 207.895102,425.766471 L206.308943,425.352941 C204.780488,424.9577 204.162602,424.442168 204.162602,423.539987 C204.162602,422.38004 205.121951,421.632518 206.560976,421.632518 C207.926829,421.632518 208.869919,422.354263 209.04065,423.531395 L210.813008,423.531395 C210.707317,421.460674 208.96748,420 206.585366,420 C204.02439,420 202.317073,421.460674 202.317073,423.643093 C202.317073,425.447455 203.284553,426.512888 205.406504,427.054197 L206.918699,427.440846 C208.471545,427.836087 209.154472,428.437541 209.154472,429.40846 C209.154472,430.542631 208.081301,431.35889 206.617886,431.35889 C205.04878,431.35889 203.95935,430.594184 203.804878,429.391276 L202,429.391276 Z M216.14262,433 L216.14262,422.920998 L216.001658,422.920998 L213,425.074844 L213,423.245322 L216.150912,421 L218,421 L218,433 L216.14262,433 Z" id="S1" fill="#000000" fill-rule="nonzero"></path>
        <path d="M278,429.391276 C278.130081,431.590879 279.878049,433 282.479675,433 C285.260163,433 287,431.522141 287,429.176471 C287,427.397885 286.089064,426.384736 283.895102,425.766471 L282.308943,425.352941 C280.780488,424.9577 280.162602,424.442168 280.162602,423.539987 C280.162602,422.38004 281.121951,421.632518 282.560976,421.632518 C283.926829,421.632518 284.869919,422.354263 285.04065,423.531395 L286.813008,423.531395 C286.707317,421.460674 284.96748,420 282.585366,420 C280.02439,420 278.317073,421.460674 278.317073,423.643093 C278.317073,425.447455 279.284553,426.512888 281.406504,427.054197 L282.918699,427.440846 C284.471545,427.836087 285.154472,428.437541 285.154472,429.40846 C285.154472,430.542631 284.081301,431.35889 282.617886,431.35889 C281.04878,431.35889 279.95935,430.594184 279.804878,429.391276 L278,429.391276 Z M289,423.984438 C289,421.653586 290.666667,420 293.03252,420 C295.235772,420 296.821138,421.521651 296.821138,423.606225 C296.821138,425.075101 296.227642,426.121786 294.170732,428.355886 L291.585366,431.170501 L291.585366,431.320027 L297,431.320027 L297,433 L289.097561,433 L289.097561,431.663058 L293.113821,427.142084 C294.601626,425.462111 294.99187,424.828823 294.99187,423.799729 C294.99187,422.568336 294.219512,421.627199 292.918699,421.627199 C291.593496,421.627199 290.723577,422.577131 290.723577,423.984438 L289,423.984438 Z" id="S2" fill="#000000" fill-rule="nonzero"></path>
    </g>
</svg>