<?xml version="1.0" encoding="UTF-8"?>
<svg width="500px" height="500px" viewBox="0 0 500 500" version="1.1" xmlns="http://www.w3.org/2000/svg" xmlns:xlink="http://www.w3.org/1999/xlink">
    <!-- Generator: Sketch 59.1 (86144) - https://sketch.com -->
    <title>ZGRC-KEY-037_learnmode</title>
    <desc>Created with Sketch.</desc>
    <g id="ZGRC-KEY-037_learnmode" stroke="none" stroke-width="1" fill="none" fill-rule="evenodd">
        <rect id="Rectangle" stroke="#000000" stroke-width="2" x="164" y="3" width="173" height="665"></rect>
        <circle id="Oval" stroke="#000000" stroke-width="2" cx="250.5" cy="62.5" r="22.5"></circle>
        <ellipse id="Oval-Copy" stroke="#000000" stroke-width="2" cx="250.5" cy="134" rx="18.5" ry="19"></ellipse>
        <circle id="Oval-Copy" stroke="#000000" stroke-width="2" cx="250.5" cy="133.5" r="5.5"></circle>
        <rect id="Rectangle" fill="#000000" x="249" y="56" width="3" height="13"></rect>
        <g id="ZGRC-KEY-037-/-Group" transform="translate(186.000000, 182.000000)">
            <rect id="Rectangle" stroke="#000000" stroke-width="2" x="0" y="0" width="129" height="41" rx="15"></rect>
            <circle id="Oval-Copy-2" stroke="#000000" stroke-width="2" cx="26.5" cy="20.5" r="5.5"></circle>
            <rect id="Rectangle" fill="#000000" x="101" y="14" width="3" height="14"></rect>
            <polygon id="1" fill="#000000" fill-rule="nonzero" points="63.1426202 26 63.1426202 15.0810811 63.0016584 15.0810811 60 17.4144144 60 15.4324324 63.1509121 13 65 13 65 26"></polygon>
        </g>
        <g id="ZGRC-KEY-037-/-Group-Copy" transform="translate(186.000000, 239.000000)">
            <rect id="Rectangle" stroke="#000000" stroke-width="2" x="0" y="0" width="129" height="40" rx="15"></rect>
            <circle id="Oval-Copy-2" stroke="#000000" stroke-width="2" cx="26.5" cy="20.5" r="5.5"></circle>
            <rect id="Rectangle" fill="#000000" x="101" y="14" width="3" height="13"></rect>
            <path d="M59,16.9844384 C59,14.6535859 60.6666667,13 63.0325203,13 C65.2357724,13 66.8211382,14.5216509 66.8211382,16.6062246 C66.8211382,18.0751015 66.2276423,19.1217862 64.1707317,21.3558863 L61.5853659,24.1705007 L61.5853659,24.3200271 L67,24.3200271 L67,26 L59.097561,26 L59.097561,24.6630582 L63.1138211,20.1420839 C64.601626,18.462111 64.9918699,17.8288227 64.9918699,16.7997294 C64.9918699,15.5683356 64.2195122,14.6271989 62.9186992,14.6271989 C61.5934959,14.6271989 60.7235772,15.5771313 60.7235772,16.9844384 L59,16.9844384 Z" id="2" fill="#000000" fill-rule="nonzero"></path>
        </g>
        <g id="ZGRC-KEY-037-/-Group-Copy-2" transform="translate(186.000000, 295.000000)">
            <rect id="Rectangle" stroke="#000000" stroke-width="2" x="0" y="0" width="129" height="41" rx="15"></rect>
            <circle id="Oval-Copy-2" stroke="#000000" stroke-width="2" cx="26.5" cy="20.5" r="5.5"></circle>
            <rect id="Rectangle" fill="#000000" x="101" y="14" width="3" height="14"></rect>
            <path d="M61.9090047,20.0885658 L61.9090047,18.5763384 L63.3933649,18.5763384 C64.7241706,18.5763384 65.6454976,17.7343027 65.6454976,16.5399868 C65.6454976,15.4487773 64.8265403,14.580965 63.4445498,14.580965 C62.0454976,14.580965 61.149763,15.311302 61.0388626,16.6087244 L59.2303318,16.6087244 C59.3582938,14.5036352 60.9620853,13 63.5554502,13 C66.0976303,13 67.5393365,14.538004 67.5308057,16.2994052 C67.5222749,17.7944481 66.5924171,18.7825512 65.3042654,19.1434237 L65.3042654,19.2894911 C66.9421801,19.5386649 68,20.6384666 68,22.3397224 C68,24.4534038 66.0635071,26 63.4957346,26 C60.8938389,26 59.1023697,24.5651024 59,22.3826834 L60.8341232,22.3826834 C60.9450237,23.6027759 61.9772512,24.3846662 63.4701422,24.3846662 C64.9800948,24.3846662 66.0379147,23.5254461 66.0379147,22.236616 C66.0379147,20.9134171 65.0483412,20.0885658 63.4445498,20.0885658 L61.9090047,20.0885658 Z" id="3" fill="#000000" fill-rule="nonzero"></path>
        </g>
        <g id="ZGRC-KEY-037-/-Group-Copy-3" transform="translate(186.000000, 352.000000)">
            <rect id="Rectangle" stroke="#000000" stroke-width="2" x="0" y="0" width="129" height="40" rx="15"></rect>
            <circle id="Oval-Copy-2" stroke="#000000" stroke-width="2" cx="26.5" cy="20.5" r="5.5"></circle>
            <rect id="Rectangle" fill="#000000" x="101" y="14" width="3" height="13"></rect>
            <path d="M64.2913315,25 L66.2216265,25 L66.2216265,22.6133056 L68,22.6133056 L68,21.033264 L66.2216265,21.033264 L66.2216265,13 L63.3708668,13 C61.5924933,15.4864865 59.6979446,18.3222453 58,21.033264 L58,22.6133056 L64.2913315,22.6133056 L64.2913315,25 Z M59.9213584,20.950104 C61.2439678,18.8461538 62.8168007,16.5093555 64.201966,14.5717256 L64.3181412,14.5717256 L64.3181412,21.0665281 L59.9213584,21.0665281 L59.9213584,20.950104 Z" id="4" fill="#000000" fill-rule="nonzero"></path>
        </g>
        <g id="ZGRC-KEY-037-/-Group-Copy-4" transform="translate(186.000000, 408.000000)">
            <rect id="Rectangle" stroke="#000000" stroke-width="2" x="0" y="0" width="129" height="40" rx="15"></rect>
            <path d="M16,23.3912756 C16.1300813,25.590879 17.8780488,27 20.4796748,27 C23.2601626,27 25,25.5221414 25,23.1764706 C25,21.397885 24.0890639,20.3847362 21.8951017,19.7664713 L20.3089431,19.3529412 C18.7804878,18.9576999 18.1626016,18.4421679 18.1626016,17.5399868 C18.1626016,16.3800397 19.1219512,15.6325182 20.5609756,15.6325182 C21.9268293,15.6325182 22.8699187,16.3542631 23.0406504,17.5313946 L24.8130081,17.5313946 C24.7073171,15.4606742 22.9674797,14 20.5853659,14 C18.0243902,14 16.3170732,15.4606742 16.3170732,17.6430932 C16.3170732,19.4474554 17.2845528,20.5128883 19.4065041,21.054197 L20.9186992,21.440846 C22.4715447,21.8360872 23.1544715,22.4375413 23.1544715,23.40846 C23.1544715,24.5426305 22.0813008,25.3588896 20.6178862,25.3588896 C19.0487805,25.3588896 17.9593496,24.5941837 17.804878,23.3912756 L16,23.3912756 Z M30.1426202,27 L30.1426202,16.9209979 L30.0016584,16.9209979 L27,19.0748441 L27,17.2453222 L30.1509121,15 L32,15 L32,27 L30.1426202,27 Z" id="S1" fill="#000000" fill-rule="nonzero"></path>
            <path d="M92,23.3912756 C92.1300813,25.590879 93.8780488,27 96.4796748,27 C99.2601626,27 101,25.5221414 101,23.1764706 C101,21.397885 100.089064,20.3847362 97.8951017,19.7664713 L96.3089431,19.3529412 C94.7804878,18.9576999 94.1626016,18.4421679 94.1626016,17.5399868 C94.1626016,16.3800397 95.1219512,15.6325182 96.5609756,15.6325182 C97.9268293,15.6325182 98.8699187,16.3542631 99.0406504,17.5313946 L100.813008,17.5313946 C100.707317,15.4606742 98.9674797,14 96.5853659,14 C94.0243902,14 92.3170732,15.4606742 92.3170732,17.6430932 C92.3170732,19.4474554 93.2845528,20.5128883 95.4065041,21.054197 L96.9186992,21.440846 C98.4715447,21.8360872 99.1544715,22.4375413 99.1544715,23.40846 C99.1544715,24.5426305 98.0813008,25.3588896 96.6178862,25.3588896 C95.0487805,25.3588896 93.9593496,24.5941837 93.804878,23.3912756 L92,23.3912756 Z M103,17.9844384 C103,15.6535859 104.666667,14 107.03252,14 C109.235772,14 110.821138,15.5216509 110.821138,17.6062246 C110.821138,19.0751015 110.227642,20.1217862 108.170732,22.3558863 L105.585366,25.1705007 L105.585366,25.3200271 L111,25.3200271 L111,27 L103.097561,27 L103.097561,25.6630582 L107.113821,21.1420839 C108.601626,19.462111 108.99187,18.8288227 108.99187,17.7997294 C108.99187,16.5683356 108.219512,15.6271989 106.918699,15.6271989 C105.593496,15.6271989 104.723577,16.5771313 104.723577,17.9844384 L103,17.9844384 Z" id="S2" fill="#000000" fill-rule="nonzero"></path>
        </g>
        <path d="M234.95947,103 L237,103 L232.533125,91 L230.466875,91 L226,103 L227.971941,103 L229.112237,99.7567568 L233.827747,99.7567568 L234.95947,103 Z M230.926606,93 L231.082569,93 L233,98 L229,98 L230.926606,93 Z M239,103 L241,103 L241,90 L239,90 L239,103 Z M243,103 L245,103 L245,90 L243,90 L243,103 Z M257.004454,90 C253.316258,90 251,92.5003305 251,96.4957039 C251,100.482485 253.262806,103 257.004454,103 C260.719376,103 263,100.473893 263,96.4957039 C263,92.5089227 260.701559,90 257.004454,90 Z M257.004499,92 C259.461192,92 261,93.740376 261,96.4959714 C261,99.2273948 259.470191,101 257.004499,101 C254.502812,101 253,99.2273948 253,96.4959714 C253,93.740376 254.547807,92 257.004499,92 Z M266.852167,103 L265,103 L265,91 L266.716228,91 L273.011895,99.7318087 L273.147833,99.7318087 L273.147833,91 L275,91 L275,103 L273.283772,103 L266.988105,94.2848233 L266.852167,94.2848233 L266.852167,103 Z" id="AllON" fill="#000000" fill-rule="nonzero"></path>
        <path d="M230.95947,170 L233,170 L228.533125,158 L226.466875,158 L222,170 L223.971941,170 L225.112237,166.756757 L229.827747,166.756757 L230.95947,170 Z M227.926606,160 L228.082569,160 L230,165 L226,165 L227.926606,160 Z M235,170 L237,170 L237,157 L235,157 L235,170 Z M239,170 L241,170 L241,157 L239,157 L239,170 Z M253.004454,157 C249.316258,157 247,159.50033 247,163.495704 C247,167.482485 249.262806,170 253.004454,170 C256.719376,170 259,167.473893 259,163.495704 C259,159.508923 256.701559,157 253.004454,157 Z M253.004499,159 C255.461192,159 257,160.740376 257,163.495971 C257,166.227395 255.470191,168 253.004499,168 C250.502812,168 249,166.227395 249,163.495971 C249,160.740376 250.547807,159 253.004499,159 Z M262.988901,170 L262.988901,164.977131 L268.493896,164.977131 L268.493896,163.405405 L262.988901,163.405405 L262.988901,159.60499 L269,159.60499 L269,158 L261,158 L261,170 L262.988901,170 Z M272.988901,170 L271,170 L271,158 L279,158 L279,159.60499 L272.988901,159.60499 L272.988901,163.405405 L278.493896,163.405405 L278.493896,164.977131 L272.988901,164.977131 L272.988901,170 Z" id="AllOFF" fill="#000000" fill-rule="nonzero"></path>
    </g>
</svg>