<?xml version="1.0" encoding="UTF-8"?>
<svg width="416px" height="416px" viewBox="0 0 416 416" version="1.1" xmlns="http://www.w3.org/2000/svg" xmlns:xlink="http://www.w3.org/1999/xlink">
    <!-- Generator: Sketch 59.1 (86144) - https://sketch.com -->
    <title>icon</title>
    <desc>Created with Sketch.</desc>
    <g id="icon" stroke="none" stroke-width="1" fill="none" fill-rule="evenodd">
        <path d="M221.153374,253 C221.447101,253 221.702388,253.021364 221.93033,253.062973 L236.873078,253.063831 C239.993394,253.063831 241.124896,253.388721 242.265636,253.998796 C243.406377,254.60887 244.301637,255.50413 244.911712,256.644871 C245.521787,257.785612 245.846676,258.917114 245.846676,262.037429 L245.846676,401.090233 C245.846676,404.210549 245.521787,405.34205 244.911712,406.482791 C244.301637,407.623532 243.406377,408.518792 242.265636,409.128867 C241.124896,409.738942 239.993394,410.063831 236.873078,410.063831 L178.820275,410.063831 C175.699959,410.063831 174.568457,409.738942 173.427716,409.128867 C172.286976,408.518792 171.391716,407.623532 170.781641,406.482791 C170.171566,405.34205 169.846676,404.210549 169.846676,401.090233 L169.846676,262.037429 C169.846676,258.917114 170.171566,257.785612 170.781641,256.644871 C171.391716,255.50413 172.286976,254.60887 173.427716,253.998796 C174.568457,253.388721 175.699959,253.063831 178.820275,253.063831 L194.06967,253.062973 C194.297612,253.021364 194.552899,253 194.846626,253 L221.153374,253 Z M192,256 L179.409713,256 C177.180916,256 176.372701,256.232064 175.557886,256.667832 C174.743071,257.103599 174.103599,257.743071 173.667832,258.557886 C173.251872,259.335664 173.021518,260.107428 173.001436,262.114457 L173,262.409713 L173,400.590287 C173,402.819084 173.232064,403.627299 173.667832,404.442114 C174.103599,405.256929 174.743071,405.896401 175.557886,406.332168 C176.335664,406.748128 177.107428,406.978482 179.114457,406.998564 L179.409713,407 L236.590287,407 C238.819084,407 239.627299,406.767936 240.442114,406.332168 C241.256929,405.896401 241.896401,405.256929 242.332168,404.442114 C242.748128,403.664336 242.978482,402.892572 242.998564,400.885543 L243,400.590287 L243,262.409713 C243,260.180916 242.767936,259.372701 242.332168,258.557886 C241.896401,257.743071 241.256929,257.103599 240.442114,256.667832 C239.627299,256.232064 238.819084,256 236.590287,256 L224,256 L224,256.153374 C224,256.837896 223.883968,257.31365 223.666084,257.721057 C223.4482,258.128465 223.128465,258.4482 222.721057,258.666084 C222.31365,258.883968 221.837896,259 221.153374,259 L194.846626,259 C194.162104,259 193.68635,258.883968 193.278943,258.666084 C192.871535,258.4482 192.5518,258.128465 192.333916,257.721057 C192.116032,257.31365 192,256.837896 192,256.153374 L192,256 Z M221.5,405 C221.776142,405 222,405.223858 222,405.5 C222,405.776142 221.776142,406 221.5,406 L194.5,406 C194.223858,406 194,405.776142 194,405.5 C194,405.223858 194.223858,405 194.5,405 L221.5,405 Z M218.280378,9.31741986 L411.224265,199.50683 C417.124091,205.32243 417.19237,214.81966 411.37677,220.719486 C411.326301,220.770685 411.275465,220.821522 411.224265,220.871991 L404.299719,227.697681 C398.459788,233.454241 389.0795,233.454241 383.239569,227.697681 L374.779,219.358 L374.779972,381.063831 C374.779972,389.348102 368.064243,396.063831 359.779972,396.063831 L257.846,396.063 L257.846676,255.063831 C257.846676,246.884424 251.29989,240.234101 243.160504,240.067049 L242.846676,240.063831 L172.846676,240.063831 C164.667269,240.063831 158.016946,246.610618 157.849894,254.750003 L157.846676,255.063831 L157.846,396.063 L57.69025,396.063831 C49.4059787,396.063831 42.69025,389.348102 42.69025,381.063831 L42.69,217.879 L32.4546235,227.969371 C26.6146926,233.72593 17.2344043,233.72593 11.3944733,227.969371 L4.46992733,221.14368 C-1.42989876,215.32808 -1.49817759,205.830851 4.3174223,199.931025 C4.36789119,199.879825 4.41872751,199.828988 4.46992733,199.77852 L188.293916,18.5771246 C188.824624,17.7727212 189.441014,17.0079477 190.143177,16.2956157 L190.295682,16.1431107 L197.220228,9.31741986 C203.060159,3.56086005 212.440447,3.56086005 218.280378,9.31741986 Z M211,255 L205,255 C204.447715,255 204,255.447715 204,256 C204,256.512836 204.38604,256.935507 204.883379,256.993272 L205,257 L211,257 C211.552285,257 212,256.552285 212,256 C212,255.447715 211.552285,255 211,255 Z M215,255 C214.447715,255 214,255.447715 214,256 C214,256.552285 214.447715,257 215,257 C215.552285,257 216,256.552285 216,256 C216,255.447715 215.552285,255 215,255 Z M207.70577,181.174942 C202.530456,181.174942 197.714449,182.713324 193.690095,185.357742 L193.276624,185.635231 L207.70577,200.063831 L222.134984,185.635277 C218.028857,182.821266 213.059573,181.174942 207.70577,181.174942 Z M207.661333,150.108277 C193.958021,150.108277 181.390771,154.97234 171.591925,163.068127 L171.112254,163.468878 L178.954126,171.311782 C186.788904,164.945843 196.779558,161.130497 207.661333,161.130497 C218.364075,161.130497 228.204776,164.821331 235.980087,170.99965 L236.417985,171.352014 L244.259398,163.51031 C234.385862,155.149778 221.612351,150.108277 207.661333,150.108277 Z M207.70577,120.063831 C185.719112,120.063831 165.644706,128.251158 150.365011,141.743355 L149.845974,142.205367 L157.716548,150.074901 C171.037289,138.312556 188.53799,131.174942 207.70577,131.174942 C226.630921,131.174942 243.930929,138.133 257.187137,149.630458 L257.694992,150.074901 L265.565109,142.204957 C250.222421,128.438125 229.942056,120.063831 207.70577,120.063831 Z" id="Combined-Shape" fill="#06A1FF"></path>
    </g>
</svg>