<?xml version="1.0" encoding="UTF-8"?>
<svg width="500px" height="500px" viewBox="0 0 500 500" version="1.1" xmlns="http://www.w3.org/2000/svg" xmlns:xlink="http://www.w3.org/1999/xlink">
    <!-- Generator: Sketch 59.1 (86144) - https://sketch.com -->
    <title>ZG_Switch</title>
    <desc>Created with Sketch.</desc>
    <g id="ZG_Switch" stroke="none" stroke-width="1" fill="none" fill-rule="evenodd">
        <g id="Group-3" transform="translate(5.000000, 4.000000)">
            <g id="Group-2" transform="translate(11.948819, 0.000000)">
                <g id="icon" transform="translate(0.750000, 0.875000)">
                    <rect id="Rectangle" x="73.3125" y="405.3125" width="270.3125" height="85"></rect>
                    <line x1="21.125" y1="312.5" x2="23.625" y2="315.625" id="Path" stroke="#0A0C06" stroke-width="0.216" stroke-linejoin="bevel"></line>
                    <line x1="461.4375" y1="135.9375" x2="461.4375" y2="190.3125" id="Path" stroke="#0A0C06" stroke-width="0.216" stroke-linejoin="bevel"></line>
                    <line x1="23.625" y1="315.625" x2="23.625" y2="345.625" id="Path" stroke="#0A0C06" stroke-width="0.216" stroke-linejoin="bevel"></line>
                    <path d="M461.4375,135.9375 C461.4375,126.5625 457.6875,117.5 451.125,110.625" id="Path" stroke="#0A0C06" stroke-width="0.216" stroke-linejoin="bevel"></path>
                    <line x1="23.625" y1="218.4375" x2="23.625" y2="309.375" id="Path" stroke="#0A0C06" stroke-width="0.216" stroke-linejoin="bevel"></line>
                    <line x1="23.625" y1="182.8125" x2="23.625" y2="211.875" id="Path" stroke="#0A0C06" stroke-width="0.216" stroke-linejoin="bevel"></line>
                    <line x1="4.25" y1="182.8125" x2="23.625" y2="182.8125" id="Path" stroke="#0A0C06" stroke-width="0.216" stroke-linejoin="bevel"></line>
                    <line x1="4.25" y1="211.875" x2="4.25" y2="182.8125" id="Path" stroke="#0A0C06" stroke-width="0.216" stroke-linejoin="bevel"></line>
                    <line x1="7.0625" y1="215.3125" x2="4.25" y2="211.875" id="Path" stroke="#0A0C06" stroke-width="0.216" stroke-linejoin="bevel"></line>
                    <line x1="4.25" y1="218.4375" x2="7.0625" y2="215.3125" id="Path" stroke="#0A0C06" stroke-width="0.216" stroke-linejoin="bevel"></line>
                    <line x1="4.25" y1="309.375" x2="4.25" y2="218.4375" id="Path" stroke="#0A0C06" stroke-width="0.216" stroke-linejoin="bevel"></line>
                    <line x1="7.0625" y1="312.5" x2="4.25" y2="309.375" id="Path" stroke="#0A0C06" stroke-width="0.216" stroke-linejoin="bevel"></line>
                    <line x1="4.25" y1="315.625" x2="7.0625" y2="312.5" id="Path" stroke="#0A0C06" stroke-width="0.216" stroke-linejoin="bevel"></line>
                    <path d="M183.625,214.375 C183.625,223.4375 176.4375,230.625 167.375,230.625 C158.3125,230.625 151.125,223.4375 151.125,214.375 C151.125,208.4375 154.25,203.125 159.25,200.3125 C164.25,197.5 170.5,197.5 175.5,200.3125 C180.5,203.4375 183.625,208.75 183.625,214.375" id="Path" fill="#1D1D1B" fill-rule="nonzero"></path>
                    <line x1="92.375" y1="25.3125" x2="149.25" y2="84.0625" id="Path" stroke="#0A0C06" stroke-linejoin="bevel"></line>
                    <line x1="349.25" y1="397.5" x2="349.25" y2="488.125" id="Path" stroke="#0A0C06" stroke-linejoin="bevel"></line>
                    <line x1="64.875" y1="480.125" x2="64.875" y2="397.5" id="Path" stroke="#0A0C06" stroke-linejoin="bevel"></line>
                    <line x1="61.75" y1="168.75" x2="6.4375" y2="111.25" id="Path" stroke="#0A0C06" stroke-linejoin="bevel"></line>
                    <line x1="64.875" y1="397.5" x2="349.25" y2="397.5" id="Path" stroke="#0A0C06" stroke-linejoin="bevel"></line>
                    <line x1="149.25" y1="84.0625" x2="61.75" y2="168.75" id="Path" stroke="#0A0C06" stroke-linejoin="bevel"></line>
                    <line x1="23.625" y1="211.875" x2="21.125" y2="215.3125" id="Path" stroke="#0A0C06" stroke-width="0.216" stroke-linejoin="bevel"></line>
                    <line x1="6.4375" y1="111.25" x2="2.6875" y2="107.1875" id="Path" stroke="#0A0C06" stroke-linejoin="bevel"></line>
                    <line x1="85.1875" y1="19.6875" x2="88.625" y2="21.25" id="Path" stroke="#0A0C06" stroke-width="0.216" stroke-linejoin="bevel"></line>
                    <line x1="2.6875" y1="107.1875" x2="1.125" y2="103.75" id="Path" stroke="#0A0C06" stroke-linejoin="bevel"></line>
                    <path d="M442.0625,138.125 C442.0625,132.5 439.875,126.875 435.8125,122.8125" id="Path" stroke="#0A0C06" stroke-width="0.216" stroke-linejoin="bevel"></path>
                    <line x1="4.25" y1="351.25" x2="4.25" y2="315.625" id="Path" stroke="#0A0C06" stroke-width="0.216" stroke-linejoin="bevel"></line>
                    <line x1="417.375" y1="76.875" x2="451.125" y2="110.625" id="Path" stroke="#0A0C06" stroke-width="0.216" stroke-linejoin="bevel"></line>
                    <line x1="412.6875" y1="72.1875" x2="413" y2="76.5625" id="Path" stroke="#0A0C06" stroke-width="0.216" stroke-linejoin="bevel"></line>
                    <line x1="308.625" y1="33.125" x2="312.375" y2="30.3125" id="Path" stroke="#0A0C06" stroke-width="0.216" stroke-linejoin="bevel"></line>
                    <path d="M242.6875,30.3125 C239.25,30.3125 236.125,32.1875 234.25,35.3125 C232.375,38.4375 232.375,42.1875 234.25,45 C236.125,48.125 239.25,50 242.6875,50" id="Path" stroke="#0A0C06" stroke-width="0.216" stroke-linejoin="bevel"></path>
                    <line x1="308.625" y1="47.1875" x2="304.875" y2="49.6875" id="Path" stroke="#0A0C06" stroke-width="0.216" stroke-linejoin="bevel"></line>
                    <line x1="398.9375" y1="85.9375" x2="368.9375" y2="56.25" id="Path" stroke="#0A0C06" stroke-width="0.216" stroke-linejoin="bevel"></line>
                    <line x1="23.625" y1="309.375" x2="21.125" y2="312.5" id="Path" stroke="#0A0C06" stroke-width="0.216" stroke-linejoin="bevel"></line>
                    <line x1="403.625" y1="90.625" x2="403" y2="86.5625" id="Path" stroke="#0A0C06" stroke-width="0.216" stroke-linejoin="bevel"></line>
                    <path d="M4.25,351.25 C4.25,360.625 8,369.6875 14.5625,376.5625 C21.125,383.125 30.1875,386.875 39.875,386.875" id="Path" stroke="#0A0C06" stroke-width="0.216" stroke-linejoin="bevel"></path>
                    <line x1="413" y1="76.5625" x2="417.375" y2="76.875" id="Path" stroke="#0A0C06" stroke-width="0.216" stroke-linejoin="bevel"></line>
                    <line x1="381.125" y1="40.625" x2="412.6875" y2="72.1875" id="Path" stroke="#0A0C06" stroke-width="0.216" stroke-linejoin="bevel"></line>
                    <line x1="304.875" y1="30.3125" x2="308.625" y2="33.125" id="Path" stroke="#0A0C06" stroke-width="0.216" stroke-linejoin="bevel"></line>
                    <line x1="312.375" y1="49.6875" x2="308.625" y2="47.1875" id="Path" stroke="#0A0C06" stroke-width="0.216" stroke-linejoin="bevel"></line>
                    <line x1="403" y1="86.5625" x2="398.9375" y2="85.9375" id="Path" stroke="#0A0C06" stroke-width="0.216" stroke-linejoin="bevel"></line>
                    <path d="M368.9375,56.25 C364.875,52.1875 359.25,50 353.625,50" id="Path" stroke="#0A0C06" stroke-width="0.216" stroke-linejoin="bevel"></path>
                    <line x1="435.8125" y1="122.8125" x2="403.625" y2="90.625" id="Path" stroke="#0A0C06" stroke-width="0.216" stroke-linejoin="bevel"></line>
                    <path d="M381.125,40.625 C374.5625,34.0625 365.5,30.3125 355.8125,30.3125" id="Path" stroke="#0A0C06" stroke-width="0.216" stroke-linejoin="bevel"></path>
                    <line x1="312.375" y1="30.3125" x2="355.8125" y2="30.3125" id="Path" stroke="#0A0C06" stroke-width="0.216" stroke-linejoin="bevel"></line>
                    <line x1="242.6875" y1="30.3125" x2="304.875" y2="30.3125" id="Path" stroke="#0A0C06" stroke-width="0.216" stroke-linejoin="bevel"></line>
                    <line x1="304.875" y1="49.6875" x2="242.6875" y2="49.6875" id="Path" stroke="#0A0C06" stroke-width="0.216" stroke-linejoin="bevel"></line>
                    <line x1="353.625" y1="49.6875" x2="312.375" y2="49.6875" id="Path" stroke="#0A0C06" stroke-width="0.216" stroke-linejoin="bevel"></line>
                    <line x1="461.4375" y1="298.4375" x2="458.9375" y2="301.5625" id="Path" stroke="#0A0C06" stroke-width="0.216" stroke-linejoin="bevel"></line>
                    <line x1="461.4375" y1="190.3125" x2="458.9375" y2="193.4375" id="Path" stroke="#0A0C06" stroke-width="0.216" stroke-linejoin="bevel"></line>
                    <line x1="458.9375" y1="301.5625" x2="461.4375" y2="305" id="Path" stroke="#0A0C06" stroke-width="0.216" stroke-linejoin="bevel"></line>
                    <line x1="458.9375" y1="193.4375" x2="461.4375" y2="196.875" id="Path" stroke="#0A0C06" stroke-width="0.216" stroke-linejoin="bevel"></line>
                    <path d="M283.625,214.375 C283.625,220.3125 280.5,225.625 275.5,228.4375 C270.5,231.25 264.25,231.25 259.25,228.4375 C254.25,225.625 251.125,220.3125 251.125,214.375 C251.125,205.3125 258.3125,198.125 267.375,198.125 C276.4375,198.4375 283.625,205.625 283.625,214.375" id="Path" fill="#D0021B" fill-rule="nonzero"></path>
                    <line x1="461.4375" y1="305" x2="461.4375" y2="351.25" id="Path" stroke="#0A0C06" stroke-width="0.216" stroke-linejoin="bevel"></line>
                    <line x1="461.4375" y1="196.875" x2="461.4375" y2="298.4375" id="Path" stroke="#0A0C06" stroke-width="0.216" stroke-linejoin="bevel"></line>
                    <line x1="21.125" y1="215.3125" x2="23.625" y2="218.4375" id="Path" stroke="#0A0C06" stroke-width="0.216" stroke-linejoin="bevel"></line>
                    <line x1="73.9375" y1="386.875" x2="67.375" y2="386.875" id="Path" stroke="#0A0C06" stroke-width="0.216" stroke-linejoin="bevel"></line>
                    <line x1="113.9375" y1="384.0625" x2="110.8125" y2="386.875" id="Path" stroke="#0A0C06" stroke-width="0.216" stroke-linejoin="bevel"></line>
                    <line x1="117.0625" y1="386.875" x2="113.9375" y2="384.0625" id="Path" stroke="#0A0C06" stroke-width="0.216" stroke-linejoin="bevel"></line>
                    <line x1="351.75" y1="384.0625" x2="348.625" y2="386.875" id="Path" stroke="#0A0C06" stroke-width="0.216" stroke-linejoin="bevel"></line>
                    <line x1="355.1875" y1="386.875" x2="351.75" y2="384.0625" id="Path" stroke="#0A0C06" stroke-width="0.216" stroke-linejoin="bevel"></line>
                    <line x1="398.3125" y1="386.875" x2="391.75" y2="386.875" id="Path" stroke="#0A0C06" stroke-width="0.216" stroke-linejoin="bevel"></line>
                    <line x1="442.0625" y1="271.25" x2="442.0625" y2="242.8125" id="Path" stroke="#0A0C06" stroke-width="0.216" stroke-linejoin="bevel"></line>
                    <line x1="442.0625" y1="345.625" x2="442.0625" y2="339.6875" id="Path" stroke="#0A0C06" stroke-width="0.216" stroke-linejoin="bevel"></line>
                    <line x1="391.75" y1="367.1875" x2="398.3125" y2="367.1875" id="Path" stroke="#0A0C06" stroke-width="0.216" stroke-linejoin="bevel"></line>
                    <line x1="351.75" y1="370" x2="355.1875" y2="367.1875" id="Path" stroke="#0A0C06" stroke-width="0.216" stroke-linejoin="bevel"></line>
                    <path d="M242.6875,49.6875 C248,49.6875 252.375,45.3125 252.375,40" id="Path" stroke="#0A0C06" stroke-width="0.216" stroke-linejoin="bevel"></path>
                    <path d="M252.375,40 C252.375,34.6875 248,30.3125 242.6875,30.3125" id="Path" stroke="#0A0C06" stroke-width="0.216" stroke-linejoin="bevel"></path>
                    <line x1="262.6875" y1="2.1875" x2="203.3125" y2="2.1875" id="Path" stroke="#0A0C06" stroke-width="0.216" stroke-linejoin="bevel"></line>
                    <line x1="391.75" y1="386.875" x2="236.125" y2="386.875" id="Path" stroke="#0A0C06" stroke-width="0.216" stroke-linejoin="bevel"></line>
                    <path d="M425.8125,386.875 C435.1875,386.875 444.25,383.125 451.125,376.5625 C457.6875,370 461.4375,360.9375 461.4375,351.25" id="Path" stroke="#0A0C06" stroke-width="0.216" stroke-linejoin="bevel"></path>
                    <line x1="442.0625" y1="298.4375" x2="442.0625" y2="196.875" id="Path" stroke="#0A0C06" stroke-width="0.216" stroke-linejoin="bevel"></line>
                    <path d="M420.5,367.1875 C432.375,367.1875 442.0625,357.5 442.0625,345.625" id="Path" stroke="#0A0C06" stroke-width="0.216" stroke-linejoin="bevel"></path>
                    <line x1="395.1875" y1="370" x2="398.3125" y2="367.1875" id="Path" stroke="#0A0C06" stroke-width="0.216" stroke-linejoin="bevel"></line>
                    <line x1="73.9375" y1="367.1875" x2="229.5625" y2="367.1875" id="Path" stroke="#0A0C06" stroke-width="0.216" stroke-linejoin="bevel"></line>
                    <line x1="67.375" y1="386.875" x2="39.875" y2="386.875" id="Path" stroke="#0A0C06" stroke-width="0.216" stroke-linejoin="bevel"></line>
                    <line x1="73.9375" y1="386.875" x2="70.8125" y2="384.0625" id="Path" stroke="#0A0C06" stroke-width="0.216" stroke-linejoin="bevel"></line>
                    <line x1="236.125" y1="386.875" x2="233" y2="384.0625" id="Path" stroke="#0A0C06" stroke-width="0.216" stroke-linejoin="bevel"></line>
                    <line x1="425.8125" y1="386.875" x2="398.3125" y2="386.875" id="Path" stroke="#0A0C06" stroke-width="0.216" stroke-linejoin="bevel"></line>
                    <line x1="442.0625" y1="196.875" x2="444.875" y2="193.4375" id="Path" stroke="#0A0C06" stroke-width="0.216" stroke-linejoin="bevel"></line>
                    <line x1="442.0625" y1="345.625" x2="442.0625" y2="305" id="Path" stroke="#0A0C06" stroke-width="0.216" stroke-linejoin="bevel"></line>
                    <line x1="398.3125" y1="367.1875" x2="420.5" y2="367.1875" id="Path" stroke="#0A0C06" stroke-width="0.216" stroke-linejoin="bevel"></line>
                    <line x1="229.5625" y1="367.1875" x2="233" y2="370" id="Path" stroke="#0A0C06" stroke-width="0.216" stroke-linejoin="bevel"></line>
                    <path d="M23.625,345.625 C23.625,351.25 25.8125,356.875 29.875,360.9375 C33.9375,365 39.5625,367.1875 45.1875,367.1875" id="Path" stroke="#0A0C06" stroke-width="0.216" stroke-linejoin="bevel"></path>
                    <line x1="233" y1="370" x2="236.125" y2="367.1875" id="Path" stroke="#0A0C06" stroke-width="0.216" stroke-linejoin="bevel"></line>
                    <line x1="45.1875" y1="367.1875" x2="67.375" y2="367.1875" id="Path" stroke="#0A0C06" stroke-width="0.216" stroke-linejoin="bevel"></line>
                    <line x1="70.8125" y1="384.0625" x2="67.375" y2="386.875" id="Path" stroke="#0A0C06" stroke-width="0.216" stroke-linejoin="bevel"></line>
                    <line x1="229.5625" y1="386.875" x2="73.9375" y2="386.875" id="Path" stroke="#0A0C06" stroke-width="0.216" stroke-linejoin="bevel"></line>
                    <line x1="395.1875" y1="384.0625" x2="391.75" y2="386.875" id="Path" stroke="#0A0C06" stroke-width="0.216" stroke-linejoin="bevel"></line>
                    <line x1="442.0625" y1="190.3125" x2="442.0625" y2="138.125" id="Path" stroke="#0A0C06" stroke-width="0.216" stroke-linejoin="bevel"></line>
                    <line x1="444.875" y1="301.5625" x2="442.0625" y2="298.4375" id="Path" stroke="#0A0C06" stroke-width="0.216" stroke-linejoin="bevel"></line>
                    <line x1="391.75" y1="367.1875" x2="395.1875" y2="370" id="Path" stroke="#0A0C06" stroke-width="0.216" stroke-linejoin="bevel"></line>
                    <line x1="70.8125" y1="370" x2="73.9375" y2="367.1875" id="Path" stroke="#0A0C06" stroke-width="0.216" stroke-linejoin="bevel"></line>
                    <line x1="233" y1="384.0625" x2="229.5625" y2="386.875" id="Path" stroke="#0A0C06" stroke-width="0.216" stroke-linejoin="bevel"></line>
                    <line x1="398.3125" y1="386.875" x2="395.1875" y2="384.0625" id="Path" stroke="#0A0C06" stroke-width="0.216" stroke-linejoin="bevel"></line>
                    <line x1="444.875" y1="193.4375" x2="442.0625" y2="190.3125" id="Path" stroke="#0A0C06" stroke-width="0.216" stroke-linejoin="bevel"></line>
                    <line x1="442.0625" y1="305" x2="444.875" y2="301.5625" id="Path" stroke="#0A0C06" stroke-width="0.216" stroke-linejoin="bevel"></line>
                    <line x1="236.125" y1="367.1875" x2="391.75" y2="367.1875" id="Path" stroke="#0A0C06" stroke-width="0.216" stroke-linejoin="bevel"></line>
                    <line x1="67.375" y1="367.1875" x2="70.8125" y2="370" id="Path" stroke="#0A0C06" stroke-width="0.216" stroke-linejoin="bevel"></line>
                    <line x1="88.625" y1="21.25" x2="92.375" y2="25.3125" id="Path" stroke="#0A0C06" stroke-linejoin="bevel"></line>
                    <line x1="348.625" y1="367.1875" x2="351.75" y2="370" id="Path" stroke="#0A0C06" stroke-width="0.216" stroke-linejoin="bevel"></line>
                    <line x1="113.9375" y1="370" x2="117.0625" y2="367.1875" id="Path" stroke="#0A0C06" stroke-width="0.216" stroke-linejoin="bevel"></line>
                    <line x1="110.8125" y1="367.1875" x2="113.9375" y2="370" id="Path" stroke="#0A0C06" stroke-width="0.216" stroke-linejoin="bevel"></line>
                    <line x1="67.375" y1="367.1875" x2="73.9375" y2="367.1875" id="Path" stroke="#0A0C06" stroke-width="0.216" stroke-linejoin="bevel"></line>
                    <path d="M120.8125,437.5 C120.8125,426.25 111.75,416.875 100.1875,416.875 C88.9375,416.875 79.5625,425.9375 79.5625,437.5" id="Path" stroke="#0A0C06" stroke-width="0.216" stroke-linejoin="bevel"></path>
                    <path d="M79.875,437.5 C79.875,448.75 88.9375,458.125 100.5,458.125 C111.75,458.125 121.125,449.0625 121.125,437.5" id="Path" stroke="#0A0C06" stroke-width="0.216" stroke-linejoin="bevel"></path>
                    <path d="M175.1875,437.5 C175.1875,426.25 166.125,416.875 154.5625,416.875 C143.3125,416.875 133.9375,425.9375 133.9375,437.5" id="Path" stroke="#0A0C06" stroke-width="0.216" stroke-linejoin="bevel"></path>
                    <path d="M133.9375,437.5 C133.9375,444.6875 138,451.5625 144.25,455.3125 C150.5,459.0625 158.3125,459.0625 164.875,455.3125 C171.125,451.5625 175.1875,445 175.1875,437.5" id="Path" stroke="#0A0C06" stroke-width="0.216" stroke-linejoin="bevel"></path>
                    <path d="M337.375,437.5 C337.375,426.25 328.3125,416.875 316.75,416.875 C305.5,416.875 296.125,425.9375 296.125,437.5" id="Path" stroke="#0A0C06" stroke-width="0.216" stroke-linejoin="bevel"></path>
                    <path d="M296.125,437.5 C296.125,444.6875 300.1875,451.5625 306.4375,455.3125 C312.6875,459.0625 320.5,459.0625 327.0625,455.3125 C333.3125,451.5625 337.375,445 337.375,437.5" id="Path" stroke="#0A0C06" stroke-width="0.216" stroke-linejoin="bevel"></path>
                    <path d="M283.3125,437.5 C283.3125,430.3125 279.25,423.4375 273,419.6875 C266.75,415.9375 258.9375,415.9375 252.375,419.6875 C246.125,423.4375 242.0625,430 242.0625,437.5" id="Path" stroke="#0A0C06" stroke-width="0.216" stroke-linejoin="bevel"></path>
                    <path d="M242.0625,437.5 C242.0625,448.75 251.125,458.125 262.6875,458.125 C273.9375,458.125 283.3125,449.0625 283.3125,437.5" id="Path" stroke="#0A0C06" stroke-width="0.216" stroke-linejoin="bevel"></path>
                    <path d="M229.25,437.5 C229.25,426.25 220.1875,416.875 208.625,416.875 C197.375,416.875 188,425.9375 188,437.5" id="Path" stroke="#0A0C06" stroke-width="0.216" stroke-linejoin="bevel"></path>
                    <path d="M188,437.5 C188,444.6875 192.0625,451.5625 198.3125,455.3125 C204.5625,459.0625 212.375,459.0625 218.9375,455.3125 C225.1875,451.5625 229.25,445 229.25,437.5" id="Path" stroke="#0A0C06" stroke-width="0.216" stroke-linejoin="bevel"></path>
                    <line x1="73.3125" y1="470" x2="343.625" y2="470" id="Path" stroke="#0A0C06" stroke-width="2" stroke-linejoin="bevel"></line>
                    <line x1="343.625" y1="405.3125" x2="73.3125" y2="405.3125" id="Path" stroke="#0A0C06" stroke-linejoin="bevel"></line>
                    <line x1="343.625" y1="405.3125" x2="343.625" y2="488.125" id="Path" stroke="#0A0C06" stroke-linejoin="bevel"></line>
                    <line x1="2.0625" y1="105" x2="2.0625" y2="104.6875" id="Path" stroke="#0A0C06" stroke-width="0.216" stroke-linejoin="bevel"></line>
                    <line x1="73.3125" y1="488.125" x2="73.3125" y2="405.3125" id="Path" stroke="#0A0C06" stroke-linejoin="bevel"></line>
                    <path d="M41.125,140.9375 C31.125,130.625 31.75,113.75 42.0625,103.75 C52.6875,93.75 69.25,93.75 79.25,104.375 C89.25,114.6875 88.9375,131.875 78.625,141.875 C68.3125,151.875 51.125,151.5625 41.125,140.9375 Z M103,123.4375 L61.125,80 L17.375,121.875 L59.25,165.3125 L103,123.4375 Z M54.25,148.75 L60.5,149.0625 C65.1875,105.625 61.4375,140.9375 66.125,97.5 L59.5625,96.875 C54.875,140.625 58.625,104.0625 54.25,148.75 Z" id="Shape" stroke="#1D1D1B"></path>
                    <path d="M84.875,99.0625 C74.875,88.75 75.5,71.875 85.8125,61.875 C96.125,51.875 113,51.875 123,62.1875 C133,72.5 132.6875,89.6875 122.375,99.6875 C111.75,110 94.875,109.6875 84.875,99.0625 Z M146.4375,81.5625 L104.5625,38.125 L61.125,80 L103,123.4375 L146.4375,81.5625 Z M97.6875,106.5625 L103.9375,106.875 C108.625,63.4375 104.875,98.75 109.5625,55.3125 L103,54.6875 C98.3125,98.75 102.0625,62.1875 97.6875,106.5625 Z" id="Shape" stroke="#1D1D1B"></path>
                    <path d="M100.5,417.1875 C111.75,417.1875 120.8125,426.5625 120.8125,437.8125 C120.8125,449.0625 111.75,458.4375 100.5,458.4375 C89.25,458.4375 79.875,449.0625 79.875,437.8125 C79.5625,426.5625 88.9375,417.1875 100.5,417.1875 Z M117.6875,426.5625 L114.5625,422.8125 C88.3125,444.6875 109.5625,426.875 83.625,448.75 L86.75,452.5 C112.6875,430.625 91.4375,448.125 117.6875,426.5625 Z" id="Shape" stroke="#1D1D1B"></path>
                    <path d="M154.5625,417.1875 C165.8125,417.1875 174.875,426.5625 174.875,437.8125 C174.875,449.0625 165.8125,458.4375 154.5625,458.4375 C143.3125,458.4375 133.9375,449.0625 133.9375,437.8125 C133.9375,426.5625 143.3125,417.1875 154.5625,417.1875 Z M143.3125,420.3125 L139.875,423.4375 C161.75,449.6875 143.9375,428.4375 165.8125,454.375 L169.5625,451.25 C148.625,426.25 162.6875,443.125 143.3125,420.3125 Z" id="Shape" stroke="#1D1D1B"></path>
                    <path d="M208.625,417.1875 C219.875,417.1875 228.9375,426.5625 228.9375,437.8125 C228.9375,449.0625 219.875,458.4375 208.625,458.4375 C197.375,458.4375 188,449.0625 188,437.8125 C188,426.5625 197.375,417.1875 208.625,417.1875 Z M197.375,420.3125 L193.9375,423.4375 C215.8125,449.6875 198,428.4375 219.875,454.375 L223.625,451.25 C201.4375,425 219.875,446.875 197.375,420.3125 Z" id="Shape" stroke="#1D1D1B"></path>
                    <path d="M262.6875,417.1875 C273.9375,417.1875 283,426.5625 283,437.8125 C283,449.0625 273.9375,458.4375 262.6875,458.4375 C251.4375,458.4375 242.0625,449.0625 242.0625,437.8125 C242.0625,426.5625 251.4375,417.1875 262.6875,417.1875 Z M279.875,426.5625 L276.75,422.8125 C250.5,444.6875 271.75,426.875 245.8125,448.75 L248.9375,452.5 C274.875,430.625 253.625,448.125 279.875,426.5625 Z" id="Shape" stroke="#1D1D1B"></path>
                    <path d="M316.75,417.1875 C328,417.1875 337.0625,426.5625 337.0625,437.8125 C337.0625,449.0625 328,458.4375 316.75,458.4375 C305.5,458.4375 296.125,449.0625 296.125,437.8125 C296.125,426.5625 305.5,417.1875 316.75,417.1875 Z M333.9375,426.5625 L330.8125,422.8125 C304.5625,444.6875 325.8125,426.875 299.875,448.75 L303,452.5 C328.9375,430.625 307.6875,448.125 333.9375,426.5625 Z" id="Shape" stroke="#1D1D1B"></path>
                    <path d="M242.6875,32.8125 C243.9375,32.8125 244.875,33.125 245.8125,33.4375 L356.4375,33.4375 C360.5,33.4375 364.5625,34.0625 368,35.625 C371.75,37.1875 374.875,39.375 377.6875,42.1875 L449.875,113.125 C453,115.9375 455.1875,119.375 456.75,123.125 C458.3125,126.875 458.9375,130.625 458.9375,135 L458.9375,346.25 C458.9375,356.25 454.875,365.3125 448.3125,372.1875 L448.3125,372.1875 C441.75,378.75 432.6875,382.8125 422.375,382.8125 L422.375,382.8125 L43.625,382.8125 L43.625,382.8125 C33.625,382.8125 24.5625,378.75 17.6875,372.1875 L17.6875,372.1875 C11.125,365.625 7.0625,356.5625 7.0625,346.25 L7.0625,237.1875 C7.0625,234.6875 9.25,232.5 11.75,232.5 L15.1875,232.5 C17.6875,232.5 19.875,234.6875 19.875,237.1875 L19.875,346.25 C19.875,352.8125 22.375,358.4375 26.75,362.8125 L26.75,362.8125 C30.8125,366.875 36.75,369.6875 43.3125,369.6875 L43.3125,369.6875 L422.0625,369.6875 L422.0625,369.6875 C428.625,369.6875 434.25,367.1875 438.625,362.8125 L438.625,362.8125 C442.6875,358.75 445.5,352.8125 445.5,346.25 L445.5,135 C445.5,132.5 445.1875,130.3125 444.25,128.125 C443.3125,125.9375 442.0625,124.0625 440.5,122.5 L368.3125,51.5625 C366.4375,50 364.875,48.75 362.6875,47.8125 C360.8125,46.875 358.625,46.5625 356.125,46.5625 L245.8125,46.5625 C244.875,46.875 243.9375,47.1875 242.6875,47.1875 C238.625,47.1875 235.5,44.0625 235.5,40 C235.5,35.9375 238.625,32.8125 242.6875,32.8125" id="Path" fill="#D8D8D8" fill-rule="nonzero"></path>
                    <g id="Group" transform="translate(303.625000, 196.875000)" fill="#000000" fill-rule="nonzero">
                        <path d="M82.1875,17.5 C89.0625,18.4375 96.5625,23.4375 97.1875,33.75 C97.1875,33.75 84.375,46.875 69.375,61.875 C54.0625,76.875 41.25,91.25 41.25,91.25 C41.25,91.5625 41.25,91.5625 40.3125,92.1875 C61.875,93.4375 83.75,92.5 105.625,89.375 C105.625,89.375 104.0625,92.1875 103.75,92.5 L103.75,92.5 C110.9375,83.125 115,71.25 115,58.75 C115,27.5 89.6875,2.1875 58.4375,2.1875 C42.1875,2.1875 27.5,9.0625 17.1875,20 C20.625,19.375 24.0625,18.75 27.5,18.4375 C45.625,15.3125 77.8125,16.5625 82.1875,17.5 Z" id="Path"></path>
                        <path d="M102.5,94.375 C102.1875,95 101.5625,95.3125 101.5625,95.3125 C101.875,95 102.1875,94.6875 102.5,94.375 Z" id="Path"></path>
                        <path d="M32.8125,97.5 C27.8125,96.5625 18.75,92.5 18.75,81.5625 C20,79.6875 33.4375,66.25 48.4375,51.5625 C63.75,36.875 75.9375,23.4375 75.625,23.125 C65,22.8125 54.0625,22.5 43.4375,23.125 C33.125,23.4375 22.8125,24.375 12.5,25.9375 C5.9375,35.3125 1.875,46.5625 1.875,58.75 C1.875,90 27.1875,115.3125 58.4375,115.3125 C75.625,115.3125 91.25,107.5 101.5625,95.3125 C78.75,99.0625 55.625,99.6875 32.8125,97.5 Z" id="Path"></path>
                        <path d="M17.1875,20 C17.1875,20 15.625,21.5625 14.375,22.8125 C13.125,24.375 12.1875,25.9375 12.1875,25.9375 L12.5,25.9375 C14.0625,23.75 15.625,21.875 17.1875,20 L17.1875,20 Z" id="Path"></path>
                        <path d="M103.75,92.5 C103.4375,93.125 102.8125,93.75 102.5,94.0625 C102.8125,93.75 103.4375,92.8125 103.75,92.5 Z" id="Path"></path>
                    </g>
                    <g id="_x23_232020ff" transform="translate(303.625000, 312.500000)" fill="#232020" fill-rule="nonzero">
                        <path d="M3.75,2.1875 C4.375,1.875 4.6875,2.1875 5.3125,2.1875 C9.0625,2.1875 13.125,2.1875 16.875,2.1875 C17.8125,2.1875 18.4375,3.125 18.125,3.75 C15.625,10.625 13.125,17.1875 10.9375,24.0625 C10.625,24.6875 11.25,25.625 11.875,25.625 C13.4375,25.625 15.3125,25.625 16.875,25.625 C17.8125,25.625 18.75,26.25 18.75,27.1875 C18.75,27.8125 19.0625,28.75 18.4375,29.375 C18.125,29.6875 17.5,30 16.875,30 C12.5,30 7.8125,30 3.4375,30 C2.5,30 1.875,29.0625 2.1875,28.4375 C4.6875,21.5625 7.1875,15 9.6875,8.125 C10,7.5 9.6875,6.5625 8.75,6.5625 C7.1875,6.5625 5.3125,6.5625 3.75,6.5625 C2.8125,6.25 2.1875,5.3125 2.1875,4.375 C2.5,3.4375 2.8125,2.5 3.75,2.1875 Z" id="Path"></path>
                        <path d="M23.125,2.1875 C25,1.5625 27.1875,2.5 27.5,4.6875 C27.5,6.5625 25.3125,8.125 23.4375,7.5 C22.1875,7.1875 20.9375,5.9375 20.9375,4.6875 C21.25,3.4375 22.1875,2.5 23.125,2.1875 Z" id="Path"></path>
                        <path d="M53.75,2.5 C57.1875,1.875 60.9375,1.5625 64.0625,2.5 C65.9375,3.125 67.8125,4.0625 68.75,5.9375 C70,8.125 70,11.25 68.125,13.4375 C67.1875,14.375 65.9375,15.3125 64.6875,15.625 C66.5625,16.5625 68.4375,17.8125 69.6875,19.6875 C70.9375,21.5625 70.625,23.75 70,25.625 C69.375,27.1875 68.125,28.75 66.5625,29.375 C63.75,30.625 60.625,30.9375 57.8125,30.625 C55.3125,30.625 52.8125,30 50.3125,29.0625 C50.3125,21.5625 50.3125,14.375 50.3125,6.875 C50.3125,5.9375 50.3125,4.6875 50.9375,4.0625 C51.875,2.8125 53.125,2.8125 53.75,2.5 M56.875,5.9375 C56.875,8.125 56.875,10 56.875,12.1875 C56.875,12.8125 56.875,13.75 57.5,14.0625 C59.375,13.75 61.25,13.4375 62.5,12.1875 C64.375,10.625 64.0625,7.5 62.1875,6.25 C60.625,5.3125 58.75,5.625 56.875,5.9375 M57.5,17.5 C56.875,18.125 56.875,18.75 56.875,19.6875 C56.875,21.25 56.875,23.125 56.875,24.6875 C56.875,25.625 57.5,26.875 58.75,26.5625 C60.3125,26.5625 62.1875,26.5625 63.4375,25.3125 C64.6875,23.75 64.375,21.5625 64.0625,20 C63.4375,18.4375 61.5625,17.8125 60,17.5 C59.0625,17.1875 58.125,17.1875 57.5,17.5 Z" id="Shape"></path>
                        <path d="M110.9375,2.1875 C112.5,1.5625 114.6875,2.5 115,4.0625 C115.625,5.625 114.6875,7.5 113.125,8.125 C111.5625,8.75 109.6875,7.8125 109.0625,6.25 C108.125,4.6875 109.0625,2.5 110.9375,2.1875 M111.25,2.5 C110,2.8125 109.0625,4.375 109.375,5.625 C109.6875,6.875 111.25,7.8125 112.5,7.5 C113.75,7.1875 114.375,5.9375 114.375,5 C114.375,3.4375 112.8125,2.1875 111.25,2.5 Z" id="Shape"></path>
                        <path d="M110.9375,3.125 C111.5625,2.8125 112.8125,2.8125 113.125,3.75 C113.4375,4.375 113.125,5 112.5,5.3125 C112.8125,5.9375 113.125,6.25 113.4375,6.875 C113.125,6.875 112.8125,6.875 112.5,6.875 C112.1875,6.25 111.875,5.9375 111.5625,5.3125 C111.5625,5.9375 111.5625,6.25 111.5625,6.875 C111.5625,6.875 111.25,6.875 110.9375,6.875 C110.9375,5.625 110.9375,4.375 110.9375,3.125 M111.5625,3.75 C111.5625,4.0625 111.5625,4.6875 111.5625,5 C111.875,5 112.8125,5 112.5,4.375 C112.5,3.75 111.875,3.75 111.5625,3.75 Z" id="Shape"></path>
                        <path d="M33.125,11.5625 C35,10 37.8125,9.375 40.3125,9.375 C42.8125,9.375 45,9.6875 47.1875,10.9375 C47.1875,17.5 47.1875,24.375 47.1875,30.9375 C47.1875,33.125 46.25,35.3125 44.6875,36.875 C42.8125,38.4375 40.625,38.75 38.4375,38.75 C35.9375,38.75 33.125,38.4375 30.9375,37.1875 C31.25,36.25 31.5625,35.3125 31.875,34.6875 C32.1875,34.0625 33.125,33.75 34.0625,34.0625 C35.9375,34.6875 38.125,35 40,34.0625 C41.25,33.4375 41.875,31.875 41.875,30.625 C41.875,30.3125 41.25,30 40.9375,30 C39.6875,30.3125 38.4375,30.3125 37.1875,30 C35,29.6875 32.8125,28.4375 31.5625,26.5625 C30,24.0625 29.6875,21.25 30,18.4375 C30,15.9375 30.9375,13.125 33.125,11.5625 M37.5,13.4375 C36.25,14.0625 35.9375,15.625 35.625,16.875 C35.3125,19.0625 35.3125,21.25 35.625,23.125 C35.9375,24.375 36.25,25.625 37.5,26.25 C38.4375,26.875 39.375,26.875 40.3125,26.875 C40.9375,26.25 41.25,25.625 41.25,25 C41.25,20.9375 41.25,17.1875 41.25,13.125 C40.3125,12.8125 38.75,12.5 37.5,13.4375 Z" id="Shape"></path>
                        <path d="M75.625,11.25 C77.5,9.6875 80,9.0625 82.5,9.375 C84.375,9.375 85.9375,10.3125 87.1875,11.875 C88.75,14.0625 89.375,16.5625 89.6875,19.375 C89.6875,20 89.0625,20.625 88.4375,20.625 C85,21.25 81.5625,21.5625 77.8125,22.1875 C78.125,24.0625 79.0625,25.9375 80.9375,26.25 C83.4375,26.875 85.9375,26.5625 88.125,25.3125 C88.4375,26.5625 89.375,27.5 88.75,28.75 C88.4375,29.6875 87.1875,29.6875 86.5625,30 C83.75,30.625 80.9375,30.9375 78.4375,29.6875 C76.25,29.0625 74.375,27.1875 73.4375,25 C72.5,22.5 72.1875,19.6875 72.8125,17.1875 C72.8125,15 73.75,12.8125 75.625,11.25 M78.4375,14.375 C77.5,15.625 77.5,17.5 77.5,19.0625 C80,18.75 82.1875,18.4375 84.6875,18.125 C84.6875,16.5625 84.375,15 83.4375,13.75 C81.875,12.5 79.375,12.8125 78.4375,14.375 Z" id="Shape"></path>
                        <path d="M97.5,10 C100,9.0625 102.8125,9.0625 105,10.625 C107.8125,12.5 108.4375,15.9375 108.75,19.0625 C108.75,19.6875 108.125,20.625 107.5,20.625 C104.0625,21.25 100.625,21.5625 96.875,22.1875 C97.1875,23.75 97.8125,25.625 99.6875,26.25 C102.1875,26.875 104.6875,26.5625 107.1875,25.625 C107.5,26.5625 108.125,27.5 108.125,28.75 C107.8125,30 106.5625,30 105.625,30.3125 C102.8125,30.9375 99.375,30.9375 96.875,29.6875 C94.375,28.4375 92.8125,26.25 92.1875,23.4375 C91.5625,20.625 91.5625,17.8125 92.8125,15 C93.125,12.5 95,10.625 97.5,10 M97.8125,14.0625 C96.5625,15.3125 96.5625,17.5 96.5625,19.0625 C99.0625,18.75 101.25,18.4375 103.75,18.125 C103.75,16.5625 103.75,15.3125 102.8125,14.0625 C101.5625,12.5 99.0625,12.5 97.8125,14.0625 Z" id="Shape"></path>
                        <path d="M22.8125,9.6875 C23.75,9.6875 25,9.6875 25.9375,9.6875 C26.875,9.6875 27.5,10.625 27.5,11.25 C27.5,16.875 27.5,22.5 27.5,28.125 C27.5,29.0625 26.875,30 25.9375,30 C25,30 24.0625,30 23.125,30 C22.1875,30 21.5625,29.0625 21.5625,28.125 C21.5625,22.5 21.5625,17.1875 21.5625,11.5625 C21.25,10.9375 21.875,10 22.8125,9.6875 Z" id="Path"></path>
                    </g>
                </g>
            </g>
            <path d="M3.81253938,111.080154 C2.01710777,112.779921 1,115.143446 1,117.615851 L1,407.623483 C1,410.167214 2.07643401,412.592152 3.96301847,414.298425 L83.9879567,486.674942 C85.6425602,488.171406 87.7939928,489 90.0249382,489 L411.477671,489 C413.941656,489 416.297895,487.989785 417.996685,486.205035 L486.467833,414.269191 C488.060528,412.595905 488.948819,410.374257 488.948819,408.064157 L488.948819,117.364874 C488.948819,115.025829 488.038185,112.778668 486.409849,111.099486 L382.296023,3.73461203 C380.60094,1.98659814 378.269918,1 375.834993,1 L123.672571,1 C121.370846,1 119.156597,1.88187761 117.48511,3.46430332 L3.81253938,111.080154 Z" id="Rectangle" stroke="#000000" stroke-width="2"></path>
        </g>
        <path d="M162.136382,249.309082 L165.376617,249.309082 L168.391265,255 L171.047027,255 L167.724761,248.950195 C169.529449,248.345215 170.595855,246.725098 170.595855,244.725586 C170.595855,241.967285 168.678374,240.203613 165.694488,240.203613 L159.839507,240.203613 L159.839507,255 L162.136382,255 L162.136382,249.309082 Z M162.136382,242.131348 L165.376617,242.131348 C167.150542,242.131348 168.237457,243.125977 168.237457,244.776855 C168.237457,246.46875 167.212066,247.422363 165.43814,247.422363 L162.136382,247.422363 L162.136382,242.131348 Z M180.097197,252.016113 C179.68704,252.918457 178.774443,253.410645 177.441435,253.410645 C175.677763,253.410645 174.53958,252.13916 174.467802,250.119141 L174.467802,250.016602 L182.353056,250.016602 L182.353056,249.257812 C182.353056,245.771484 180.476591,243.648926 177.369658,243.648926 C174.221708,243.648926 172.222197,245.915039 172.222197,249.452637 C172.222197,253.010742 174.180693,255.215332 177.379912,255.215332 C179.933134,255.215332 181.737822,253.984863 182.219755,252.016113 L180.097197,252.016113 Z M177.359404,245.443359 C178.989775,245.443359 180.056181,246.622559 180.107451,248.427246 L174.467802,248.427246 C174.590849,246.632812 175.729033,245.443359 177.359404,245.443359 Z M184.235746,246.981445 C184.235746,248.568829 185.145856,249.502071 187.102811,250.009063 L189.290921,250.529297 C190.408597,250.795898 190.931546,251.24707 190.931546,251.944336 C190.931546,252.856934 189.957425,253.492676 188.583402,253.492676 C187.250394,253.492676 186.430081,252.949219 186.153226,252.077637 L183.948636,252.077637 C184.14346,254.015625 185.876371,255.215332 188.532132,255.215332 C191.198148,255.215332 193.156644,253.810547 193.156644,251.739258 C193.156644,250.119141 192.162015,249.206543 190.039456,248.714355 L188.183499,248.283691 C186.973538,247.996582 186.409574,247.565918 186.409574,246.878906 C186.409574,245.976562 187.342679,245.371582 188.573148,245.371582 C189.824124,245.371582 190.623929,245.915039 190.829007,246.745605 L192.941312,246.745605 C192.72598,244.817871 191.085355,243.648926 188.573148,243.648926 C186.050687,243.648926 184.235746,245.043457 184.235746,246.981445 Z M202.627224,252.016113 C202.217068,252.918457 201.30447,253.410645 199.971462,253.410645 C198.20779,253.410645 197.069607,252.13916 196.997829,250.119141 L196.997829,250.016602 L204.883083,250.016602 L204.883083,249.257812 C204.883083,245.771484 203.006619,243.648926 199.899685,243.648926 C196.751736,243.648926 194.752224,245.915039 194.752224,249.452637 C194.752224,253.010742 196.71072,255.215332 199.909939,255.215332 C202.463162,255.215332 204.267849,253.984863 204.749783,252.016113 L202.627224,252.016113 Z M199.889431,245.443359 C201.519802,245.443359 202.586208,246.622559 202.637478,248.427246 L196.997829,248.427246 C197.120876,246.632812 198.25906,245.443359 199.889431,245.443359 Z M207.801417,241.054688 L210.006007,241.054688 L210.006007,243.89502 L212.425929,243.89502 L212.425929,245.658691 L210.006007,245.658691 L210.006007,251.53418 C210.006007,252.733887 210.487941,253.256836 211.585109,253.256836 C211.923488,253.256836 212.118312,253.236328 212.425929,253.205566 L212.425929,254.958984 C212.067042,255.020508 211.656886,255.071777 211.226222,255.071777 C208.775538,255.071777 207.801417,254.210449 207.801417,252.067383 L207.801417,245.658691 L206.027492,245.658691 L206.027492,243.89502 L207.801417,243.89502 L207.801417,241.054688 Z" id="Reset" fill="#000000" fill-rule="nonzero"></path>
        <path d="M168.817959,130.224609 C169.224209,136.724609 174.683194,140.888672 182.808194,140.888672 C191.491788,140.888672 196.925381,136.521484 196.925381,129.589844 C196.925381,124.200027 193.93362,121.188906 186.696906,119.375588 L182.274991,118.291016 L181.627294,118.125657 C177.326222,116.97886 175.571866,115.475609 175.571866,112.933594 C175.571866,109.505859 178.567959,107.296875 183.0621,107.296875 C187.327725,107.296875 190.273038,109.429688 190.806241,112.908203 L196.341397,112.908203 C196.011319,106.789062 190.577725,102.472656 183.138272,102.472656 C175.140225,102.472656 169.808194,106.789062 169.808194,113.238281 C169.808194,118.570312 172.829678,121.71875 179.456631,123.318359 L184.179288,124.460938 C189.028897,125.628906 191.161709,127.40625 191.161709,130.275391 C191.161709,133.626953 187.810147,136.039062 183.239834,136.039062 C178.339444,136.039062 174.9371,133.779297 174.454678,130.224609 L168.817959,130.224609 Z M238.505248,112.425781 L233.046263,112.425781 L228.120482,133.703125 L227.688841,133.703125 L222.001341,112.425781 L216.770873,112.425781 L211.083373,133.703125 L210.677123,133.703125 L205.725951,112.425781 L200.190795,112.425781 L207.807982,140 L213.41931,140 L219.10681,119.433594 L219.538451,119.433594 L225.251341,140 L230.913451,140 L238.505248,112.425781 Z M245.706208,107.5 C247.610505,107.5 249.159333,105.951172 249.159333,104.072266 C249.159333,102.167969 247.610505,100.619141 245.706208,100.619141 C243.801911,100.619141 242.253083,102.167969 242.253083,104.072266 C242.253083,105.951172 243.801911,107.5 245.706208,107.5 Z M242.989411,140 L248.423005,140 L248.423005,112.425781 L242.989411,112.425781 L242.989411,140 Z M257.122012,105.46875 L257.122012,112.501953 L252.729434,112.501953 L252.729434,116.869141 L257.122012,116.869141 L257.122012,132.738281 C257.122012,138.044922 259.534121,140.177734 265.60248,140.177734 C266.668887,140.177734 267.684512,140.050781 268.573184,139.898438 L268.573184,135.556641 L267.973876,135.61512 C267.506777,135.657685 267.089646,135.683594 266.491152,135.683594 C263.774355,135.683594 262.580996,134.388672 262.580996,131.417969 L262.580996,116.869141 L268.573184,116.869141 L268.573184,112.501953 L262.580996,112.501953 L262.580996,105.46875 L257.122012,105.46875 Z M296.848362,121.287109 C296.137425,115.929688 291.947972,111.892578 285.016331,111.892578 C276.967503,111.892578 272.067112,117.351562 272.067112,126.111328 C272.067112,135.048828 276.992894,140.533203 285.041722,140.533203 C291.8718,140.533203 296.137425,136.699219 296.848362,131.265625 L291.541722,131.265625 C290.830784,134.261719 288.469456,135.886719 285.016331,135.886719 C280.471409,135.886719 277.65305,132.205078 277.65305,126.111328 C277.65305,120.144531 280.446019,116.539062 285.016331,116.539062 C288.672581,116.539062 290.906956,118.595703 291.541722,121.287109 L296.848362,121.287109 Z M302.068854,140 L302.068854,101.609375 L307.477057,101.609375 L307.477057,116.818359 L307.908698,116.818359 C309.254401,113.746094 312.174323,111.917969 316.338385,111.917969 C322.22901,111.917969 325.859869,115.650391 325.859869,122.175781 L325.859869,140 L320.400885,140 L320.400885,123.470703 C320.400885,118.925781 318.344244,116.666016 314.484869,116.666016 C310.016119,116.666016 307.527838,119.535156 307.527838,123.851562 L307.527838,140 L302.068854,140 Z" id="Switch" fill="#000000" fill-rule="nonzero"></path>
    </g>
</svg>