<?xml version="1.0" encoding="UTF-8"?>
<svg width="158px" height="158px" viewBox="0 0 158 158" version="1.1" xmlns="http://www.w3.org/2000/svg" xmlns:xlink="http://www.w3.org/1999/xlink">
    <!-- Generator: Sketch 59.1 (86144) - https://sketch.com -->
    <title>ZGRC-KEY-001</title>
    <desc>Created with Sketch.</desc>
    <g id="ZGRC-KEY-001" stroke="none" stroke-width="1" fill="none" fill-rule="evenodd">
        <g id="icon">
            <path d="M9.3,0.5 C7,0.5 4.7,1.4 3.1,3.1 C1.4,4.7 0.5,6.9 0.5,9.3" id="Path" stroke="#000000" stroke-linejoin="bevel"></path>
            <path d="M0.5,147.8 C0.5,150.1 1.4,152.4 3.1,154 C4.7,155.6 7,156.6 9.3,156.6" id="Path" stroke="#000000" stroke-linejoin="bevel"></path>
            <path d="M156.6,9.3 C156.6,7 155.7,4.7 154,3.1 C152.4,1.5 150.1,0.5 147.8,0.5" id="Path" stroke="#000000" stroke-linejoin="bevel"></path>
            <line x1="147.8" y1="0.5" x2="9.3" y2="0.5" id="Path" stroke="#000000" stroke-linejoin="bevel"></line>
            <path d="M147.8,156.6 C150.1,156.6 152.4,155.7 154,154 C155.6,152.4 156.6,150.1 156.6,147.8" id="Path" stroke="#000000" stroke-linejoin="bevel"></path>
            <line x1="0.5" y1="9.3" x2="0.5" y2="147.8" id="Path" stroke="#000000" stroke-linejoin="bevel"></line>
            <line x1="9.3" y1="156.6" x2="147.8" y2="156.6" id="Path" stroke="#000000" stroke-linejoin="bevel"></line>
            <line x1="156.6" y1="147.8" x2="156.6" y2="9.3" id="Path" stroke="#000000" stroke-linejoin="bevel"></line>
            <path d="M103.5,139.4 C103.3,139.4 103,139.4 102.8,139.4" id="Path" stroke="#000000" stroke-linejoin="bevel"></path>
            <path d="M139.4,137.2 C139.4,127.8 139.4,113.7 139.4,109.1" id="Path" stroke="#000000" stroke-linejoin="bevel"></path>
            <path d="M139.4,78.1 C139.4,68.2 139.4,53.4 139.4,48.5" id="Path" stroke="#000000" stroke-linejoin="bevel"></path>
            <path d="M103.5,139.4 C114.7,139.4 131.6,139.4 137.2,139.4" id="Path" stroke="#000000" stroke-linejoin="bevel"></path>
            <path d="M17.7,78.8 C29.9,78.8 48.1,78.8 54.2,78.8" id="Path" stroke="#000000" stroke-linejoin="bevel"></path>
            <path d="M137.3,139.4 C137.9,139.4 138.6,139 138.8,138.8 C139.2,138.4 139.4,137.6 139.4,137.3" id="Path" stroke="#000000" stroke-linejoin="bevel"></path>
            <path d="M17.7,78.1 C17.7,78.3 17.7,78.6 17.7,78.8" id="Path" stroke="#000000" stroke-linejoin="bevel"></path>
            <path d="M102.9,17.6 C86.7,17.6 62.3,17.6 54.2,17.6" id="Path" stroke="#000000" stroke-linejoin="bevel"></path>
            <path d="M17.6,109 C17.6,99.1 17.6,83.7 17.6,78.8" id="Path" stroke="#000000" stroke-linejoin="bevel"></path>
            <path d="M102.9,109 C102.9,118.5 102.9,132.7 102.9,137.4" id="Path" stroke="#000000" stroke-linejoin="bevel"></path>
            <path d="M102.9,138.5 C102.9,138.8 102.9,139.2 102.9,139.3" id="Path" stroke="#000000" stroke-linejoin="bevel"></path>
            <path d="M102.9,137.4 C102.9,137.8 102.9,138.3 102.9,138.5" id="Path" stroke="#000000" stroke-linejoin="bevel"></path>
            <path d="M139.4,19.7 C139.4,19.1 139,18.4 138.8,18.2 C138.4,17.8 137.6,17.6 137.3,17.6" id="Path" stroke="#000000" stroke-linejoin="bevel"></path>
            <path d="M103.5,17.6 C103.3,17.6 103,17.6 102.8,17.6" id="Path" stroke="#000000" stroke-linejoin="bevel"></path>
            <path d="M139.4,48.5 C139.4,39.1 139.4,24.4 139.4,19.7" id="Path" stroke="#000000" stroke-linejoin="bevel"></path>
            <path d="M137.3,17.6 C126.1,17.6 109.2,17.6 103.6,17.6" id="Path" stroke="#000000" stroke-linejoin="bevel"></path>
            <path d="M54.2,109 C54.2,118.5 54.2,132.7 54.2,137.4" id="Path" stroke="#000000" stroke-linejoin="bevel"></path>
            <path d="M54.2,137.4 C54.2,138 54.2,139 54.2,139.3" id="Path" stroke="#000000" stroke-linejoin="bevel"></path>
            <path d="M54.4,20.4 C70.5,20.4 94.6,20.4 102.6,20.4" id="Path" stroke="#000000" stroke-linejoin="bevel"></path>
            <path d="M102.9,19.5 C102.9,39 102.9,68.4 102.9,78.1" id="Path" stroke="#000000" stroke-linejoin="bevel"></path>
            <path d="M102.6,136.5 C86.5,136.5 62.4,136.5 54.4,136.5" id="Path" stroke="#000000" stroke-linejoin="bevel"></path>
            <path d="M102.6,20.4 C102.6,59.1 102.6,117.2 102.6,136.6" id="Path" stroke="#000000" stroke-linejoin="bevel"></path>
            <path d="M102.9,17.6 C102.9,17.9 102.9,18.3 102.9,18.4" id="Path" stroke="#000000" stroke-linejoin="bevel"></path>
            <path d="M102.9,18.4 C102.9,18.8 102.9,19.3 102.9,19.5" id="Path" stroke="#000000" stroke-linejoin="bevel"></path>
            <path d="M139.4,78.8 C139.4,78.6 139.4,78.3 139.4,78.1" id="Path" stroke="#000000" stroke-linejoin="bevel"></path>
            <path d="M139.4,109 C139.4,99.1 139.4,83.7 139.4,78.8" id="Path" stroke="#000000" stroke-linejoin="bevel"></path>
            <path d="M17.6,78.1 C17.6,68.2 17.6,52.8 17.6,47.9" id="Path" stroke="#000000" stroke-linejoin="bevel"></path>
            <path d="M54.2,48.5 C54.2,58.4 54.2,73.2 54.2,78.1" id="Path" stroke="#000000" stroke-linejoin="bevel"></path>
            <path d="M53.5,139.4 C42.3,139.4 25.4,139.4 19.8,139.4" id="Path" stroke="#000000" stroke-linejoin="bevel"></path>
            <path d="M53.5,139.4 C53.7,139.4 54,139.4 54.2,139.4" id="Path" stroke="#000000" stroke-linejoin="bevel"></path>
            <path d="M54.4,136.5 C54.4,97.8 54.4,39.7 54.4,20.3" id="Path" stroke="#000000" stroke-linejoin="bevel"></path>
            <path d="M17.6,137.2 C17.6,127.8 17.6,113.7 17.6,109.1" id="Path" stroke="#000000" stroke-linejoin="bevel"></path>
            <path d="M19.8,139.4 C19.2,139.4 18.5,139 18.3,138.8 C17.9,138.4 17.7,137.6 17.7,137.3" id="Path" stroke="#000000" stroke-linejoin="bevel"></path>
            <path d="M54.2,17.6 C54.2,17.9 54.2,18.3 54.2,18.4" id="Path" stroke="#000000" stroke-linejoin="bevel"></path>
            <path d="M54.2,19.5 C54.2,29.2 54.2,43.7 54.2,48.5" id="Path" stroke="#000000" stroke-linejoin="bevel"></path>
            <path d="M54.2,18.4 C54.2,18.8 54.2,19.3 54.2,19.5" id="Path" stroke="#000000" stroke-linejoin="bevel"></path>
            <path d="M17.6,47.9 C17.6,38.5 17.6,24.4 17.6,19.8" id="Path" stroke="#000000" stroke-linejoin="bevel"></path>
            <path d="M17.6,19.7 C17.6,19.1 18,18.4 18.2,18.2 C18.6,17.8 19.4,17.6 19.7,17.6" id="Path" stroke="#000000" stroke-linejoin="bevel"></path>
            <path d="M53.5,17.6 C53.7,17.6 54,17.6 54.2,17.6" id="Path" stroke="#000000" stroke-linejoin="bevel"></path>
            <path d="M102.9,78.8 C102.9,88.9 102.9,104 102.9,109" id="Path" stroke="#000000" stroke-linejoin="bevel"></path>
            <path d="M139.4,78.8 C127.2,78.8 109,78.8 102.9,78.8" id="Path" stroke="#000000" stroke-linejoin="bevel"></path>
            <path d="M54.2,78.8 C54.2,88.9 54.2,104 54.2,109" id="Path" stroke="#000000" stroke-linejoin="bevel"></path>
            <path d="M19.8,17.6 C31,17.6 47.9,17.6 53.5,17.6" id="Path" stroke="#000000" stroke-linejoin="bevel"></path>
            <path d="M54.2,139.3 C70.4,139.3 94.8,139.3 102.9,139.3" id="Path" stroke="#000000" stroke-linejoin="bevel"></path>
            <line x1="36" y1="44" x2="36" y2="51.7" id="Path" stroke="#000000"></line>
            <rect id="Rectangle" fill="#0200FF" fill-rule="nonzero" x="77.5" y="29.8" width="2.1" height="4.2"></rect>
            <circle id="Oval" stroke="#000000" cx="121.1" cy="47.8" r="3.8"></circle>
        </g>
        <g id="Group" transform="translate(29.000000, 103.000000)">
            <circle id="Oval" stroke="#000000" cx="7.11666667" cy="7.05833333" r="4.43333333"></circle>
            <path d="M7.58333333,11.6666667 L7.58333333,14 L6.41666667,14 L6.41666667,11.6666667 L7.58333333,11.6666667 Z M10.7123106,9.88735269 L12.3622264,11.5372685 L11.5372685,12.3622264 L9.88735269,10.7123106 L10.7123106,9.88735269 Z M3.2876894,9.88735269 L4.11264731,10.7123106 L2.46273149,12.3622264 L1.63777358,11.5372685 L3.2876894,9.88735269 Z M14,6.41666667 L14,7.58333333 L11.6666667,7.58333333 L11.6666667,6.41666667 L14,6.41666667 Z M2.33333333,6.41666667 L2.33333333,7.58333333 L0,7.58333333 L-2.1431319e-16,6.41666667 L2.33333333,6.41666667 Z M11.5372685,1.63777358 L12.3622264,2.46273149 L10.7123106,4.11264731 L9.88735269,3.2876894 L11.5372685,1.63777358 Z M2.46273149,1.63777358 L4.11264731,3.2876894 L3.2876894,4.11264731 L1.63777358,2.46273149 L2.46273149,1.63777358 Z M7.58333333,0 L7.58333333,2.33333333 L6.41666667,2.33333333 L6.41666667,0 L7.58333333,0 Z" id="Combined-Shape" fill="#000000"></path>
        </g>
        <g id="Group" transform="translate(116.500000, 105.000000)">
            <circle id="Oval" stroke="#000000" cx="5.08333333" cy="5.04166667" r="3.16666667"></circle>
            <path d="M5.41666667,8.33333333 L5.41666667,10 L4.58333333,10 L4.58333333,8.33333333 L5.41666667,8.33333333 Z M7.65165043,7.06239478 L8.83016173,8.24090608 L8.24090608,8.83016173 L7.06239478,7.65165043 L7.65165043,7.06239478 Z M2.34834957,7.06239478 L2.93760522,7.65165043 L1.75909392,8.83016173 L1.16983827,8.24090608 L2.34834957,7.06239478 Z M10,4.58333333 L10,5.41666667 L8.33333333,5.41666667 L8.33333333,4.58333333 L10,4.58333333 Z M1.66666667,4.58333333 L1.66666667,5.41666667 L-4.59397295e-16,5.41666667 L-6.12478145e-16,4.58333333 L1.66666667,4.58333333 Z M8.24090608,1.16983827 L8.83016173,1.75909392 L7.65165043,2.93760522 L7.06239478,2.34834957 L8.24090608,1.16983827 Z M1.75909392,1.16983827 L2.93760522,2.34834957 L2.34834957,2.93760522 L1.16983827,1.75909392 L1.75909392,1.16983827 Z M5.41666667,0 L5.41666667,1.66666667 L4.58333333,1.66666667 L4.58333333,0 L5.41666667,0 Z" id="Combined-Shape" fill="#000000"></path>
        </g>
    </g>
</svg>