<?xml version="1.0" encoding="UTF-8"?>
<svg width="158px" height="158px" viewBox="0 0 158 158" version="1.1" xmlns="http://www.w3.org/2000/svg" xmlns:xlink="http://www.w3.org/1999/xlink">
    <!-- Generator: Sketch 59.1 (86144) - https://sketch.com -->
    <title>ZGRC_KEY_004</title>
    <desc>Created with Sketch.</desc>
    <g id="ZGRC_KEY_004" stroke="none" stroke-width="1" fill="none" fill-rule="evenodd">
        <g id="icon">
            <path d="M9.3,0.5 C7,0.5 4.7,1.4 3.1,3.1 C1.4,4.7 0.5,6.9 0.5,9.3" id="Path" stroke="#0A0C06" stroke-linejoin="bevel"></path>
            <path d="M0.5,147.8 C0.5,150.1 1.4,152.4 3.1,154 C4.7,155.6 7,156.6 9.3,156.6" id="Path" stroke="#0A0C06" stroke-linejoin="bevel"></path>
            <path d="M156.6,9.3 C156.6,7 155.7,4.7 154,3.1 C152.4,1.5 150.1,0.5 147.8,0.5" id="Path" stroke="#0A0C06" stroke-linejoin="bevel"></path>
            <line x1="147.8" y1="0.5" x2="9.3" y2="0.5" id="Path" stroke="#0A0C06" stroke-linejoin="bevel"></line>
            <path d="M147.8,156.6 C150.1,156.6 152.4,155.7 154,154 C155.6,152.4 156.6,150.1 156.6,147.8" id="Path" stroke="#0A0C06" stroke-linejoin="bevel"></path>
            <line x1="0.5" y1="9.3" x2="0.5" y2="147.8" id="Path" stroke="#0A0C06" stroke-linejoin="bevel"></line>
            <line x1="9.3" y1="156.6" x2="147.8" y2="156.6" id="Path" stroke="#0A0C06" stroke-linejoin="bevel"></line>
            <line x1="156.6" y1="147.8" x2="156.6" y2="9.3" id="Path" stroke="#0A0C06" stroke-linejoin="bevel"></line>
            <path d="M139.4,137.2 C139.4,98.1 139.4,39.3 139.4,19.8" id="Path" stroke="#0A0C06" stroke-linejoin="bevel"></path>
            <path d="M19.8,139.4 C58.9,139.4 117.7,139.4 137.2,139.4" id="Path" stroke="#0A0C06" stroke-linejoin="bevel"></path>
            <path d="M137.3,139.4 C137.9,139.4 138.6,139 138.8,138.8 C139.2,138.4 139.4,137.6 139.4,137.3" id="Path" stroke="#0A0C06" stroke-linejoin="bevel"></path>
            <path d="M102.9,17.6 C102.9,58.2 102.9,119.1 102.9,139.4" id="Path" stroke="#0A0C06" stroke-linejoin="bevel"></path>
            <path d="M139.4,19.8 C139.4,19.2 139,18.5 138.8,18.3 C138.4,17.9 137.6,17.7 137.3,17.7" id="Path" stroke="#0A0C06" stroke-linejoin="bevel"></path>
            <path d="M54.2,17.6 C54.2,58.2 54.2,119 54.2,139.3" id="Path" stroke="#0A0C06" stroke-linejoin="bevel"></path>
            <path d="M54.4,20.4 C70.5,20.4 94.8,20.4 102.8,20.4" id="Path" stroke="#0A0C06" stroke-linejoin="bevel"></path>
            <path d="M102.6,136.6 C86.5,136.6 62.4,136.6 54.4,136.6" id="Path" stroke="#0A0C06" stroke-linejoin="bevel"></path>
            <path d="M17.6,137.2 C17.6,98.1 17.6,39.3 17.6,19.8" id="Path" stroke="#0A0C06" stroke-linejoin="bevel"></path>
            <path d="M19.8,139.4 C19.2,139.4 18.5,139 18.3,138.8 C17.9,138.4 17.7,137.6 17.7,137.3" id="Path" stroke="#0A0C06" stroke-linejoin="bevel"></path>
            <path d="M54.2,17.6 C54.2,17.9 54.2,18.3 54.2,18.4" id="Path" stroke="#0A0C06" stroke-linejoin="bevel"></path>
            <path d="M17.6,19.8 C17.6,19.2 18,18.5 18.2,18.3 C18.6,17.9 19.4,17.7 19.7,17.7" id="Path" stroke="#0A0C06" stroke-linejoin="bevel"></path>
            <path d="M19.8,17.6 C58.9,17.6 117.7,17.6 137.2,17.6" id="Path" stroke="#0A0C06" stroke-linejoin="bevel"></path>
            <rect id="Rectangle" fill="#02FF00" fill-rule="nonzero" x="77.5" y="29.7" width="2.1" height="4.2"></rect>
            <line x1="35.9" y1="75" x2="35.9" y2="81" id="Path" stroke="#000000" fill="#000000" fill-rule="nonzero"></line>
            <circle id="Oval" stroke="#000000" cx="121.1" cy="78.8" r="3.8"></circle>
        </g>
        <path d="M35.0000423,76.1114986 L35.0001626,77.1448909 C33.5543346,77.5751135 32.5,78.9144302 32.5,80.5 C32.5,82.4329966 34.0670034,84 36,84 C37.9329966,84 39.5,82.4329966 39.5,80.5 C39.5,78.9147963 38.4461522,77.575732 37.0008388,77.1451891 L37.0009543,76.1117249 C39.0044636,76.5668064 40.5,78.3587526 40.5,80.5 C40.5,82.9852814 38.4852814,85 36,85 C33.5147186,85 31.5,82.9852814 31.5,80.5 C31.5,78.3583975 32.9960324,76.5662122 35.0000423,76.1114986 Z" id="Combined-Shape" fill="#000000"></path>
        <path d="M121.5,82.75 L121.5,84.75 L120.5,84.75 L120.5,82.75 L121.5,82.75 Z M124.181981,81.2248737 L125.596194,82.6390873 L124.889087,83.3461941 L123.474874,81.9319805 L124.181981,81.2248737 Z M117.818019,81.2248737 L118.525126,81.9319805 L117.110913,83.3461941 L116.403806,82.6390873 L117.818019,81.2248737 Z M127,78.25 L127,79.25 L125,79.25 L125,78.25 L127,78.25 Z M117,78.25 L117,79.25 L115,79.25 L115,78.25 L117,78.25 Z M124.889087,74.1538059 L125.596194,74.8609127 L124.181981,76.2751263 L123.474874,75.5680195 L124.889087,74.1538059 Z M117.110913,74.1538059 L118.525126,75.5680195 L117.818019,76.2751263 L116.403806,74.8609127 L117.110913,74.1538059 Z M121.5,72.75 L121.5,74.75 L120.5,74.75 L120.5,72.75 L121.5,72.75 Z" id="Combined-Shape" fill="#000000"></path>
    </g>
</svg>