<?xml version="1.0" encoding="UTF-8"?>
<svg width="158px" height="158px" viewBox="0 0 158 158" version="1.1" xmlns="http://www.w3.org/2000/svg" xmlns:xlink="http://www.w3.org/1999/xlink">
    <!-- Generator: Sketch 59.1 (86144) - https://sketch.com -->
    <title>ZG2833K4_EU06_learnmode</title>
    <desc>Created with Sketch.</desc>
    <g id="ZG2833K4_EU06_learnmode" stroke="none" stroke-width="1" fill="none" fill-rule="evenodd">
        <g id="icon">
            <path d="M9.3,0.5 C7,0.5 4.7,1.4 3.1,3.1 C1.4,4.7 0.5,6.9 0.5,9.3" id="Path" stroke="#000000" stroke-linejoin="bevel"></path>
            <path d="M0.5,147.8 C0.5,150.1 1.4,152.4 3.1,154 C4.7,155.6 7,156.6 9.3,156.6" id="Path" stroke="#000000" stroke-linejoin="bevel"></path>
            <path d="M156.6,9.3 C156.6,7 155.7,4.7 154,3.1 C152.4,1.5 150.1,0.5 147.8,0.5" id="Path" stroke="#000000" stroke-linejoin="bevel"></path>
            <line x1="147.8" y1="0.5" x2="9.3" y2="0.5" id="Path" stroke="#000000" stroke-linejoin="bevel"></line>
            <path d="M147.8,156.6 C150.1,156.6 152.4,155.7 154,154 C155.6,152.4 156.6,150.1 156.6,147.8" id="Path" stroke="#000000" stroke-linejoin="bevel"></path>
            <line x1="0.5" y1="9.3" x2="0.5" y2="147.8" id="Path" stroke="#000000" stroke-linejoin="bevel"></line>
            <line x1="9.3" y1="156.6" x2="147.8" y2="156.6" id="Path" stroke="#000000" stroke-linejoin="bevel"></line>
            <line x1="156.6" y1="147.8" x2="156.6" y2="9.3" id="Path" stroke="#000000" stroke-linejoin="bevel"></line>
            <path d="M103.5,139.4 C103.3,139.4 103,139.4 102.8,139.4" id="Path" stroke="#000000" stroke-linejoin="bevel"></path>
            <path d="M139.4,137.2 C139.4,127.8 139.4,113.7 139.4,109.1" id="Path" stroke="#000000" stroke-linejoin="bevel"></path>
            <path d="M139.4,78.1 C139.4,68.2 139.4,53.4 139.4,48.5" id="Path" stroke="#000000" stroke-linejoin="bevel"></path>
            <path d="M103.5,139.4 C114.7,139.4 131.6,139.4 137.2,139.4" id="Path" stroke="#000000" stroke-linejoin="bevel"></path>
            <path d="M17.7,78.8 C29.9,78.8 48.1,78.8 54.2,78.8" id="Path" stroke="#000000" stroke-linejoin="bevel"></path>
            <path d="M137.3,139.4 C137.9,139.4 138.6,139 138.8,138.8 C139.2,138.4 139.4,137.6 139.4,137.3" id="Path" stroke="#000000" stroke-linejoin="bevel"></path>
            <path d="M17.7,78.1 C17.7,78.3 17.7,78.6 17.7,78.8" id="Path" stroke="#000000" stroke-linejoin="bevel"></path>
            <path d="M102.9,17.6 C86.7,17.6 62.3,17.6 54.2,17.6" id="Path" stroke="#000000" stroke-linejoin="bevel"></path>
            <path d="M17.6,109 C17.6,99.1 17.6,83.7 17.6,78.8" id="Path" stroke="#000000" stroke-linejoin="bevel"></path>
            <path d="M102.9,109 C102.9,118.5 102.9,132.7 102.9,137.4" id="Path" stroke="#000000" stroke-linejoin="bevel"></path>
            <path d="M102.9,138.5 C102.9,138.8 102.9,139.2 102.9,139.3" id="Path" stroke="#000000" stroke-linejoin="bevel"></path>
            <path d="M102.9,137.4 C102.9,137.8 102.9,138.3 102.9,138.5" id="Path" stroke="#000000" stroke-linejoin="bevel"></path>
            <path d="M139.4,19.7 C139.4,19.1 139,18.4 138.8,18.2 C138.4,17.8 137.6,17.6 137.3,17.6" id="Path" stroke="#000000" stroke-linejoin="bevel"></path>
            <path d="M103.5,17.6 C103.3,17.6 103,17.6 102.8,17.6" id="Path" stroke="#000000" stroke-linejoin="bevel"></path>
            <path d="M139.4,48.5 C139.4,39.1 139.4,24.4 139.4,19.7" id="Path" stroke="#000000" stroke-linejoin="bevel"></path>
            <path d="M137.3,17.6 C126.1,17.6 109.2,17.6 103.6,17.6" id="Path" stroke="#000000" stroke-linejoin="bevel"></path>
            <path d="M54.2,109 C54.2,118.5 54.2,132.7 54.2,137.4" id="Path" stroke="#000000" stroke-linejoin="bevel"></path>
            <path d="M54.2,137.4 C54.2,138 54.2,139 54.2,139.3" id="Path" stroke="#000000" stroke-linejoin="bevel"></path>
            <path d="M54.4,20.4 C70.5,20.4 94.6,20.4 102.6,20.4" id="Path" stroke="#000000" stroke-linejoin="bevel"></path>
            <path d="M102.9,19.5 C102.9,39 102.9,68.4 102.9,78.1" id="Path" stroke="#000000" stroke-linejoin="bevel"></path>
            <path d="M102.6,136.5 C86.5,136.5 62.4,136.5 54.4,136.5" id="Path" stroke="#000000" stroke-linejoin="bevel"></path>
            <path d="M102.6,20.4 C102.6,59.1 102.6,117.2 102.6,136.6" id="Path" stroke="#000000" stroke-linejoin="bevel"></path>
            <path d="M102.9,17.6 C102.9,17.9 102.9,18.3 102.9,18.4" id="Path" stroke="#000000" stroke-linejoin="bevel"></path>
            <path d="M102.9,18.4 C102.9,18.8 102.9,19.3 102.9,19.5" id="Path" stroke="#000000" stroke-linejoin="bevel"></path>
            <path d="M139.4,78.8 C139.4,78.6 139.4,78.3 139.4,78.1" id="Path" stroke="#000000" stroke-linejoin="bevel"></path>
            <path d="M139.4,109 C139.4,99.1 139.4,83.7 139.4,78.8" id="Path" stroke="#000000" stroke-linejoin="bevel"></path>
            <path d="M17.6,78.1 C17.6,68.2 17.6,52.8 17.6,47.9" id="Path" stroke="#000000" stroke-linejoin="bevel"></path>
            <path d="M54.2,48.5 C54.2,58.4 54.2,73.2 54.2,78.1" id="Path" stroke="#000000" stroke-linejoin="bevel"></path>
            <path d="M53.5,139.4 C42.3,139.4 25.4,139.4 19.8,139.4" id="Path" stroke="#000000" stroke-linejoin="bevel"></path>
            <path d="M53.5,139.4 C53.7,139.4 54,139.4 54.2,139.4" id="Path" stroke="#000000" stroke-linejoin="bevel"></path>
            <path d="M54.4,136.5 C54.4,97.8 54.4,39.7 54.4,20.3" id="Path" stroke="#000000" stroke-linejoin="bevel"></path>
            <path d="M17.6,137.2 C17.6,127.8 17.6,113.7 17.6,109.1" id="Path" stroke="#000000" stroke-linejoin="bevel"></path>
            <path d="M19.8,139.4 C19.2,139.4 18.5,139 18.3,138.8 C17.9,138.4 17.7,137.6 17.7,137.3" id="Path" stroke="#000000" stroke-linejoin="bevel"></path>
            <path d="M54.2,17.6 C54.2,17.9 54.2,18.3 54.2,18.4" id="Path" stroke="#000000" stroke-linejoin="bevel"></path>
            <path d="M54.2,19.5 C54.2,29.2 54.2,43.7 54.2,48.5" id="Path" stroke="#000000" stroke-linejoin="bevel"></path>
            <path d="M54.2,18.4 C54.2,18.8 54.2,19.3 54.2,19.5" id="Path" stroke="#000000" stroke-linejoin="bevel"></path>
            <path d="M17.6,47.9 C17.6,38.5 17.6,24.4 17.6,19.8" id="Path" stroke="#000000" stroke-linejoin="bevel"></path>
            <path d="M17.6,19.7 C17.6,19.1 18,18.4 18.2,18.2 C18.6,17.8 19.4,17.6 19.7,17.6" id="Path" stroke="#000000" stroke-linejoin="bevel"></path>
            <path d="M53.5,17.6 C53.7,17.6 54,17.6 54.2,17.6" id="Path" stroke="#000000" stroke-linejoin="bevel"></path>
            <path d="M102.9,78.8 C102.9,88.9 102.9,104 102.9,109" id="Path" stroke="#000000" stroke-linejoin="bevel"></path>
            <path d="M139.4,78.8 C127.2,78.8 109,78.8 102.9,78.8" id="Path" stroke="#000000" stroke-linejoin="bevel"></path>
            <path d="M54.2,78.8 C54.2,88.9 54.2,104 54.2,109" id="Path" stroke="#000000" stroke-linejoin="bevel"></path>
            <path d="M19.8,17.6 C31,17.6 47.9,17.6 53.5,17.6" id="Path" stroke="#000000" stroke-linejoin="bevel"></path>
            <path d="M54.2,139.3 C70.4,139.3 94.8,139.3 102.9,139.3" id="Path" stroke="#000000" stroke-linejoin="bevel"></path>
            <line x1="36" y1="44" x2="36" y2="51.7" id="Path" stroke="#000000"></line>
            <rect id="Rectangle" fill="#0200FF" fill-rule="nonzero" x="77.5" y="29.8" width="2.1" height="4.2"></rect>
            <line x1="36" y1="105.2" x2="36" y2="112.9" id="Path" stroke="#000000"></line>
            <circle id="Oval" stroke="#000000" cx="121.1" cy="109.1" r="3.8"></circle>
            <circle id="Oval" stroke="#000000" cx="121.1" cy="47.8" r="3.8"></circle>
        </g>
        <path d="M21.5684917,67.4770508 L23.5743511,67.4770508 L25.440562,71 L27.084605,71 L25.0279644,67.2548828 C26.1451519,66.8803711 26.8053081,65.8774414 26.8053081,64.6396484 C26.8053081,62.9321289 25.6182964,61.840332 23.7711284,61.840332 L20.1466167,61.840332 L20.1466167,71 L21.5684917,71 L21.5684917,67.4770508 Z M21.5684917,63.0336914 L23.5743511,63.0336914 C24.6724956,63.0336914 25.3453472,63.6494141 25.3453472,64.6713867 C25.3453472,65.71875 24.7105816,66.309082 23.612437,66.309082 L21.5684917,66.309082 L21.5684917,63.0336914 Z M32.6870911,69.152832 C32.4331849,69.7114258 31.8682435,70.0161133 31.0430482,70.0161133 C29.9512513,70.0161133 29.2466614,69.2290039 29.2022278,67.9785156 L29.2022278,67.9150391 L34.0835755,67.9150391 L34.0835755,67.4453125 C34.0835755,65.2871094 32.9219544,63.9731445 30.9986146,63.9731445 C29.0498841,63.9731445 27.8120911,65.3759766 27.8120911,67.565918 C27.8120911,69.7685547 29.0244935,71.1333008 31.0049622,71.1333008 C32.5855286,71.1333008 33.7027161,70.371582 34.001056,69.152832 L32.6870911,69.152832 Z M30.9922669,65.0839844 C32.0015443,65.0839844 32.6617005,65.8139648 32.6934388,66.9311523 L29.2022278,66.9311523 C29.2783997,65.8203125 29.9829896,65.0839844 30.9922669,65.0839844 Z M35.2490499,66.0361328 C35.2490499,67.0581055 35.8584249,67.6420898 37.1723898,67.9467773 L38.3784444,68.2324219 C39.070339,68.3974609 39.3940694,68.6767578 39.3940694,69.1083984 C39.3940694,69.6733398 38.7910421,70.0668945 37.9404562,70.0668945 C37.1152608,70.0668945 36.6074483,69.7304688 36.4360616,69.190918 L35.0713155,69.190918 C35.191921,70.390625 36.2646749,71.1333008 37.9087179,71.1333008 C39.5591085,71.1333008 40.7715108,70.2636719 40.7715108,68.9814453 C40.7715108,67.9785156 40.1557882,67.4135742 38.8418233,67.1088867 L37.6928976,66.8422852 C36.9438741,66.6645508 36.594753,66.3979492 36.594753,65.9726562 C36.594753,65.4140625 37.1723898,65.0395508 37.9341085,65.0395508 C38.7085226,65.0395508 39.2036398,65.3759766 39.3305929,65.8901367 L40.6382101,65.8901367 C40.5049093,64.6967773 39.4892843,63.9731445 37.9341085,63.9731445 C36.3725851,63.9731445 35.2490499,64.8364258 35.2490499,66.0361328 Z M46.6342509,69.152832 C46.3803446,69.7114258 45.8154032,70.0161133 44.9902079,70.0161133 C43.898411,70.0161133 43.1938212,69.2290039 43.1493876,67.9785156 L43.1493876,67.9150391 L48.0307353,67.9150391 L48.0307353,67.4453125 C48.0307353,65.2871094 46.8691142,63.9731445 44.9457743,63.9731445 C42.9970438,63.9731445 41.7592509,65.3759766 41.7592509,67.565918 C41.7592509,69.7685547 42.9716532,71.1333008 44.952122,71.1333008 C46.5326884,71.1333008 47.6498759,70.371582 47.9482157,69.152832 L46.6342509,69.152832 Z M44.9394267,65.0839844 C45.948704,65.0839844 46.6088603,65.8139648 46.6405985,66.9311523 L43.1493876,66.9311523 C43.2255595,65.8203125 43.9301493,65.0839844 44.9394267,65.0839844 Z M49.8373229,62.3671875 L51.202069,62.3671875 L51.202069,64.1254883 L52.7001159,64.1254883 L52.7001159,65.2172852 L51.202069,65.2172852 L51.202069,68.8544922 C51.202069,69.597168 51.5004089,69.9208984 52.1796081,69.9208984 C52.3890808,69.9208984 52.5096862,69.9082031 52.7001159,69.8891602 L52.7001159,70.9746094 C52.4779479,71.0126953 52.2240417,71.0444336 51.9574401,71.0444336 C50.4403503,71.0444336 49.8373229,70.5112305 49.8373229,69.1845703 L49.8373229,65.2172852 L48.7391784,65.2172852 L48.7391784,64.1254883 L49.8373229,64.1254883 L49.8373229,62.3671875 Z" id="Reset" fill="#000000" fill-rule="nonzero"></path>
        <path d="M110.712264,61.840332 L110.712264,71 L112.134139,71 L112.134139,67.8706055 L114.254256,67.8706055 C116.050643,67.8706055 117.320174,66.6391602 117.320174,64.8745117 C117.320174,63.0717773 116.088729,61.840332 114.29869,61.840332 L110.712264,61.840332 Z M112.134139,63.0400391 L113.924178,63.0400391 C115.174666,63.0400391 115.866561,63.6875 115.866561,64.8745117 C115.866561,66.0234375 115.149276,66.6772461 113.924178,66.6772461 L112.134139,66.6772461 L112.134139,63.0400391 Z M120.332817,71.1142578 C121.240531,71.1142578 121.995903,70.7207031 122.4085,70.0224609 L122.51641,70.0224609 L122.51641,71 L123.830375,71 L123.830375,66.2836914 C123.830375,64.8364258 122.852836,63.9731445 121.119926,63.9731445 C119.552055,63.9731445 118.434867,64.7285156 118.295219,65.8901367 L119.615531,65.8901367 C119.767875,65.3886719 120.294731,65.1030273 121.056449,65.1030273 C121.989555,65.1030273 122.471977,65.5283203 122.471977,66.2836914 L122.471977,66.8867188 L120.599418,67.0009766 C118.955375,67.1025391 118.028617,67.8198242 118.028617,69.0576172 C118.028617,70.3144531 118.999809,71.1142578 120.332817,71.1142578 Z M120.681938,70.0161133 C119.939262,70.0161133 119.399711,69.6416016 119.399711,69.0004883 C119.399711,68.3720703 119.831352,68.0356445 120.7835,67.972168 L122.471977,67.8579102 L122.471977,68.4545898 C122.471977,69.3432617 121.710258,70.0161133 120.681938,70.0161133 Z M126.163818,62.875 C126.639893,62.875 127.0271,62.487793 127.0271,62.0180664 C127.0271,61.5419922 126.639893,61.1547852 126.163818,61.1547852 C125.687744,61.1547852 125.300537,61.5419922 125.300537,62.0180664 C125.300537,62.487793 125.687744,62.875 126.163818,62.875 Z M125.484619,71 L126.843018,71 L126.843018,64.1064453 L125.484619,64.1064453 L125.484619,71 Z M128.535347,71 L128.535347,64.1064453 L129.849312,64.1064453 L129.849312,65.1538086 L129.950875,65.1538086 C130.147652,64.4746094 130.915719,63.9858398 131.817086,63.9858398 L132.077289,63.9945742 C132.210133,64.0031055 132.338863,64.0175781 132.426461,64.0366211 L132.426461,65.3188477 C132.312203,65.2871094 131.905953,65.2426758 131.664742,65.2426758 C130.630074,65.2426758 129.900094,65.9091797 129.900094,66.8803711 L129.900094,71 L128.535347,71 Z" id="Pair" fill="#000000" fill-rule="nonzero"></path>
    </g>
</svg>