<?xml version="1.0" encoding="UTF-8"?>
<svg width="158px" height="158px" viewBox="0 0 158 158" version="1.1" xmlns="http://www.w3.org/2000/svg" xmlns:xlink="http://www.w3.org/1999/xlink">
    <!-- Generator: Sketch 59.1 (86144) - https://sketch.com -->
    <title>ZG2868A</title>
    <desc>Created with Sketch.</desc>
    <g id="ZG2868A" stroke="none" stroke-width="1" fill="none" fill-rule="evenodd">
        <g id="Group" transform="translate(53.000000, 1.000000)">
            <circle id="Oval" stroke="#000000" cx="26" cy="94" r="6.5"></circle>
            <path d="M12,82.5 C10.6192881,82.5 9.5,83.6192881 9.5,85 C9.5,86.3807119 10.6192881,87.5 12,87.5 L15,87.5 C16.3807119,87.5 17.5,86.3807119 17.5,85 C17.5,83.6192881 16.3807119,82.5 15,82.5 L12,82.5 Z" id="Rectangle" stroke="#000000"></path>
            <path d="M12,105.5 C10.6192881,105.5 9.5,106.619288 9.5,108 C9.5,109.380712 10.6192881,110.5 12,110.5 L15,110.5 C16.3807119,110.5 17.5,109.380712 17.5,108 C17.5,106.619288 16.3807119,105.5 15,105.5 L12,105.5 Z" id="Rectangle-Copy-2" stroke="#000000"></path>
            <path d="M24.5,105.5 C23.1192881,105.5 22,106.619288 22,108 C22,109.380712 23.1192881,110.5 24.5,110.5 L27.5,110.5 C28.8807119,110.5 30,109.380712 30,108 C30,106.619288 28.8807119,105.5 27.5,105.5 L24.5,105.5 Z" id="Rectangle-Copy-3" stroke="#000000"></path>
            <path d="M37,105.5 C35.6192881,105.5 34.5,106.619288 34.5,108 C34.5,109.380712 35.6192881,110.5 37,110.5 L40,110.5 C41.3807119,110.5 42.5,109.380712 42.5,108 C42.5,106.619288 41.3807119,105.5 40,105.5 L37,105.5 Z" id="Rectangle-Copy-4" stroke="#000000"></path>
            <path d="M37,82.5 C35.6192881,82.5 34.5,83.6192881 34.5,85 C34.5,86.3807119 35.6192881,87.5 37,87.5 L40,87.5 C41.3807119,87.5 42.5,86.3807119 42.5,85 C42.5,83.6192881 41.3807119,82.5 40,82.5 L37,82.5 Z" id="Rectangle-Copy" stroke="#000000"></path>
            <circle id="Oval" stroke="#000000" cx="26" cy="32" r="2.5"></circle>
            <path d="M26,33.5 C26.8284271,33.5 27.5,32.8284271 27.5,32 C27.5,31.1715729 26.8284271,30.5 26,30.5 C26,31.470041 26,31.8444586 26,33.5 Z" id="Oval" fill="#000000"></path>
            <circle id="Oval" stroke="#000000" cx="26" cy="32" r="6.5"></circle>
            <circle id="Oval" stroke="#000000" cx="26" cy="32" r="16.5"></circle>
            <path d="M19.229139,0.5 C13.2084967,0.5 10.6051496,1.00272951 7.90945665,2.44440188 C5.55214644,3.70510517 3.70510517,5.55214644 2.44440188,7.90945665 C1.00272951,10.6051496 0.5,13.2084967 0.5,19.229139 L0.5,136.770861 C0.5,142.791503 1.00272951,145.39485 2.44440188,148.090543 C3.70510517,150.447854 5.55214644,152.294895 7.90945665,153.555598 C10.6051496,154.99727 13.2084967,155.5 19.229139,155.5 L32.770861,155.5 C38.7915033,155.5 41.3948504,154.99727 44.0905433,153.555598 C46.4478536,152.294895 48.2948948,150.447854 49.5555981,148.090543 C50.9972705,145.39485 51.5,142.791503 51.5,136.770861 L51.5,19.229139 C51.5,13.2084967 50.9972705,10.6051496 49.5555981,7.90945665 C48.2948948,5.55214644 46.4478536,3.70510517 44.0905433,2.44440188 C41.3948504,1.00272951 38.7915033,0.5 32.770861,0.5 L19.229139,0.5 Z" id="Rectangle" stroke="#000000"></path>
            <path d="M20.1013686,6.5 C15.7063595,6.5 13.8180327,6.86465273 11.8631481,7.91013647 C10.1576897,8.82222558 8.82222558,10.1576897 7.91013647,11.8631481 C6.86465273,13.8180327 6.5,15.7063595 6.5,20.1013686 L6.5,135.898631 C6.5,140.29364 6.86465273,142.181967 7.91013647,144.136852 C8.82222558,145.84231 10.1576897,147.177774 11.8631481,148.089864 C13.8180327,149.135347 15.7063595,149.5 20.1013686,149.5 L31.8986314,149.5 C36.2936405,149.5 38.1819673,149.135347 40.1368519,148.089864 C41.8423103,147.177774 43.1777744,145.84231 44.0898635,144.136852 C45.1353473,142.181967 45.5,140.29364 45.5,135.898631 L45.5,20.1013686 C45.5,15.7063595 45.1353473,13.8180327 44.0898635,11.8631481 C43.1777744,10.1576897 41.8423103,8.82222558 40.1368519,7.91013647 C38.1819673,6.86465273 36.2936405,6.5 31.8986314,6.5 L20.1013686,6.5 Z" id="Rectangle" stroke="#000000"></path>
            <circle id="Oval" fill="#FF3B30" cx="39" cy="12" r="1"></circle>
            <circle id="Oval" stroke="#000000" cx="12.5" cy="62.5" r="3"></circle>
            <circle id="Oval-Copy-4" stroke="#000000" cx="12.5" cy="73.5" r="3"></circle>
            <circle id="Oval-Copy-8" stroke="#000000" cx="12.5" cy="119.5" r="3"></circle>
            <circle id="Oval-Copy" stroke="#000000" cx="21.5" cy="62.5" r="3"></circle>
            <circle id="Oval-Copy-5" stroke="#000000" cx="21.5" cy="73.5" r="3"></circle>
            <circle id="Oval-Copy-9" stroke="#000000" cx="21.5" cy="119.5" r="3"></circle>
            <circle id="Oval-Copy-2" stroke="#000000" cx="30.5" cy="62.5" r="3"></circle>
            <circle id="Oval-Copy-6" stroke="#000000" cx="30.5" cy="73.5" r="3"></circle>
            <circle id="Oval-Copy-10" stroke="#000000" cx="30.5" cy="119.5" r="3"></circle>
            <circle id="Oval-Copy-3" stroke="#000000" cx="39.5" cy="62.5" r="3"></circle>
            <circle id="Oval-Copy-7" stroke="#000000" cx="39.5" cy="73.5" r="3"></circle>
            <circle id="Oval-Copy-11" stroke="#000000" cx="39.5" cy="119.5" r="3"></circle>
            <rect id="Rectangle" fill="#000000" x="25.5" y="90" width="1" height="4"></rect>
            <circle id="Oval" stroke="#000000" cx="26" cy="94" r="2.5"></circle>
        </g>
    </g>
</svg>