<?xml version="1.0" encoding="UTF-8"?>
<svg width="158px" height="158px" viewBox="0 0 158 158" version="1.1" xmlns="http://www.w3.org/2000/svg" xmlns:xlink="http://www.w3.org/1999/xlink">
    <!-- Generator: Sketch 59.1 (86144) - https://sketch.com -->
    <title>ZG2868A learnmode</title>
    <desc>Created with Sketch.</desc>
    <g id="ZG2868A-learnmode" stroke="none" stroke-width="1" fill="none" fill-rule="evenodd">
        <g id="Group" transform="translate(53.000000, 1.000000)">
            <circle id="Oval" stroke="#000000" cx="26" cy="94" r="6.5"></circle>
            <path d="M12,82.5 C10.6192881,82.5 9.5,83.6192881 9.5,85 C9.5,86.3807119 10.6192881,87.5 12,87.5 L15,87.5 C16.3807119,87.5 17.5,86.3807119 17.5,85 C17.5,83.6192881 16.3807119,82.5 15,82.5 L12,82.5 Z" id="Rectangle" stroke="#000000"></path>
            <path d="M12,105.5 C10.6192881,105.5 9.5,106.619288 9.5,108 C9.5,109.380712 10.6192881,110.5 12,110.5 L15,110.5 C16.3807119,110.5 17.5,109.380712 17.5,108 C17.5,106.619288 16.3807119,105.5 15,105.5 L12,105.5 Z" id="Rectangle-Copy-2" stroke="#000000"></path>
            <path d="M24.5,105.5 C23.1192881,105.5 22,106.619288 22,108 C22,109.380712 23.1192881,110.5 24.5,110.5 L27.5,110.5 C28.8807119,110.5 30,109.380712 30,108 C30,106.619288 28.8807119,105.5 27.5,105.5 L24.5,105.5 Z" id="Rectangle-Copy-3" stroke="#000000"></path>
            <path d="M37,105.5 C35.6192881,105.5 34.5,106.619288 34.5,108 C34.5,109.380712 35.6192881,110.5 37,110.5 L40,110.5 C41.3807119,110.5 42.5,109.380712 42.5,108 C42.5,106.619288 41.3807119,105.5 40,105.5 L37,105.5 Z" id="Rectangle-Copy-4" stroke="#000000"></path>
            <path d="M37,82.5 C35.6192881,82.5 34.5,83.6192881 34.5,85 C34.5,86.3807119 35.6192881,87.5 37,87.5 L40,87.5 C41.3807119,87.5 42.5,86.3807119 42.5,85 C42.5,83.6192881 41.3807119,82.5 40,82.5 L37,82.5 Z" id="Rectangle-Copy" stroke="#000000"></path>
            <circle id="Oval" stroke="#000000" cx="26" cy="32" r="2.5"></circle>
            <path d="M26,33.5 C26.8284271,33.5 27.5,32.8284271 27.5,32 C27.5,31.1715729 26.8284271,30.5 26,30.5 C26,31.470041 26,31.8444586 26,33.5 Z" id="Oval" fill="#000000"></path>
            <circle id="Oval" stroke="#000000" cx="26" cy="32" r="6.5"></circle>
            <circle id="Oval" stroke="#000000" cx="26" cy="32" r="16.5"></circle>
            <path d="M19.229139,0.5 C13.2084967,0.5 10.6051496,1.00272951 7.90945665,2.44440188 C5.55214644,3.70510517 3.70510517,5.55214644 2.44440188,7.90945665 C1.00272951,10.6051496 0.5,13.2084967 0.5,19.229139 L0.5,136.770861 C0.5,142.791503 1.00272951,145.39485 2.44440188,148.090543 C3.70510517,150.447854 5.55214644,152.294895 7.90945665,153.555598 C10.6051496,154.99727 13.2084967,155.5 19.229139,155.5 L32.770861,155.5 C38.7915033,155.5 41.3948504,154.99727 44.0905433,153.555598 C46.4478536,152.294895 48.2948948,150.447854 49.5555981,148.090543 C50.9972705,145.39485 51.5,142.791503 51.5,136.770861 L51.5,19.229139 C51.5,13.2084967 50.9972705,10.6051496 49.5555981,7.90945665 C48.2948948,5.55214644 46.4478536,3.70510517 44.0905433,2.44440188 C41.3948504,1.00272951 38.7915033,0.5 32.770861,0.5 L19.229139,0.5 Z" id="Rectangle" stroke="#000000"></path>
            <path d="M20.1013686,6.5 C15.7063595,6.5 13.8180327,6.86465273 11.8631481,7.91013647 C10.1576897,8.82222558 8.82222558,10.1576897 7.91013647,11.8631481 C6.86465273,13.8180327 6.5,15.7063595 6.5,20.1013686 L6.5,135.898631 C6.5,140.29364 6.86465273,142.181967 7.91013647,144.136852 C8.82222558,145.84231 10.1576897,147.177774 11.8631481,148.089864 C13.8180327,149.135347 15.7063595,149.5 20.1013686,149.5 L31.8986314,149.5 C36.2936405,149.5 38.1819673,149.135347 40.1368519,148.089864 C41.8423103,147.177774 43.1777744,145.84231 44.0898635,144.136852 C45.1353473,142.181967 45.5,140.29364 45.5,135.898631 L45.5,20.1013686 C45.5,15.7063595 45.1353473,13.8180327 44.0898635,11.8631481 C43.1777744,10.1576897 41.8423103,8.82222558 40.1368519,7.91013647 C38.1819673,6.86465273 36.2936405,6.5 31.8986314,6.5 L20.1013686,6.5 Z" id="Rectangle" stroke="#000000"></path>
            <circle id="Oval" fill="#FF3B30" cx="39" cy="12" r="1"></circle>
            <circle id="Oval" stroke="#000000" cx="12.5" cy="62.5" r="3"></circle>
            <circle id="Oval-Copy-4" stroke="#000000" cx="12.5" cy="73.5" r="3"></circle>
            <circle id="Oval-Copy-8" stroke="#000000" cx="12.5" cy="119.5" r="3"></circle>
            <circle id="Oval-Copy" stroke="#000000" cx="21.5" cy="62.5" r="3"></circle>
            <circle id="Oval-Copy-5" stroke="#000000" cx="21.5" cy="73.5" r="3"></circle>
            <circle id="Oval-Copy-9" stroke="#000000" cx="21.5" cy="119.5" r="3"></circle>
            <circle id="Oval-Copy-2" stroke="#000000" cx="30.5" cy="62.5" r="3"></circle>
            <circle id="Oval-Copy-6" stroke="#000000" cx="30.5" cy="73.5" r="3"></circle>
            <circle id="Oval-Copy-10" stroke="#000000" cx="30.5" cy="119.5" r="3"></circle>
            <circle id="Oval-Copy-3" stroke="#000000" cx="39.5" cy="62.5" r="3"></circle>
            <circle id="Oval-Copy-7" stroke="#000000" cx="39.5" cy="73.5" r="3"></circle>
            <circle id="Oval-Copy-11" stroke="#000000" cx="39.5" cy="119.5" r="3"></circle>
            <rect id="Rectangle" fill="#000000" x="25.5" y="90" width="1" height="4"></rect>
            <circle id="Oval" stroke="#000000" cx="26" cy="94" r="2.5"></circle>
        </g>
        <path d="M118.444336,89.543457 C118.552246,91.1240234 119.885254,92.1523438 121.884766,92.1523438 C123.935059,92.1523438 125.268066,91.0922852 125.268066,89.3974609 C125.268066,88.1025391 124.512695,87.3408203 122.602051,86.921875 L121.586426,86.699707 C120.335938,86.4267578 119.847168,85.9316406 119.847168,85.2080078 C119.847168,84.2749023 120.729492,83.7163086 121.87207,83.7163086 C123.06543,83.7163086 123.858887,84.3320312 123.960449,85.3349609 L125.103027,85.3349609 C125.052246,83.7797852 123.731934,82.6879883 121.903809,82.6879883 C120.005859,82.6879883 118.672852,83.7480469 118.672852,85.2587891 C118.672852,86.5600586 119.466309,87.3916016 121.300781,87.7915039 L122.316406,88.0136719 C123.585938,88.2929688 124.09375,88.8007812 124.09375,89.5688477 C124.09375,90.4702148 123.192383,91.1240234 121.948242,91.1240234 C120.634277,91.1240234 119.720215,90.5273438 119.586914,89.543457 L118.444336,89.543457 Z M130.496041,90.1083984 C130.311959,90.7304688 129.696236,91.1557617 128.858346,91.1557617 C127.725289,91.1557617 126.997092,90.3980955 126.933233,89.2305744 L126.928658,88.9975586 L131.66401,88.9975586 L131.66401,88.5786133 C131.66401,86.5791016 130.565865,85.2841797 128.782174,85.2841797 C126.960396,85.2841797 125.792428,86.6743164 125.792428,88.7246094 C125.792428,90.800293 126.941353,92.1142578 128.832955,92.1142578 C130.273873,92.1142578 131.39106,91.2636719 131.58149,90.1083984 L130.496041,90.1083984 Z M128.763131,86.2426758 C129.804146,86.2426758 130.496041,87.0297852 130.521431,88.1342773 L126.935006,88.1342773 C127.00483,87.0361328 127.728463,86.2426758 128.763131,86.2426758 Z M132.816789,83.8051758 L133.921281,83.8051758 L133.921281,85.3984375 L135.203507,85.3984375 L135.203507,86.3061523 L133.921281,86.3061523 L133.921281,90.2290039 C133.921281,90.8320312 134.175187,91.1049805 134.740128,91.1049805 L134.93391,91.0974648 C135.041769,91.0907617 135.151457,91.0808594 135.19716,91.0732422 L135.19716,92 C135.063859,92.0317383 134.759171,92.0507812 134.498918,92.0507812 C133.286515,92.0507812 132.816789,91.5556641 132.816789,90.2861328 L132.816789,86.3061523 L131.832902,86.3061523 L131.832902,85.3984375 L132.816789,85.3984375 L132.816789,83.8051758 Z" id="Set" fill="#000000" fill-rule="nonzero"></path>
        <path d="M16.8886719,97.840332 L16.8886719,107 L18.03125,107 L18.03125,103.730957 L20.1450195,103.730957 C21.8652344,103.730957 23.090332,102.518555 23.090332,100.779297 C23.090332,99.0463867 21.8779297,97.840332 20.1577148,97.840332 L16.8886719,97.840332 Z M18.03125,98.855957 L19.859375,98.855957 C21.1733398,98.855957 21.9160156,99.5668945 21.9160156,100.779297 C21.9160156,101.998047 21.1669922,102.715332 19.859375,102.715332 L18.03125,102.715332 L18.03125,98.855957 Z M25.2714314,107.114258 C26.1601033,107.114258 26.9979939,106.619141 27.3915486,105.86377 L27.4169392,105.86377 L27.4169392,107 L28.4643025,107 L28.4643025,102.436035 C28.4643025,101.12207 27.4867635,100.28418 25.9379353,100.28418 C24.3764119,100.28418 23.3988728,101.160156 23.322701,102.302734 L24.3891072,102.302734 C24.5287557,101.655273 25.0619588,101.255371 25.9125447,101.255371 C26.8266072,101.255371 27.3598103,101.737793 27.3598103,102.543945 L27.3598103,103.096191 L25.4682088,103.204102 C23.9447713,103.292969 23.0751424,104.003906 23.0751424,105.133789 C23.0751424,106.320801 23.9574666,107.114258 25.2714314,107.114258 Z M25.51899,106.174805 C24.725533,106.174805 24.1986775,105.762207 24.1986775,105.133789 C24.1986775,104.511719 24.70649,104.118164 25.5951619,104.061035 L27.3598103,103.953125 L27.3598103,104.492676 C27.3598103,105.444824 26.5600057,106.174805 25.51899,106.174805 Z M30.1629801,99.2241211 C30.5501871,99.2241211 30.8548746,98.9130859 30.8548746,98.5322266 C30.8548746,98.1450195 30.5501871,97.840332 30.1629801,97.840332 C29.7821207,97.840332 29.4710855,98.1450195 29.4710855,98.5322266 C29.4710855,98.9130859 29.7821207,99.2241211 30.1629801,99.2241211 Z M29.610734,107 L30.7152262,107 L30.7152262,100.398438 L29.610734,100.398438 L29.610734,107 Z M31.8933959,107 L31.8933959,100.398438 L32.9344115,100.398438 L32.9344115,101.477539 L32.9598021,101.477539 C33.1756224,100.747559 33.7849974,100.28418 34.5594115,100.28418 C34.7498412,100.28418 34.9148803,100.315918 35.0037474,100.328613 L35.0037474,101.401367 C34.9148803,101.369629 34.680017,101.337891 34.4134154,101.337891 C33.5564818,101.337891 32.9978881,101.953613 32.9978881,102.886719 L32.9978881,107 L31.8933959,107 Z" id="Pair" fill="#000000" fill-rule="nonzero"></path>
        <line x1="83.5" y1="94.5" x2="135.5" y2="94.5" id="Line" stroke="#000000" stroke-linecap="square"></line>
        <line x1="15.5" y1="109.5" x2="65.5" y2="109.5" id="Line-3" stroke="#000000" stroke-linecap="square"></line>
    </g>
</svg>