<?xml version="1.0" encoding="UTF-8"?>
<svg width="160px" height="160px" viewBox="0 0 160 160" version="1.1" xmlns="http://www.w3.org/2000/svg" xmlns:xlink="http://www.w3.org/1999/xlink">
    <!-- Generator: Sketch 59.1 (86144) - https://sketch.com -->
    <title>Outlet</title>
    <desc>Created with Sketch.</desc>
    <g id="Outlet" stroke="none" stroke-width="1" fill="none" fill-rule="evenodd">
        <g id="Group-5" transform="translate(10.000000, 10.000000)">
            <rect id="Rectangle" stroke="#000000" x="65.0952381" y="19.0952381" width="8" height="10"></rect>
            <rect id="Rectangle-Copy-2" stroke="#000000" x="65.0952381" y="112.095238" width="8" height="10"></rect>
            <circle id="Oval" fill="#000000" cx="50.0952381" cy="71.0952381" r="7"></circle>
            <circle id="Oval-Copy-3" fill="#000000" cx="89.0952381" cy="71.0952381" r="7"></circle>
            <path d="M26.0755013,41.0952381 L26.0755013,63.9854115 M17.0952381,63.9854115 L25.3847118,63.9854115 M26.0755013,101.095238 L26.0755013,78.2050647 M17.0952381,78.2050647 L25.3847118,78.2050647 M113.114975,41.0952381 L113.114975,63.9854115 M122.095238,63.9854115 L113.805764,63.9854115 M113.114975,101.095238 L113.114975,78.2050647 M122.095238,78.2050647 L113.805764,78.2050647" id="Combined-Shape" stroke="#000000" stroke-linecap="square"></path>
            <circle id="Oval" stroke="#000000" cx="69.0952381" cy="71.0952381" r="53.5"></circle>
            <rect id="Rectangle" stroke="#000000" x="0.595238095" y="0.595238095" width="138" height="284" rx="69"></rect>
            <circle id="Oval" stroke="#000000" cx="69.0952381" cy="71.0952381" r="58.5"></circle>
        </g>
    </g>
</svg>