<?xml version="1.0" encoding="UTF-8"?>
<svg width="160px" height="160px" viewBox="0 0 160 160" version="1.1" xmlns="http://www.w3.org/2000/svg" xmlns:xlink="http://www.w3.org/1999/xlink">
    <!-- Generator: Sketch 59.1 (86144) - https://sketch.com -->
    <title>Outlet</title>
    <desc>Created with Sketch.</desc>
    <g id="Outlet" stroke="none" stroke-width="1" fill="none" fill-rule="evenodd">
        <g id="Group-5" transform="translate(41.904762, 1.904762)">
            <g id="Group-4" transform="translate(30.095238, 123.047619)">
                <circle id="Oval" fill="#007AFF" cx="8" cy="8" r="3.04761905"></circle>
                <circle id="Oval" stroke="#000000" cx="8" cy="8" r="7.5"></circle>
            </g>
            <rect id="Rectangle" stroke="#000000" x="35.8095238" y="10.5238095" width="4.57142857" height="5.71428571"></rect>
            <rect id="Rectangle-Copy-2" stroke="#000000" x="35.8095238" y="61.4761905" width="4.57142857" height="5.71428571"></rect>
            <circle id="Oval" fill="#000000" cx="27.4285714" cy="39.2380952" r="3.80952381"></circle>
            <circle id="Oval-Copy-3" fill="#000000" cx="48.7619048" cy="39.2380952" r="3.80952381"></circle>
            <path d="M14.0952381,22.4761905 L14.0952381,35.047619 M9.14285714,35.047619 L13.7142857,35.047619 M14.0952381,55.4285714 L14.0952381,42.8571429 M9.14285714,42.8571429 L13.7142857,42.8571429 M62.0952381,22.4761905 L62.0952381,35.047619 M67.047619,35.047619 L62.4761905,35.047619 M62.0952381,55.4285714 L62.0952381,42.8571429 M67.047619,42.8571429 L62.4761905,42.8571429" id="Combined-Shape" stroke="#000000" stroke-linecap="square"></path>
            <circle id="Oval" stroke="#000000" cx="38.0952381" cy="38.8571429" r="29.2142857"></circle>
            <rect id="Rectangle" stroke="#000000" x="0.5" y="0.5" width="75.1904762" height="155.190476" rx="37.5952381"></rect>
            <circle id="Oval" stroke="#000000" cx="38.0952381" cy="38.8571429" r="31.8809524"></circle>
        </g>
    </g>
</svg>